<?xml version="1.0"?>


<svg fill-opacity="1" xmlns:xlink="http://www.w3.org/1999/xlink"
     color-rendering="auto" color-interpolation="auto" text-rendering="auto"
     stroke="black" stroke-linecap="square" width="900" stroke-miterlimit="10"
     shape-rendering="auto" stroke-opacity="1" fill="black"
     stroke-dasharray="none" font-weight="normal" stroke-width="1"
     viewBox="0 0 900 490" height="490" xmlns="http://www.w3.org/2000/svg"
     font-family="'Dialog'" font-style="normal" stroke-linejoin="miter"
     font-size="12px" stroke-dashoffset="0" image-rendering="auto">
    <!--Generated by Archi with Batik SVG Generator-->
    <defs id="genericDefs"/>
    <g>
        <defs id="defs1">
            <clipPath clipPathUnits="userSpaceOnUse" id="clipPath1">
                <path d="M9 9 L251 9 L251 101 L9 101 L9 9 Z"/>
            </clipPath>
            <clipPath clipPathUnits="userSpaceOnUse" id="clipPath2">
                <path d="M55 13 L204 13 L204 32 L55 32 L55 13 Z"/>
            </clipPath>
            <clipPath clipPathUnits="userSpaceOnUse" id="clipPath3">
                <path d="M309 9 L571 9 L571 101 L309 101 L309 9 Z"/>
            </clipPath>
            <clipPath clipPathUnits="userSpaceOnUse" id="clipPath4">
                <path d="M364 13 L516 13 L516 32 L364 32 L364 13 Z"/>
            </clipPath>
            <clipPath clipPathUnits="userSpaceOnUse" id="clipPath5">
                <path d="M629 9 L891 9 L891 101 L629 101 L629 9 Z"/>
            </clipPath>
            <clipPath clipPathUnits="userSpaceOnUse" id="clipPath6">
                <path d="M681 13 L838 13 L838 32 L681 32 L681 13 Z"/>
            </clipPath>
            <clipPath clipPathUnits="userSpaceOnUse" id="clipPath7">
                <path d="M9 209 L251 209 L251 301 L9 301 L9 209 Z"/>
            </clipPath>
            <clipPath clipPathUnits="userSpaceOnUse" id="clipPath8">
                <path d="M86 213 L173 213 L173 232 L86 232 L86 213 Z"/>
            </clipPath>
            <clipPath clipPathUnits="userSpaceOnUse" id="clipPath9">
                <path d="M309 209 L571 209 L571 301 L309 301 L309 209 Z"/>
            </clipPath>
            <clipPath clipPathUnits="userSpaceOnUse" id="clipPath10">
                <path d="M348 213 L531 213 L531 232 L348 232 L348 213 Z"/>
            </clipPath>
            <clipPath clipPathUnits="userSpaceOnUse" id="clipPath11">
                <path d="M249 389 L491 389 L491 481 L249 481 L249 389 Z"/>
            </clipPath>
            <clipPath clipPathUnits="userSpaceOnUse" id="clipPath12">
                <path d="M316 393 L424 393 L424 412 L316 412 L316 393 Z"/>
            </clipPath>
            <clipPath clipPathUnits="userSpaceOnUse" id="clipPath13">
                <path d="M529 389 L751 389 L751 481 L529 481 L529 389 Z"/>
            </clipPath>
            <clipPath clipPathUnits="userSpaceOnUse" id="clipPath14">
                <path d="M613 393 L667 393 L667 412 L613 412 L613 393 Z"/>
            </clipPath>
            <clipPath clipPathUnits="userSpaceOnUse" id="clipPath15">
                <path d="M238 44 L322 44 L322 67 L238 67 L238 44 Z"/>
            </clipPath>
            <clipPath clipPathUnits="userSpaceOnUse" id="clipPath16">
                <path d="M558 44 L642 44 L642 67 L558 67 L558 44 Z"/>
            </clipPath>
            <clipPath clipPathUnits="userSpaceOnUse" id="clipPath17">
                <path d="M429 88 L452 88 L452 222 L429 222 L429 88 Z"/>
            </clipPath>
            <clipPath clipPathUnits="userSpaceOnUse" id="clipPath18">
                <path d="M238 244 L322 244 L322 267 L238 267 L238 244 Z"/>
            </clipPath>
            <clipPath clipPathUnits="userSpaceOnUse" id="clipPath19">
                <path d="M382 287 L419 287 L419 402 L382 402 L382 287 Z"/>
            </clipPath>
            <clipPath clipPathUnits="userSpaceOnUse" id="clipPath20">
                <path d="M392 297 L409 297 L409 322 L392 322 L392 297 Z"/>
            </clipPath>
            <clipPath clipPathUnits="userSpaceOnUse" id="clipPath21">
                <path d="M532 287 L569 287 L569 402 L532 402 L532 287 Z"/>
            </clipPath>
            <clipPath clipPathUnits="userSpaceOnUse" id="clipPath22">
                <path d="M542 297 L559 297 L559 322 L542 322 L542 297 Z"/>
            </clipPath>
        </defs>
        <g fill="rgb(237,207,226)" text-rendering="optimizeLegibility"
           stroke-miterlimit="0" stroke-width="0" stroke="rgb(237,207,226)"
           stroke-linejoin="round">
            <rect x="10" width="239" height="89" y="10"
                  clip-path="url(#clipPath1)" stroke="none"/>
        </g>
        <g fill="rgb(165,144,158)" text-rendering="optimizeLegibility"
           stroke-linecap="butt" stroke="rgb(165,144,158)">
            <rect fill="none" x="10" width="239" height="89" y="10"
                  clip-path="url(#clipPath1)"/>
            <path fill="none"
                  d="M245.6992 21.7109 C246.8867 18.4492 244.4688 15 241 15 C237.5312 15 235.1133 18.4492 236.3008 21.7109 L241 30 ZM245.6992 21.7109"
                  clip-path="url(#clipPath1)" fill-rule="evenodd" stroke="black"/>
            <path fill="black"
                  d="M63.7188 27 L62.6406 27 L62.6406 23 L58.25 23 L58.25 27 L57.1562 27 L57.1562 18.4375 L58.25 18.4375 L58.25 22.0625 L62.6406 22.0625 L62.6406 18.4375 L63.7188 18.4375 L63.7188 27 ZM71.5014 23.7656 Q71.5014 25.375 70.6889 26.25 Q69.8764 27.125 68.5014 27.125 Q67.6577 27.125 66.9858 26.7344 Q66.3139 26.3438 65.9233 25.5938 Q65.5483 24.8438 65.5483 23.7656 Q65.5483 22.1719 66.3452 21.3125 Q67.1577 20.4531 68.5327 20.4531 Q69.4233 20.4531 70.0796 20.8438 Q70.7514 21.2344 71.1264 21.9688 Q71.5014 22.7031 71.5014 23.7656 ZM66.6421 23.7656 Q66.6421 24.9062 67.0952 25.5781 Q67.5483 26.25 68.5327 26.25 Q69.5014 26.25 69.9546 25.5781 Q70.4077 24.9062 70.4077 23.7656 Q70.4077 22.625 69.9546 21.9844 Q69.5014 21.3438 68.5171 21.3438 Q67.5327 21.3438 67.0796 21.9844 Q66.6421 22.625 66.6421 23.7656 ZM75.449 20.4531 Q76.0896 20.4531 76.5896 20.6875 Q77.1052 20.9219 77.4646 21.4219 L77.5271 21.4219 L77.6677 20.5625 L78.5115 20.5625 L78.5115 27.1094 Q78.5115 28.4844 77.8084 29.1719 Q77.1052 29.875 75.6365 29.875 Q74.2146 29.875 73.3084 29.4688 L73.3084 28.5 Q74.2615 29 75.699 29 Q76.5271 29 76.9959 28.5156 Q77.4646 28.0312 77.4646 27.1875 L77.4646 26.9375 Q77.4646 26.7969 77.4802 26.5312 Q77.4959 26.25 77.5115 26.1406 L77.449 26.1406 Q76.8084 27.125 75.4646 27.125 Q74.2146 27.125 73.5115 26.25 Q72.8084 25.375 72.8084 23.7969 Q72.8084 22.2656 73.5115 21.3594 Q74.2146 20.4531 75.449 20.4531 ZM75.5896 21.3438 Q74.7927 21.3438 74.3396 21.9844 Q73.9021 22.625 73.9021 23.8125 Q73.9021 25 74.3396 25.625 Q74.7771 26.25 75.6209 26.25 Q76.5896 26.25 77.0271 25.7344 Q77.4802 25.2188 77.4802 24.0469 L77.4802 23.7969 Q77.4802 22.4688 77.0271 21.9062 Q76.574 21.3438 75.5896 21.3438 ZM82.9853 20.4531 Q84.1572 20.4531 84.7197 20.9688 Q85.2978 21.4844 85.2978 22.625 L85.2978 27 L84.5165 27 L84.3134 26.0938 L84.2665 26.0938 Q83.8447 26.6094 83.3759 26.875 Q82.9228 27.125 82.1103 27.125 Q81.2353 27.125 80.6572 26.6719 Q80.079 26.2031 80.079 25.2188 Q80.079 24.25 80.829 23.7344 Q81.5947 23.2031 83.1728 23.1562 L84.2665 23.125 L84.2665 22.7344 Q84.2665 21.9375 83.9072 21.625 Q83.5634 21.3125 82.9228 21.3125 Q82.4228 21.3125 81.9697 21.4688 Q81.5165 21.6094 81.1103 21.7969 L80.7978 21.0156 Q81.2197 20.7812 81.7822 20.625 Q82.3603 20.4531 82.9853 20.4531 ZM83.2978 23.8906 Q82.0947 23.9375 81.6259 24.2812 Q81.1728 24.6094 81.1728 25.2188 Q81.1728 25.7656 81.5009 26.0156 Q81.829 26.2656 82.3447 26.2656 Q83.1728 26.2656 83.704 25.8281 Q84.2509 25.375 84.2509 24.4375 L84.2509 23.8594 L83.2978 23.8906 ZM90.2798 20.4531 Q90.4673 20.4531 90.6705 20.4688 Q90.8892 20.4844 91.0455 20.5156 L90.9048 21.4844 Q90.7486 21.4531 90.5611 21.4375 Q90.3736 21.4062 90.2173 21.4062 Q89.7173 21.4062 89.2798 21.6875 Q88.858 21.9531 88.5923 22.4375 Q88.3423 22.9219 88.3423 23.5625 L88.3423 27 L87.2798 27 L87.2798 20.5625 L88.1548 20.5625 L88.2642 21.75 L88.3111 21.75 Q88.6236 21.2188 89.108 20.8438 Q89.608 20.4531 90.2798 20.4531 ZM98.684 18.4375 L95.4965 27 L94.4653 27 L97.6528 18.4375 L98.684 18.4375 ZM108.5337 23.7656 Q108.5337 25.375 107.7212 26.25 Q106.9087 27.125 105.5337 27.125 Q104.69 27.125 104.0181 26.7344 Q103.3462 26.3438 102.9556 25.5938 Q102.5806 24.8438 102.5806 23.7656 Q102.5806 22.1719 103.3775 21.3125 Q104.19 20.4531 105.565 20.4531 Q106.4556 20.4531 107.1118 20.8438 Q107.7837 21.2344 108.1587 21.9688 Q108.5337 22.7031 108.5337 23.7656 ZM103.6743 23.7656 Q103.6743 24.9062 104.1275 25.5781 Q104.5806 26.25 105.565 26.25 Q106.5337 26.25 106.9868 25.5781 Q107.44 24.9062 107.44 23.7656 Q107.44 22.625 106.9868 21.9844 Q106.5337 21.3438 105.5493 21.3438 Q104.565 21.3438 104.1118 21.9844 Q103.6743 22.625 103.6743 23.7656 ZM113.1688 21.3906 L111.5438 21.3906 L111.5438 27 L110.4969 27 L110.4969 21.3906 L109.3719 21.3906 L109.3719 20.8906 L110.4969 20.5312 L110.4969 20.1562 Q110.4969 18.9062 111.0438 18.3594 Q111.5906 17.8125 112.575 17.8125 Q112.9656 17.8125 113.2781 17.8906 Q113.6063 17.9531 113.825 18.0312 L113.5594 18.8594 Q113.3563 18.7969 113.1063 18.75 Q112.8563 18.6875 112.5906 18.6875 Q112.0594 18.6875 111.7938 19.0469 Q111.5438 19.3906 111.5438 20.1406 L111.5438 20.5625 L113.1688 20.5625 L113.1688 21.3906 ZM114.8749 18.1562 Q115.1093 18.1562 115.2968 18.3281 Q115.4843 18.4844 115.4843 18.8281 Q115.4843 19.1562 115.2968 19.3281 Q115.1093 19.5 114.8749 19.5 Q114.6093 19.5 114.4218 19.3281 Q114.2499 19.1562 114.2499 18.8281 Q114.2499 18.4844 114.4218 18.3281 Q114.6093 18.1562 114.8749 18.1562 ZM115.3905 20.5625 L115.3905 27 L114.328 27 L114.328 20.5625 L115.3905 20.5625 ZM120.0022 27.125 Q119.1584 27.125 118.4866 26.7812 Q117.8303 26.4219 117.4397 25.6875 Q117.0647 24.9531 117.0647 23.8125 Q117.0647 22.625 117.4553 21.8906 Q117.8616 21.1406 118.5334 20.7969 Q119.2209 20.4531 120.0803 20.4531 Q120.5647 20.4531 121.0178 20.5625 Q121.4866 20.6562 121.7678 20.7969 L121.4553 21.6719 Q121.1584 21.5625 120.7678 21.4688 Q120.3928 21.375 120.0491 21.375 Q118.1584 21.375 118.1584 23.8125 Q118.1584 24.9688 118.6116 25.5938 Q119.0803 26.2031 120.0022 26.2031 Q120.5178 26.2031 120.9241 26.0938 Q121.3303 25.9844 121.6584 25.8438 L121.6584 26.7656 Q121.3459 26.9375 120.9553 27.0312 Q120.5647 27.125 120.0022 27.125 ZM123.731 18.1562 Q123.9654 18.1562 124.1529 18.3281 Q124.3404 18.4844 124.3404 18.8281 Q124.3404 19.1562 124.1529 19.3281 Q123.9654 19.5 123.731 19.5 Q123.4654 19.5 123.2779 19.3281 Q123.106 19.1562 123.106 18.8281 Q123.106 18.4844 123.2779 18.3281 Q123.4654 18.1562 123.731 18.1562 ZM124.2466 20.5625 L124.2466 27 L123.1841 27 L123.1841 20.5625 L124.2466 20.5625 ZM129.3739 20.4531 Q130.5301 20.4531 131.1083 21.0156 Q131.702 21.5625 131.702 22.8125 L131.702 27 L130.6708 27 L130.6708 22.8906 Q130.6708 21.3438 129.2176 21.3438 Q128.1551 21.3438 127.7489 21.9375 Q127.3426 22.5312 127.3426 23.6562 L127.3426 27 L126.2801 27 L126.2801 20.5625 L127.1395 20.5625 L127.2958 21.4375 L127.3583 21.4375 Q127.6708 20.9375 128.2176 20.7031 Q128.7645 20.4531 129.3739 20.4531 ZM136.1337 20.4531 Q137.3056 20.4531 137.8681 20.9688 Q138.4462 21.4844 138.4462 22.625 L138.4462 27 L137.6649 27 L137.4618 26.0938 L137.4149 26.0938 Q136.9931 26.6094 136.5243 26.875 Q136.0712 27.125 135.2587 27.125 Q134.3837 27.125 133.8056 26.6719 Q133.2274 26.2031 133.2274 25.2188 Q133.2274 24.25 133.9774 23.7344 Q134.7431 23.2031 136.3212 23.1562 L137.4149 23.125 L137.4149 22.7344 Q137.4149 21.9375 137.0556 21.625 Q136.7118 21.3125 136.0712 21.3125 Q135.5712 21.3125 135.1181 21.4688 Q134.6649 21.6094 134.2587 21.7969 L133.9462 21.0156 Q134.3681 20.7812 134.9306 20.625 Q135.5087 20.4531 136.1337 20.4531 ZM136.4462 23.8906 Q135.2431 23.9375 134.7743 24.2812 Q134.3212 24.6094 134.3212 25.2188 Q134.3212 25.7656 134.6493 26.0156 Q134.9774 26.2656 135.4931 26.2656 Q136.3212 26.2656 136.8524 25.8281 Q137.3993 25.375 137.3993 24.4375 L137.3993 23.8594 L136.4462 23.8906 ZM145.8295 27.125 Q144.6264 27.125 143.9076 26.2969 Q143.1889 25.4531 143.1889 23.7969 Q143.1889 22.1406 143.9076 21.2969 Q144.642 20.4531 145.8451 20.4531 Q146.5951 20.4531 147.0639 20.7344 Q147.5326 21 147.8295 21.3906 L147.9076 21.3906 Q147.892 21.2344 147.8607 20.9375 Q147.8295 20.625 147.8295 20.4531 L147.8295 17.875 L148.892 17.875 L148.892 27 L148.0482 27 L147.892 26.1406 L147.8295 26.1406 Q147.5482 26.5469 147.0639 26.8438 Q146.5951 27.125 145.8295 27.125 ZM146.0014 26.25 Q147.017 26.25 147.4232 25.6875 Q147.8451 25.125 147.8451 24 L147.8451 23.8125 Q147.8451 22.6094 147.4545 21.9688 Q147.0639 21.3281 145.9857 21.3281 Q145.142 21.3281 144.7045 22.0156 Q144.2826 22.6875 144.2826 23.8125 Q144.2826 24.9688 144.7045 25.6094 Q145.142 26.25 146.0014 26.25 ZM153.4127 20.4531 Q154.2408 20.4531 154.8345 20.8125 Q155.4283 21.1719 155.7408 21.8281 Q156.0689 22.4688 156.0689 23.3594 L156.0689 23.9844 L151.6627 23.9844 Q151.6939 25.0781 152.2252 25.6562 Q152.7564 26.2188 153.7095 26.2188 Q154.3345 26.2188 154.8033 26.1094 Q155.272 25.9844 155.7877 25.7812 L155.7877 26.7031 Q155.2877 26.9219 154.8033 27.0156 Q154.3345 27.125 153.6627 27.125 Q152.7564 27.125 152.0533 26.75 Q151.3502 26.375 150.9595 25.6406 Q150.5689 24.9062 150.5689 23.8281 Q150.5689 22.7812 150.9283 22.0312 Q151.2877 21.2656 151.9283 20.8594 Q152.5689 20.4531 153.4127 20.4531 ZM153.397 21.3125 Q152.647 21.3125 152.2095 21.7969 Q151.772 22.2812 151.6939 23.1406 L154.9595 23.1406 Q154.9595 22.3281 154.5845 21.8281 Q154.2095 21.3125 153.397 21.3125 ZM158.7589 27 L157.6964 27 L157.6964 17.875 L158.7589 17.875 L158.7589 27 ZM169.2874 20.5625 L169.2874 27 L168.428 27 L168.2718 26.1406 L168.2249 26.1406 Q167.9124 26.6562 167.3499 26.8906 Q166.803 27.125 166.178 27.125 Q165.0218 27.125 164.428 26.5625 Q163.8499 26 163.8499 24.7812 L163.8499 20.5625 L164.9124 20.5625 L164.9124 24.7031 Q164.9124 26.25 166.3343 26.25 Q167.4124 26.25 167.8186 25.6562 Q168.2405 25.0469 168.2405 23.9219 L168.2405 20.5625 L169.2874 20.5625 ZM175.5159 25.2188 Q175.5159 26.1562 174.8128 26.6406 Q174.1253 27.125 172.9534 27.125 Q172.2816 27.125 171.7972 27.0156 Q171.3128 26.9062 170.9378 26.7188 L170.9378 25.75 Q171.3284 25.9375 171.8597 26.1094 Q172.4066 26.2656 172.9691 26.2656 Q173.7816 26.2656 174.1409 26.0156 Q174.5003 25.75 174.5003 25.3125 Q174.5003 25.0781 174.3597 24.8906 Q174.2347 24.7031 173.8909 24.5156 Q173.5472 24.3125 172.9222 24.0781 Q172.2972 23.8281 171.8441 23.5938 Q171.4066 23.3594 171.1566 23.0312 Q170.9222 22.6875 170.9222 22.1562 Q170.9222 21.3438 171.5784 20.9062 Q172.2503 20.4531 173.3441 20.4531 Q173.9222 20.4531 174.4222 20.5625 Q174.9378 20.6719 175.3909 20.875 L175.0316 21.7188 Q174.6253 21.5469 174.1722 21.4375 Q173.7347 21.3125 173.2659 21.3125 Q172.6097 21.3125 172.2659 21.5312 Q171.9378 21.7344 171.9378 22.0938 Q171.9378 22.3594 172.0941 22.5469 Q172.2503 22.7344 172.6097 22.9062 Q172.9691 23.0781 173.5941 23.3125 Q174.2034 23.5469 174.6253 23.7969 Q175.0628 24.0312 175.2816 24.375 Q175.5159 24.7031 175.5159 25.2188 ZM182.4515 20.5625 L182.4515 27 L181.5921 27 L181.4359 26.1406 L181.389 26.1406 Q181.0765 26.6562 180.514 26.8906 Q179.9671 27.125 179.3421 27.125 Q178.1859 27.125 177.5921 26.5625 Q177.014 26 177.014 24.7812 L177.014 20.5625 L178.0765 20.5625 L178.0765 24.7031 Q178.0765 26.25 179.4984 26.25 Q180.5765 26.25 180.9827 25.6562 Q181.4046 25.0469 181.4046 23.9219 L181.4046 20.5625 L182.4515 20.5625 ZM186.93 20.4531 Q188.1019 20.4531 188.6644 20.9688 Q189.2425 21.4844 189.2425 22.625 L189.2425 27 L188.4613 27 L188.2582 26.0938 L188.2113 26.0938 Q187.7894 26.6094 187.3207 26.875 Q186.8675 27.125 186.055 27.125 Q185.18 27.125 184.6019 26.6719 Q184.0238 26.2031 184.0238 25.2188 Q184.0238 24.25 184.7738 23.7344 Q185.5394 23.2031 187.1175 23.1562 L188.2113 23.125 L188.2113 22.7344 Q188.2113 21.9375 187.8519 21.625 Q187.5082 21.3125 186.8675 21.3125 Q186.3675 21.3125 185.9144 21.4688 Q185.4613 21.6094 185.055 21.7969 L184.7425 21.0156 Q185.1644 20.7812 185.7269 20.625 Q186.305 20.4531 186.93 20.4531 ZM187.2425 23.8906 Q186.0394 23.9375 185.5707 24.2812 Q185.1175 24.6094 185.1175 25.2188 Q185.1175 25.7656 185.4457 26.0156 Q185.7738 26.2656 186.2894 26.2656 Q187.1175 26.2656 187.6488 25.8281 Q188.1957 25.375 188.1957 24.4375 L188.1957 23.8594 L187.2425 23.8906 ZM194.2246 20.4531 Q194.4121 20.4531 194.6152 20.4688 Q194.834 20.4844 194.9902 20.5156 L194.8496 21.4844 Q194.6933 21.4531 194.5058 21.4375 Q194.3183 21.4062 194.1621 21.4062 Q193.6621 21.4062 193.2246 21.6875 Q192.8027 21.9531 192.5371 22.4375 Q192.2871 22.9219 192.2871 23.5625 L192.2871 27 L191.2246 27 L191.2246 20.5625 L192.0996 20.5625 L192.209 21.75 L192.2558 21.75 Q192.5683 21.2188 193.0527 20.8438 Q193.5527 20.4531 194.2246 20.4531 ZM196.7275 18.1562 Q196.9619 18.1562 197.1494 18.3281 Q197.3369 18.4844 197.3369 18.8281 Q197.3369 19.1562 197.1494 19.3281 Q196.9619 19.5 196.7275 19.5 Q196.4619 19.5 196.2744 19.3281 Q196.1025 19.1562 196.1025 18.8281 Q196.1025 18.4844 196.2744 18.3281 Q196.4619 18.1562 196.7275 18.1562 ZM197.2431 20.5625 L197.2431 27 L196.1806 27 L196.1806 20.5625 L197.2431 20.5625 ZM204.8704 23.7656 Q204.8704 25.375 204.0579 26.25 Q203.2454 27.125 201.8704 27.125 Q201.0266 27.125 200.3548 26.7344 Q199.6829 26.3438 199.2923 25.5938 Q198.9173 24.8438 198.9173 23.7656 Q198.9173 22.1719 199.7141 21.3125 Q200.5266 20.4531 201.9016 20.4531 Q202.7923 20.4531 203.4485 20.8438 Q204.1204 21.2344 204.4954 21.9688 Q204.8704 22.7031 204.8704 23.7656 ZM200.011 23.7656 Q200.011 24.9062 200.4641 25.5781 Q200.9173 26.25 201.9016 26.25 Q202.8704 26.25 203.3235 25.5781 Q203.7766 24.9062 203.7766 23.7656 Q203.7766 22.625 203.3235 21.9844 Q202.8704 21.3438 201.886 21.3438 Q200.9016 21.3438 200.4485 21.9844 Q200.011 22.625 200.011 23.7656 Z"
                  clip-path="url(#clipPath2)" stroke="none"/>
            <rect x="310" y="10" clip-path="url(#clipPath3)"
                  fill="rgb(201,231,183)" width="259" height="89" stroke="none"/>
            <rect x="310" y="10" clip-path="url(#clipPath3)" fill="none"
                  width="259" height="89" stroke="rgb(140,161,128)"/>
            <polygon fill="none" stroke-width="1.2" clip-path="url(#clipPath3)"
                     points=" 550 27 565 27 565 21 561 24 561 21 557 24 557 21 553 24 553 15 550 15"
                     stroke="black"/>
            <path fill="black"
                  d="M368.5312 18.4375 Q370.125 18.4375 370.875 19.0469 Q371.6406 19.6406 371.6406 20.875 Q371.6406 21.5469 371.3906 22.0156 Q371.1406 22.4688 370.75 22.7344 Q370.3594 23 369.9375 23.1562 L372.2812 27 L371.0312 27 L368.9531 23.4531 L367.25 23.4531 L367.25 27 L366.1562 27 L366.1562 18.4375 L368.5312 18.4375 ZM368.4688 19.375 L367.25 19.375 L367.25 22.5469 L368.5312 22.5469 Q369.5781 22.5469 370.0469 22.1406 Q370.5312 21.7188 370.5312 20.9219 Q370.5312 20.0781 370.0312 19.7344 Q369.5312 19.375 368.4688 19.375 ZM375.9172 20.4531 Q377.0891 20.4531 377.6516 20.9688 Q378.2297 21.4844 378.2297 22.625 L378.2297 27 L377.4484 27 L377.2453 26.0938 L377.1984 26.0938 Q376.7766 26.6094 376.3078 26.875 Q375.8547 27.125 375.0422 27.125 Q374.1672 27.125 373.5891 26.6719 Q373.0109 26.2031 373.0109 25.2188 Q373.0109 24.25 373.7609 23.7344 Q374.5266 23.2031 376.1047 23.1562 L377.1984 23.125 L377.1984 22.7344 Q377.1984 21.9375 376.8391 21.625 Q376.4953 21.3125 375.8547 21.3125 Q375.3547 21.3125 374.9016 21.4688 Q374.4484 21.6094 374.0422 21.7969 L373.7297 21.0156 Q374.1516 20.7812 374.7141 20.625 Q375.2922 20.4531 375.9172 20.4531 ZM376.2297 23.8906 Q375.0266 23.9375 374.5578 24.2812 Q374.1047 24.6094 374.1047 25.2188 Q374.1047 25.7656 374.4328 26.0156 Q374.7609 26.2656 375.2766 26.2656 Q376.1047 26.2656 376.6359 25.8281 Q377.1828 25.375 377.1828 24.4375 L377.1828 23.8594 L376.2297 23.8906 ZM382.7899 27.125 Q381.9461 27.125 381.2742 26.7812 Q380.618 26.4219 380.2274 25.6875 Q379.8524 24.9531 379.8524 23.8125 Q379.8524 22.625 380.243 21.8906 Q380.6492 21.1406 381.3211 20.7969 Q382.0086 20.4531 382.868 20.4531 Q383.3524 20.4531 383.8055 20.5625 Q384.2742 20.6562 384.5555 20.7969 L384.243 21.6719 Q383.9461 21.5625 383.5555 21.4688 Q383.1805 21.375 382.8367 21.375 Q380.9461 21.375 380.9461 23.8125 Q380.9461 24.9688 381.3992 25.5938 Q381.868 26.2031 382.7899 26.2031 Q383.3055 26.2031 383.7117 26.0938 Q384.118 25.9844 384.4461 25.8438 L384.4461 26.7656 Q384.1336 26.9375 383.743 27.0312 Q383.3524 27.125 382.7899 27.125 ZM387.0186 22.6406 Q387.0186 22.8438 387.003 23.1562 Q386.9874 23.4531 386.9717 23.6875 L387.0186 23.6875 Q387.0967 23.5938 387.2374 23.4219 Q387.378 23.2344 387.5186 23.0469 Q387.6749 22.8594 387.7842 22.7344 L389.8467 20.5625 L391.0811 20.5625 L388.4717 23.3125 L391.253 27 L389.9874 27 L387.753 24 L387.0186 24.6406 L387.0186 27 L385.9717 27 L385.9717 17.875 L387.0186 17.875 L387.0186 22.6406 ZM398.8279 18.4375 L395.6404 27 L394.6092 27 L397.7967 18.4375 L398.8279 18.4375 ZM405.5214 20.4531 Q406.6933 20.4531 407.2558 20.9688 Q407.8339 21.4844 407.8339 22.625 L407.8339 27 L407.0526 27 L406.8495 26.0938 L406.8026 26.0938 Q406.3808 26.6094 405.912 26.875 Q405.4589 27.125 404.6464 27.125 Q403.7714 27.125 403.1933 26.6719 Q402.6151 26.2031 402.6151 25.2188 Q402.6151 24.25 403.3651 23.7344 Q404.1308 23.2031 405.7089 23.1562 L406.8026 23.125 L406.8026 22.7344 Q406.8026 21.9375 406.4433 21.625 Q406.0995 21.3125 405.4589 21.3125 Q404.9589 21.3125 404.5058 21.4688 Q404.0526 21.6094 403.6464 21.7969 L403.3339 21.0156 Q403.7558 20.7812 404.3183 20.625 Q404.8964 20.4531 405.5214 20.4531 ZM405.8339 23.8906 Q404.6308 23.9375 404.162 24.2812 Q403.7089 24.6094 403.7089 25.2188 Q403.7089 25.7656 404.037 26.0156 Q404.3651 26.2656 404.8808 26.2656 Q405.7089 26.2656 406.2401 25.8281 Q406.787 25.375 406.787 24.4375 L406.787 23.8594 L405.8339 23.8906 ZM412.8159 20.4531 Q413.0034 20.4531 413.2065 20.4688 Q413.4253 20.4844 413.5815 20.5156 L413.4409 21.4844 Q413.2847 21.4531 413.0972 21.4375 Q412.9097 21.4062 412.7534 21.4062 Q412.2534 21.4062 411.8159 21.6875 Q411.394 21.9531 411.1284 22.4375 Q410.8784 22.9219 410.8784 23.5625 L410.8784 27 L409.8159 27 L409.8159 20.5625 L410.6909 20.5625 L410.8003 21.75 L410.8472 21.75 Q411.1597 21.2188 411.644 20.8438 Q412.144 20.4531 412.8159 20.4531 ZM421.8345 20.4531 Q422.9282 20.4531 423.4595 21.0156 Q424.0063 21.5625 424.0063 22.8125 L424.0063 27 L422.9595 27 L422.9595 22.8594 Q422.9595 21.3438 421.647 21.3438 Q420.7095 21.3438 420.3032 21.8906 Q419.9126 22.4219 419.9126 23.4531 L419.9126 27 L418.8657 27 L418.8657 22.8594 Q418.8657 21.3438 417.5532 21.3438 Q416.5688 21.3438 416.1938 21.9375 Q415.8345 22.5312 415.8345 23.6562 L415.8345 27 L414.772 27 L414.772 20.5625 L415.6313 20.5625 L415.7876 21.4375 L415.8501 21.4375 Q416.147 20.9375 416.647 20.7031 Q417.1626 20.4531 417.7407 20.4531 Q419.2563 20.4531 419.7095 21.5312 L419.772 21.5312 Q420.1001 20.9688 420.647 20.7188 Q421.2095 20.4531 421.8345 20.4531 ZM428.4296 20.4531 Q429.6014 20.4531 430.1639 20.9688 Q430.7421 21.4844 430.7421 22.625 L430.7421 27 L429.9608 27 L429.7577 26.0938 L429.7108 26.0938 Q429.2889 26.6094 428.8202 26.875 Q428.3671 27.125 427.5546 27.125 Q426.6796 27.125 426.1014 26.6719 Q425.5233 26.2031 425.5233 25.2188 Q425.5233 24.25 426.2733 23.7344 Q427.0389 23.2031 428.6171 23.1562 L429.7108 23.125 L429.7108 22.7344 Q429.7108 21.9375 429.3514 21.625 Q429.0077 21.3125 428.3671 21.3125 Q427.8671 21.3125 427.4139 21.4688 Q426.9608 21.6094 426.5546 21.7969 L426.2421 21.0156 Q426.6639 20.7812 427.2264 20.625 Q427.8046 20.4531 428.4296 20.4531 ZM428.7421 23.8906 Q427.5389 23.9375 427.0702 24.2812 Q426.6171 24.6094 426.6171 25.2188 Q426.6171 25.7656 426.9452 26.0156 Q427.2733 26.2656 427.7889 26.2656 Q428.6171 26.2656 429.1483 25.8281 Q429.6952 25.375 429.6952 24.4375 L429.6952 23.8594 L428.7421 23.8906 ZM435.7241 20.4531 Q435.9116 20.4531 436.1147 20.4688 Q436.3335 20.4844 436.4897 20.5156 L436.3491 21.4844 Q436.1928 21.4531 436.0053 21.4375 Q435.8178 21.4062 435.6616 21.4062 Q435.1616 21.4062 434.7241 21.6875 Q434.3022 21.9531 434.0366 22.4375 Q433.7866 22.9219 433.7866 23.5625 L433.7866 27 L432.7241 27 L432.7241 20.5625 L433.5991 20.5625 L433.7085 21.75 L433.7553 21.75 Q434.0678 21.2188 434.5522 20.8438 Q435.0522 20.4531 435.7241 20.4531 ZM438.227 18.1562 Q438.4614 18.1562 438.6489 18.3281 Q438.8364 18.4844 438.8364 18.8281 Q438.8364 19.1562 438.6489 19.3281 Q438.4614 19.5 438.227 19.5 Q437.9614 19.5 437.7739 19.3281 Q437.602 19.1562 437.602 18.8281 Q437.602 18.4844 437.7739 18.3281 Q437.9614 18.1562 438.227 18.1562 ZM438.7426 20.5625 L438.7426 27 L437.6801 27 L437.6801 20.5625 L438.7426 20.5625 ZM446.3699 23.7656 Q446.3699 25.375 445.5574 26.25 Q444.7449 27.125 443.3699 27.125 Q442.5262 27.125 441.8543 26.7344 Q441.1824 26.3438 440.7918 25.5938 Q440.4168 24.8438 440.4168 23.7656 Q440.4168 22.1719 441.2137 21.3125 Q442.0262 20.4531 443.4012 20.4531 Q444.2918 20.4531 444.948 20.8438 Q445.6199 21.2344 445.9949 21.9688 Q446.3699 22.7031 446.3699 23.7656 ZM441.5105 23.7656 Q441.5105 24.9062 441.9637 25.5781 Q442.4168 26.25 443.4012 26.25 Q444.3699 26.25 444.823 25.5781 Q445.2762 24.9062 445.2762 23.7656 Q445.2762 22.625 444.823 21.9844 Q444.3699 21.3438 443.3855 21.3438 Q442.4012 21.3438 441.948 21.9844 Q441.5105 22.625 441.5105 23.7656 ZM453.4375 27.125 Q452.2344 27.125 451.5156 26.2969 Q450.7969 25.4531 450.7969 23.7969 Q450.7969 22.1406 451.5156 21.2969 Q452.25 20.4531 453.4531 20.4531 Q454.2031 20.4531 454.6719 20.7344 Q455.1406 21 455.4375 21.3906 L455.5156 21.3906 Q455.5 21.2344 455.4688 20.9375 Q455.4375 20.625 455.4375 20.4531 L455.4375 17.875 L456.5 17.875 L456.5 27 L455.6562 27 L455.5 26.1406 L455.4375 26.1406 Q455.1562 26.5469 454.6719 26.8438 Q454.2031 27.125 453.4375 27.125 ZM453.6094 26.25 Q454.625 26.25 455.0312 25.6875 Q455.4531 25.125 455.4531 24 L455.4531 23.8125 Q455.4531 22.6094 455.0625 21.9688 Q454.6719 21.3281 453.5938 21.3281 Q452.75 21.3281 452.3125 22.0156 Q451.8906 22.6875 451.8906 23.8125 Q451.8906 24.9688 452.3125 25.6094 Q452.75 26.25 453.6094 26.25 ZM461.0207 20.4531 Q461.8488 20.4531 462.4425 20.8125 Q463.0363 21.1719 463.3488 21.8281 Q463.6769 22.4688 463.6769 23.3594 L463.6769 23.9844 L459.2707 23.9844 Q459.3019 25.0781 459.8332 25.6562 Q460.3644 26.2188 461.3175 26.2188 Q461.9425 26.2188 462.4113 26.1094 Q462.88 25.9844 463.3957 25.7812 L463.3957 26.7031 Q462.8957 26.9219 462.4113 27.0156 Q461.9425 27.125 461.2707 27.125 Q460.3644 27.125 459.6613 26.75 Q458.9582 26.375 458.5675 25.6406 Q458.1769 24.9062 458.1769 23.8281 Q458.1769 22.7812 458.5363 22.0312 Q458.8957 21.2656 459.5363 20.8594 Q460.1769 20.4531 461.0207 20.4531 ZM461.005 21.3125 Q460.255 21.3125 459.8175 21.7969 Q459.38 22.2812 459.3019 23.1406 L462.5675 23.1406 Q462.5675 22.3281 462.1925 21.8281 Q461.8175 21.3125 461.005 21.3125 ZM466.3668 27 L465.3043 27 L465.3043 17.875 L466.3668 17.875 L466.3668 27 ZM475.7079 25.2188 Q475.7079 26.1562 475.0048 26.6406 Q474.3173 27.125 473.1454 27.125 Q472.4735 27.125 471.9891 27.0156 Q471.5048 26.9062 471.1298 26.7188 L471.1298 25.75 Q471.5204 25.9375 472.0516 26.1094 Q472.5985 26.2656 473.161 26.2656 Q473.9735 26.2656 474.3329 26.0156 Q474.6923 25.75 474.6923 25.3125 Q474.6923 25.0781 474.5516 24.8906 Q474.4266 24.7031 474.0829 24.5156 Q473.7391 24.3125 473.1141 24.0781 Q472.4891 23.8281 472.036 23.5938 Q471.5985 23.3594 471.3485 23.0312 Q471.1141 22.6875 471.1141 22.1562 Q471.1141 21.3438 471.7704 20.9062 Q472.4423 20.4531 473.536 20.4531 Q474.1141 20.4531 474.6141 20.5625 Q475.1298 20.6719 475.5829 20.875 L475.2235 21.7188 Q474.8173 21.5469 474.3641 21.4375 Q473.9266 21.3125 473.4579 21.3125 Q472.8016 21.3125 472.4579 21.5312 Q472.1298 21.7344 472.1298 22.0938 Q472.1298 22.3594 472.286 22.5469 Q472.4423 22.7344 472.8016 22.9062 Q473.161 23.0781 473.786 23.3125 Q474.3954 23.5469 474.8173 23.7969 Q475.2548 24.0312 475.4735 24.375 Q475.7079 24.7031 475.7079 25.2188 ZM479.7528 20.4531 Q480.5809 20.4531 481.1747 20.8125 Q481.7684 21.1719 482.0809 21.8281 Q482.4091 22.4688 482.4091 23.3594 L482.4091 23.9844 L478.0028 23.9844 Q478.0341 25.0781 478.5653 25.6562 Q479.0966 26.2188 480.0497 26.2188 Q480.6747 26.2188 481.1434 26.1094 Q481.6122 25.9844 482.1278 25.7812 L482.1278 26.7031 Q481.6278 26.9219 481.1434 27.0156 Q480.6747 27.125 480.0028 27.125 Q479.0966 27.125 478.3934 26.75 Q477.6903 26.375 477.2997 25.6406 Q476.9091 24.9062 476.9091 23.8281 Q476.9091 22.7812 477.2684 22.0312 Q477.6278 21.2656 478.2684 20.8594 Q478.9091 20.4531 479.7528 20.4531 ZM479.7372 21.3125 Q478.9872 21.3125 478.5497 21.7969 Q478.1122 22.2812 478.0341 23.1406 L481.2997 23.1406 Q481.2997 22.3281 480.9247 21.8281 Q480.5497 21.3125 479.7372 21.3125 ZM487.0365 20.4531 Q487.224 20.4531 487.4271 20.4688 Q487.6459 20.4844 487.8021 20.5156 L487.6615 21.4844 Q487.5052 21.4531 487.3177 21.4375 Q487.1302 21.4062 486.974 21.4062 Q486.474 21.4062 486.0365 21.6875 Q485.6146 21.9531 485.349 22.4375 Q485.099 22.9219 485.099 23.5625 L485.099 27 L484.0365 27 L484.0365 20.5625 L484.9115 20.5625 L485.0209 21.75 L485.0677 21.75 Q485.3802 21.2188 485.8646 20.8438 Q486.3646 20.4531 487.0365 20.4531 ZM490.4144 27 L487.9769 20.5625 L489.1019 20.5625 L490.4769 24.3594 Q490.5706 24.625 490.68 24.9531 Q490.7894 25.2656 490.8675 25.5625 Q490.9456 25.8594 490.9925 26.0625 L491.0394 26.0625 Q491.0863 25.8594 491.1644 25.5625 Q491.2581 25.2656 491.3675 24.9375 Q491.4925 24.6094 491.5706 24.3594 L492.9456 20.5625 L494.0706 20.5625 L491.6175 27 L490.4144 27 ZM495.6354 18.1562 Q495.8698 18.1562 496.0573 18.3281 Q496.2448 18.4844 496.2448 18.8281 Q496.2448 19.1562 496.0573 19.3281 Q495.8698 19.5 495.6354 19.5 Q495.3698 19.5 495.1823 19.3281 Q495.0104 19.1562 495.0104 18.8281 Q495.0104 18.4844 495.1823 18.3281 Q495.3698 18.1562 495.6354 18.1562 ZM496.1511 20.5625 L496.1511 27 L495.0886 27 L495.0886 20.5625 L496.1511 20.5625 ZM500.4658 27.125 Q499.2627 27.125 498.5439 26.2969 Q497.8252 25.4531 497.8252 23.7969 Q497.8252 22.1406 498.5439 21.2969 Q499.2783 20.4531 500.4814 20.4531 Q501.2314 20.4531 501.7002 20.7344 Q502.1689 21 502.4658 21.3906 L502.5439 21.3906 Q502.5283 21.2344 502.4971 20.9375 Q502.4658 20.625 502.4658 20.4531 L502.4658 17.875 L503.5283 17.875 L503.5283 27 L502.6846 27 L502.5283 26.1406 L502.4658 26.1406 Q502.1846 26.5469 501.7002 26.8438 Q501.2314 27.125 500.4658 27.125 ZM500.6377 26.25 Q501.6533 26.25 502.0596 25.6875 Q502.4814 25.125 502.4814 24 L502.4814 23.8125 Q502.4814 22.6094 502.0908 21.9688 Q501.7002 21.3281 500.6221 21.3281 Q499.7783 21.3281 499.3408 22.0156 Q498.9189 22.6875 498.9189 23.8125 Q498.9189 24.9688 499.3408 25.6094 Q499.7783 26.25 500.6377 26.25 ZM511.1584 23.7656 Q511.1584 25.375 510.3459 26.25 Q509.5334 27.125 508.1584 27.125 Q507.3146 27.125 506.6428 26.7344 Q505.9709 26.3438 505.5803 25.5938 Q505.2053 24.8438 505.2053 23.7656 Q505.2053 22.1719 506.0021 21.3125 Q506.8146 20.4531 508.1896 20.4531 Q509.0803 20.4531 509.7365 20.8438 Q510.4084 21.2344 510.7834 21.9688 Q511.1584 22.7031 511.1584 23.7656 ZM506.299 23.7656 Q506.299 24.9062 506.7521 25.5781 Q507.2053 26.25 508.1896 26.25 Q509.1584 26.25 509.6115 25.5781 Q510.0646 24.9062 510.0646 23.7656 Q510.0646 22.625 509.6115 21.9844 Q509.1584 21.3438 508.174 21.3438 Q507.1896 21.3438 506.7365 21.9844 Q506.299 22.625 506.299 23.7656 ZM515.8247 20.4531 Q516.0122 20.4531 516.2153 20.4688 Q516.4341 20.4844 516.5903 20.5156 L516.4497 21.4844 Q516.2935 21.4531 516.106 21.4375 Q515.9185 21.4062 515.7622 21.4062 Q515.2622 21.4062 514.8247 21.6875 Q514.4028 21.9531 514.1372 22.4375 Q513.8872 22.9219 513.8872 23.5625 L513.8872 27 L512.8247 27 L512.8247 20.5625 L513.6997 20.5625 L513.8091 21.75 L513.856 21.75 Q514.1685 21.2188 514.6528 20.8438 Q515.1528 20.4531 515.8247 20.4531 Z"
                  stroke-width="1.2" clip-path="url(#clipPath4)" stroke="none"/>
            <rect x="630" y="10" clip-path="url(#clipPath5)"
                  fill="rgb(201,231,183)" width="259" height="89" stroke="none"
                  stroke-width="1.2"/>
            <rect x="630" y="10" clip-path="url(#clipPath5)" fill="none"
                  width="259" height="89" stroke="rgb(140,161,128)"/>
            <polygon fill="none" stroke-width="1.2" clip-path="url(#clipPath5)"
                     points=" 882 15 874 15 870 22 873 29 882 29 886 22"
                     stroke="black"/>
            <path fill="none"
                  d="M876 17 L872.6992 22.5 M874.3008 26.5 L881 26.5 M883 22.5 L880 17"
                  stroke-width="1.2" clip-path="url(#clipPath5)"
                  fill-rule="evenodd" stroke="black"/>
            <path fill="black"
                  d="M686.8906 22.4688 L689.8438 22.4688 L689.8438 26.6719 Q689.1562 26.9062 688.4375 27.0156 Q687.7344 27.125 686.8438 27.125 Q685.5 27.125 684.5938 26.5938 Q683.6875 26.0469 683.2031 25.0625 Q682.7344 24.0781 682.7344 22.7188 Q682.7344 21.375 683.25 20.3906 Q683.7812 19.4062 684.7656 18.8594 Q685.7656 18.3125 687.1719 18.3125 Q687.8906 18.3125 688.5312 18.4531 Q689.1719 18.5781 689.7344 18.8125 L689.3125 19.75 Q688.8594 19.5469 688.2812 19.4062 Q687.7188 19.2656 687.1094 19.2656 Q685.5781 19.2656 684.7188 20.1875 Q683.8594 21.1094 683.8594 22.7188 Q683.8594 23.7344 684.1875 24.5312 Q684.5156 25.3125 685.2188 25.75 Q685.9375 26.1875 687.0938 26.1875 Q687.6562 26.1875 688.0469 26.125 Q688.4375 26.0625 688.7656 25.9844 L688.7656 23.4375 L686.8906 23.4375 L686.8906 22.4688 ZM697.1267 20.5625 L697.1267 27 L696.2673 27 L696.1111 26.1406 L696.0642 26.1406 Q695.7517 26.6562 695.1892 26.8906 Q694.6423 27.125 694.0173 27.125 Q692.8611 27.125 692.2673 26.5625 Q691.6892 26 691.6892 24.7812 L691.6892 20.5625 L692.7517 20.5625 L692.7517 24.7031 Q692.7517 26.25 694.1736 26.25 Q695.2517 26.25 695.658 25.6562 Q696.0798 25.0469 696.0798 23.9219 L696.0798 20.5625 L697.1267 20.5625 ZM700.2302 27 L699.1677 27 L699.1677 20.5625 L700.2302 20.5625 L700.2302 27 ZM701.4802 17.9219 Q701.3396 18.1406 701.0271 18.4844 Q700.7302 18.8281 700.3865 19.1719 Q700.0583 19.5156 699.7615 19.7344 L699.074 19.7344 L699.074 19.5781 Q699.2458 19.3594 699.449 19.0469 Q699.6677 18.7344 699.8708 18.4062 Q700.074 18.0781 700.2146 17.8125 L701.4802 17.8125 L701.4802 17.9219 ZM704.7013 20.4531 Q705.8732 20.4531 706.4357 20.9688 Q707.0138 21.4844 707.0138 22.625 L707.0138 27 L706.2325 27 L706.0294 26.0938 L705.9825 26.0938 Q705.5607 26.6094 705.0919 26.875 Q704.6388 27.125 703.8263 27.125 Q702.9513 27.125 702.3732 26.6719 Q701.795 26.2031 701.795 25.2188 Q701.795 24.25 702.545 23.7344 Q703.3107 23.2031 704.8888 23.1562 L705.9825 23.125 L705.9825 22.7344 Q705.9825 21.9375 705.6232 21.625 Q705.2794 21.3125 704.6388 21.3125 Q704.1388 21.3125 703.6857 21.4688 Q703.2325 21.6094 702.8263 21.7969 L702.5138 21.0156 Q702.9357 20.7812 703.4982 20.625 Q704.0763 20.4531 704.7013 20.4531 ZM705.0138 23.8906 Q703.8107 23.9375 703.3419 24.2812 Q702.8888 24.6094 702.8888 25.2188 Q702.8888 25.7656 703.2169 26.0156 Q703.545 26.2656 704.0607 26.2656 Q704.8888 26.2656 705.42 25.8281 Q705.9669 25.375 705.9669 24.4375 L705.9669 23.8594 L705.0138 23.8906 ZM714.3971 27.125 Q713.194 27.125 712.4752 26.2969 Q711.7565 25.4531 711.7565 23.7969 Q711.7565 22.1406 712.4752 21.2969 Q713.2096 20.4531 714.4127 20.4531 Q715.1627 20.4531 715.6315 20.7344 Q716.1002 21 716.3971 21.3906 L716.4752 21.3906 Q716.4596 21.2344 716.4283 20.9375 Q716.3971 20.625 716.3971 20.4531 L716.3971 17.875 L717.4596 17.875 L717.4596 27 L716.6158 27 L716.4596 26.1406 L716.3971 26.1406 Q716.1158 26.5469 715.6315 26.8438 Q715.1627 27.125 714.3971 27.125 ZM714.569 26.25 Q715.5846 26.25 715.9908 25.6875 Q716.4127 25.125 716.4127 24 L716.4127 23.8125 Q716.4127 22.6094 716.0221 21.9688 Q715.6315 21.3281 714.5533 21.3281 Q713.7096 21.3281 713.2721 22.0156 Q712.8502 22.6875 712.8502 23.8125 Q712.8502 24.9688 713.2721 25.6094 Q713.7096 26.25 714.569 26.25 ZM721.9802 20.4531 Q722.8083 20.4531 723.4021 20.8125 Q723.9958 21.1719 724.3083 21.8281 Q724.6365 22.4688 724.6365 23.3594 L724.6365 23.9844 L720.2302 23.9844 Q720.2615 25.0781 720.7927 25.6562 Q721.324 26.2188 722.2771 26.2188 Q722.9021 26.2188 723.3708 26.1094 Q723.8396 25.9844 724.3552 25.7812 L724.3552 26.7031 Q723.8552 26.9219 723.3708 27.0156 Q722.9021 27.125 722.2302 27.125 Q721.324 27.125 720.6208 26.75 Q719.9177 26.375 719.5271 25.6406 Q719.1365 24.9062 719.1365 23.8281 Q719.1365 22.7812 719.4958 22.0312 Q719.8552 21.2656 720.4958 20.8594 Q721.1365 20.4531 721.9802 20.4531 ZM721.9646 21.3125 Q721.2146 21.3125 720.7771 21.7969 Q720.3396 22.2812 720.2615 23.1406 L723.5271 23.1406 Q723.5271 22.3281 723.1521 21.8281 Q722.7771 21.3125 721.9646 21.3125 ZM729.9308 18.1562 Q730.1652 18.1562 730.3527 18.3281 Q730.5402 18.4844 730.5402 18.8281 Q730.5402 19.1562 730.3527 19.3281 Q730.1652 19.5 729.9308 19.5 Q729.6652 19.5 729.4777 19.3281 Q729.3058 19.1562 729.3058 18.8281 Q729.3058 18.4844 729.4777 18.3281 Q729.6652 18.1562 729.9308 18.1562 ZM730.4465 20.5625 L730.4465 27 L729.384 27 L729.384 20.5625 L730.4465 20.5625 ZM735.5737 20.4531 Q736.73 20.4531 737.3081 21.0156 Q737.9019 21.5625 737.9019 22.8125 L737.9019 27 L736.8706 27 L736.8706 22.8906 Q736.8706 21.3438 735.4175 21.3438 Q734.355 21.3438 733.9487 21.9375 Q733.5425 22.5312 733.5425 23.6562 L733.5425 27 L732.48 27 L732.48 20.5625 L733.3394 20.5625 L733.4956 21.4375 L733.5581 21.4375 Q733.8706 20.9375 734.4175 20.7031 Q734.9644 20.4531 735.5737 20.4531 ZM744.0835 25.2188 Q744.0835 26.1562 743.3804 26.6406 Q742.6929 27.125 741.521 27.125 Q740.8491 27.125 740.3647 27.0156 Q739.8804 26.9062 739.5054 26.7188 L739.5054 25.75 Q739.896 25.9375 740.4272 26.1094 Q740.9741 26.2656 741.5366 26.2656 Q742.3491 26.2656 742.7085 26.0156 Q743.0679 25.75 743.0679 25.3125 Q743.0679 25.0781 742.9272 24.8906 Q742.8022 24.7031 742.4585 24.5156 Q742.1147 24.3125 741.4897 24.0781 Q740.8647 23.8281 740.4116 23.5938 Q739.9741 23.3594 739.7241 23.0312 Q739.4897 22.6875 739.4897 22.1562 Q739.4897 21.3438 740.146 20.9062 Q740.8179 20.4531 741.9116 20.4531 Q742.4897 20.4531 742.9897 20.5625 Q743.5054 20.6719 743.9585 20.875 L743.5991 21.7188 Q743.1929 21.5469 742.7397 21.4375 Q742.3022 21.3125 741.8335 21.3125 Q741.1772 21.3125 740.8335 21.5312 Q740.5054 21.7344 740.5054 22.0938 Q740.5054 22.3594 740.6616 22.5469 Q740.8179 22.7344 741.1772 22.9062 Q741.5366 23.0781 742.1616 23.3125 Q742.771 23.5469 743.1929 23.7969 Q743.6304 24.0312 743.8491 24.375 Q744.0835 24.7031 744.0835 25.2188 ZM747.8003 26.25 Q748.0347 26.25 748.2847 26.2188 Q748.5347 26.1719 748.6909 26.125 L748.6909 26.9219 Q748.5347 27.0156 748.2222 27.0625 Q747.9097 27.125 747.6128 27.125 Q747.1128 27.125 746.6753 26.9531 Q746.2534 26.7656 745.9878 26.3438 Q745.7378 25.9062 745.7378 25.125 L745.7378 21.3906 L744.8159 21.3906 L744.8159 20.875 L745.7378 20.4531 L746.1597 19.0938 L746.7847 19.0938 L746.7847 20.5625 L748.644 20.5625 L748.644 21.3906 L746.7847 21.3906 L746.7847 25.1094 Q746.7847 25.6875 747.0659 25.9688 Q747.3472 26.25 747.8003 26.25 ZM752.4136 20.4531 Q753.5854 20.4531 754.1479 20.9688 Q754.7261 21.4844 754.7261 22.625 L754.7261 27 L753.9448 27 L753.7417 26.0938 L753.6948 26.0938 Q753.2729 26.6094 752.8042 26.875 Q752.3511 27.125 751.5386 27.125 Q750.6636 27.125 750.0854 26.6719 Q749.5073 26.2031 749.5073 25.2188 Q749.5073 24.25 750.2573 23.7344 Q751.0229 23.2031 752.6011 23.1562 L753.6948 23.125 L753.6948 22.7344 Q753.6948 21.9375 753.3354 21.625 Q752.9917 21.3125 752.3511 21.3125 Q751.8511 21.3125 751.3979 21.4688 Q750.9448 21.6094 750.5386 21.7969 L750.2261 21.0156 Q750.6479 20.7812 751.2104 20.625 Q751.7886 20.4531 752.4136 20.4531 ZM752.7261 23.8906 Q751.5229 23.9375 751.0542 24.2812 Q750.6011 24.6094 750.6011 25.2188 Q750.6011 25.7656 750.9292 26.0156 Q751.2573 26.2656 751.7729 26.2656 Q752.6011 26.2656 753.1323 25.8281 Q753.6792 25.375 753.6792 24.4375 L753.6792 23.8594 L752.7261 23.8906 ZM757.7706 27 L756.7081 27 L756.7081 17.875 L757.7706 17.875 L757.7706 27 ZM762.2417 20.4531 Q763.4136 20.4531 763.9761 20.9688 Q764.5542 21.4844 764.5542 22.625 L764.5542 27 L763.7729 27 L763.5698 26.0938 L763.5229 26.0938 Q763.1011 26.6094 762.6323 26.875 Q762.1792 27.125 761.3667 27.125 Q760.4917 27.125 759.9136 26.6719 Q759.3354 26.2031 759.3354 25.2188 Q759.3354 24.25 760.0854 23.7344 Q760.8511 23.2031 762.4292 23.1562 L763.5229 23.125 L763.5229 22.7344 Q763.5229 21.9375 763.1636 21.625 Q762.8198 21.3125 762.1792 21.3125 Q761.6792 21.3125 761.2261 21.4688 Q760.7729 21.6094 760.3667 21.7969 L760.0542 21.0156 Q760.4761 20.7812 761.0386 20.625 Q761.6167 20.4531 762.2417 20.4531 ZM762.5542 23.8906 Q761.3511 23.9375 760.8823 24.2812 Q760.4292 24.6094 760.4292 25.2188 Q760.4292 25.7656 760.7573 26.0156 Q761.0854 26.2656 761.6011 26.2656 Q762.4292 26.2656 762.9604 25.8281 Q763.5073 25.375 763.5073 24.4375 L763.5073 23.8594 L762.5542 23.8906 ZM769.1143 27.125 Q768.2706 27.125 767.5987 26.7812 Q766.9424 26.4219 766.5518 25.6875 Q766.1768 24.9531 766.1768 23.8125 Q766.1768 22.625 766.5674 21.8906 Q766.9737 21.1406 767.6456 20.7969 Q768.3331 20.4531 769.1924 20.4531 Q769.6768 20.4531 770.1299 20.5625 Q770.5987 20.6562 770.8799 20.7969 L770.5674 21.6719 Q770.2706 21.5625 769.8799 21.4688 Q769.5049 21.375 769.1612 21.375 Q767.2706 21.375 767.2706 23.8125 Q767.2706 24.9688 767.7237 25.5938 Q768.1924 26.2031 769.1143 26.2031 Q769.6299 26.2031 770.0362 26.0938 Q770.4424 25.9844 770.7706 25.8438 L770.7706 26.7656 Q770.4581 26.9375 770.0674 27.0312 Q769.6768 27.125 769.1143 27.125 ZM772.8431 18.1562 Q773.0775 18.1562 773.265 18.3281 Q773.4525 18.4844 773.4525 18.8281 Q773.4525 19.1562 773.265 19.3281 Q773.0775 19.5 772.8431 19.5 Q772.5775 19.5 772.39 19.3281 Q772.2181 19.1562 772.2181 18.8281 Q772.2181 18.4844 772.39 18.3281 Q772.5775 18.1562 772.8431 18.1562 ZM773.3588 20.5625 L773.3588 27 L772.2963 27 L772.2963 20.5625 L773.3588 20.5625 ZM780.986 23.7656 Q780.986 25.375 780.1735 26.25 Q779.361 27.125 777.986 27.125 Q777.1423 27.125 776.4704 26.7344 Q775.7985 26.3438 775.4079 25.5938 Q775.0329 24.8438 775.0329 23.7656 Q775.0329 22.1719 775.8298 21.3125 Q776.6423 20.4531 778.0173 20.4531 Q778.9079 20.4531 779.5641 20.8438 Q780.236 21.2344 780.611 21.9688 Q780.986 22.7031 780.986 23.7656 ZM776.1266 23.7656 Q776.1266 24.9062 776.5798 25.5781 Q777.0329 26.25 778.0173 26.25 Q778.986 26.25 779.4391 25.5781 Q779.8923 24.9062 779.8923 23.7656 Q779.8923 22.625 779.4391 21.9844 Q778.986 21.3438 778.0016 21.3438 Q777.0173 21.3438 776.5641 21.9844 Q776.1266 22.625 776.1266 23.7656 ZM779.7829 17.9219 Q779.6423 18.1406 779.3298 18.4844 Q779.0329 18.8281 778.6891 19.1719 Q778.361 19.5156 778.0641 19.7344 L777.3766 19.7344 L777.3766 19.5781 Q777.5485 19.3594 777.7516 19.0469 Q777.9704 18.7344 778.1735 18.4062 Q778.3766 18.0781 778.5173 17.8125 L779.7829 17.8125 L779.7829 17.9219 ZM785.7461 20.4531 Q786.9023 20.4531 787.4805 21.0156 Q788.0742 21.5625 788.0742 22.8125 L788.0742 27 L787.043 27 L787.043 22.8906 Q787.043 21.3438 785.5898 21.3438 Q784.5273 21.3438 784.1211 21.9375 Q783.7148 22.5312 783.7148 23.6562 L783.7148 27 L782.6523 27 L782.6523 20.5625 L783.5117 20.5625 L783.668 21.4375 L783.7305 21.4375 Q784.043 20.9375 784.5898 20.7031 Q785.1367 20.4531 785.7461 20.4531 ZM793.7353 18.1562 Q793.9697 18.1562 794.1572 18.3281 Q794.3447 18.4844 794.3447 18.8281 Q794.3447 19.1562 794.1572 19.3281 Q793.9697 19.5 793.7353 19.5 Q793.4697 19.5 793.2822 19.3281 Q793.1103 19.1562 793.1103 18.8281 Q793.1103 18.4844 793.2822 18.3281 Q793.4697 18.1562 793.7353 18.1562 ZM794.2509 20.5625 L794.2509 27 L793.1884 27 L793.1884 20.5625 L794.2509 20.5625 ZM803.3469 20.4531 Q804.4407 20.4531 804.9719 21.0156 Q805.5188 21.5625 805.5188 22.8125 L805.5188 27 L804.4719 27 L804.4719 22.8594 Q804.4719 21.3438 803.1594 21.3438 Q802.2219 21.3438 801.8157 21.8906 Q801.425 22.4219 801.425 23.4531 L801.425 27 L800.3782 27 L800.3782 22.8594 Q800.3782 21.3438 799.0657 21.3438 Q798.0813 21.3438 797.7063 21.9375 Q797.3469 22.5312 797.3469 23.6562 L797.3469 27 L796.2844 27 L796.2844 20.5625 L797.1438 20.5625 L797.3 21.4375 L797.3625 21.4375 Q797.6594 20.9375 798.1594 20.7031 Q798.675 20.4531 799.2532 20.4531 Q800.7688 20.4531 801.2219 21.5312 L801.2844 21.5312 Q801.6125 20.9688 802.1594 20.7188 Q802.7219 20.4531 803.3469 20.4531 ZM810.567 20.4531 Q811.7545 20.4531 812.4733 21.2812 Q813.2076 22.1094 813.2076 23.7656 Q813.2076 25.4219 812.4733 26.2812 Q811.7545 27.125 810.5514 27.125 Q809.817 27.125 809.3326 26.8438 Q808.8483 26.5625 808.567 26.1875 L808.4889 26.1875 Q808.5201 26.3906 808.5358 26.7031 Q808.567 27.0156 808.567 27.2344 L808.567 29.875 L807.5045 29.875 L807.5045 20.5625 L808.3795 20.5625 L808.5201 21.4375 L808.567 21.4375 Q808.8483 21.0312 809.317 20.75 Q809.7858 20.4531 810.567 20.4531 ZM810.3795 21.3438 Q809.3951 21.3438 808.9889 21.8906 Q808.5826 22.4375 808.567 23.5625 L808.567 23.7656 Q808.567 24.9531 808.9576 25.6094 Q809.3483 26.25 810.3951 26.25 Q810.9889 26.25 811.3639 25.9219 Q811.7389 25.5938 811.9264 25.0469 Q812.1139 24.4844 812.1139 23.7656 Q812.1139 22.6562 811.692 22 Q811.2701 21.3438 810.3795 21.3438 ZM817.8845 20.4531 Q818.072 20.4531 818.2751 20.4688 Q818.4939 20.4844 818.6501 20.5156 L818.5095 21.4844 Q818.3533 21.4531 818.1658 21.4375 Q817.9783 21.4062 817.822 21.4062 Q817.322 21.4062 816.8845 21.6875 Q816.4626 21.9531 816.197 22.4375 Q815.947 22.9219 815.947 23.5625 L815.947 27 L814.8845 27 L814.8845 20.5625 L815.7595 20.5625 L815.8689 21.75 L815.9158 21.75 Q816.2283 21.2188 816.7126 20.8438 Q817.2126 20.4531 817.8845 20.4531 ZM822.325 20.4531 Q823.1531 20.4531 823.7468 20.8125 Q824.3406 21.1719 824.6531 21.8281 Q824.9812 22.4688 824.9812 23.3594 L824.9812 23.9844 L820.575 23.9844 Q820.6062 25.0781 821.1375 25.6562 Q821.6687 26.2188 822.6218 26.2188 Q823.2468 26.2188 823.7156 26.1094 Q824.1843 25.9844 824.7 25.7812 L824.7 26.7031 Q824.2 26.9219 823.7156 27.0156 Q823.2468 27.125 822.575 27.125 Q821.6687 27.125 820.9656 26.75 Q820.2625 26.375 819.8718 25.6406 Q819.4812 24.9062 819.4812 23.8281 Q819.4812 22.7812 819.8406 22.0312 Q820.2 21.2656 820.8406 20.8594 Q821.4812 20.4531 822.325 20.4531 ZM822.3093 21.3125 Q821.5593 21.3125 821.1218 21.7969 Q820.6843 22.2812 820.6062 23.1406 L823.8718 23.1406 Q823.8718 22.3281 823.4968 21.8281 Q823.1218 21.3125 822.3093 21.3125 ZM830.7961 25.2188 Q830.7961 26.1562 830.093 26.6406 Q829.4055 27.125 828.2336 27.125 Q827.5618 27.125 827.0774 27.0156 Q826.593 26.9062 826.218 26.7188 L826.218 25.75 Q826.6086 25.9375 827.1399 26.1094 Q827.6868 26.2656 828.2493 26.2656 Q829.0618 26.2656 829.4211 26.0156 Q829.7805 25.75 829.7805 25.3125 Q829.7805 25.0781 829.6399 24.8906 Q829.5149 24.7031 829.1711 24.5156 Q828.8274 24.3125 828.2024 24.0781 Q827.5774 23.8281 827.1243 23.5938 Q826.6868 23.3594 826.4368 23.0312 Q826.2024 22.6875 826.2024 22.1562 Q826.2024 21.3438 826.8586 20.9062 Q827.5305 20.4531 828.6243 20.4531 Q829.2024 20.4531 829.7024 20.5625 Q830.218 20.6719 830.6711 20.875 L830.3118 21.7188 Q829.9055 21.5469 829.4524 21.4375 Q829.0149 21.3125 828.5461 21.3125 Q827.8899 21.3125 827.5461 21.5312 Q827.218 21.7344 827.218 22.0938 Q827.218 22.3594 827.3743 22.5469 Q827.5305 22.7344 827.8899 22.9062 Q828.2493 23.0781 828.8743 23.3125 Q829.4836 23.5469 829.9055 23.7969 Q830.343 24.0312 830.5618 24.375 Q830.7961 24.7031 830.7961 25.2188 ZM834.7942 20.4531 Q835.9661 20.4531 836.5286 20.9688 Q837.1067 21.4844 837.1067 22.625 L837.1067 27 L836.3254 27 L836.1223 26.0938 L836.0754 26.0938 Q835.6536 26.6094 835.1848 26.875 Q834.7317 27.125 833.9192 27.125 Q833.0442 27.125 832.4661 26.6719 Q831.8879 26.2031 831.8879 25.2188 Q831.8879 24.25 832.6379 23.7344 Q833.4036 23.2031 834.9817 23.1562 L836.0754 23.125 L836.0754 22.7344 Q836.0754 21.9375 835.7161 21.625 Q835.3723 21.3125 834.7317 21.3125 Q834.2317 21.3125 833.7786 21.4688 Q833.3254 21.6094 832.9192 21.7969 L832.6067 21.0156 Q833.0286 20.7812 833.5911 20.625 Q834.1692 20.4531 834.7942 20.4531 ZM835.1067 23.8906 Q833.9036 23.9375 833.4348 24.2812 Q832.9817 24.6094 832.9817 25.2188 Q832.9817 25.7656 833.3098 26.0156 Q833.6379 26.2656 834.1536 26.2656 Q834.9817 26.2656 835.5129 25.8281 Q836.0598 25.375 836.0598 24.4375 L836.0598 23.8594 L835.1067 23.8906 Z"
                  stroke-width="1.2" clip-path="url(#clipPath6)" stroke="none"/>
            <rect x="10" y="210" clip-path="url(#clipPath7)"
                  fill="rgb(201,231,183)" width="239" height="89" stroke="none"
                  stroke-width="1.2"/>
            <rect x="10" y="210" clip-path="url(#clipPath7)" fill="none"
                  width="239" height="89" stroke="rgb(140,161,128)"/>
            <path fill="none"
                  d="M232.5 222 L234.5 222 M236.5 222 L238.5 222 M240.5 222 L242.5 222"
                  stroke-width="1.5" clip-path="url(#clipPath7)"
                  fill-rule="evenodd" stroke="black"/>
            <path fill="none"
                  d="M234 217 L229 222 L234 227 M241 217 L246 222 L241 227"
                  stroke-width="1.5" clip-path="url(#clipPath7)"
                  fill-rule="evenodd" stroke="black"/>
            <path fill="black"
                  d="M98 218.4375 L95.7188 227 L94.625 227 L92.9688 221.3906 Q92.875 221.0312 92.7656 220.6875 Q92.6719 220.3438 92.6094 220.0781 Q92.5625 219.7969 92.5312 219.6875 Q92.5156 219.8438 92.4062 220.3594 Q92.2969 220.875 92.125 221.4219 L90.5 227 L89.4062 227 L87.1406 218.4375 L88.2656 218.4375 L89.6094 223.6562 Q89.75 224.2188 89.8438 224.7344 Q89.9531 225.25 90.0156 225.7031 Q90.0781 225.2344 90.1875 224.6875 Q90.3125 224.125 90.4688 223.6094 L91.9844 218.4375 L93.0938 218.4375 L94.6719 223.6406 Q94.8438 224.1875 94.9531 224.7344 Q95.0781 225.2812 95.1406 225.7031 Q95.2031 225.2656 95.2969 224.75 Q95.4062 224.2188 95.5625 223.6562 L96.875 218.4375 L98 218.4375 ZM99.7226 218.1562 Q99.957 218.1562 100.1445 218.3281 Q100.332 218.4844 100.332 218.8281 Q100.332 219.1562 100.1445 219.3281 Q99.957 219.5 99.7226 219.5 Q99.457 219.5 99.2695 219.3281 Q99.0976 219.1562 99.0976 218.8281 Q99.0976 218.4844 99.2695 218.3281 Q99.457 218.1562 99.7226 218.1562 ZM100.2382 220.5625 L100.2382 227 L99.1757 227 L99.1757 220.5625 L100.2382 220.5625 ZM101.7405 224.25 L101.7405 223.3125 L104.6467 223.3125 L104.6467 224.25 L101.7405 224.25 ZM107.3701 227 L106.2764 227 L106.2764 218.4375 L111.0733 218.4375 L111.0733 219.375 L107.3701 219.375 L107.3701 222.4219 L110.8389 222.4219 L110.8389 223.3594 L107.3701 223.3594 L107.3701 227 ZM112.9107 218.1562 Q113.1451 218.1562 113.3326 218.3281 Q113.5201 218.4844 113.5201 218.8281 Q113.5201 219.1562 113.3326 219.3281 Q113.1451 219.5 112.9107 219.5 Q112.6451 219.5 112.4576 219.3281 Q112.2857 219.1562 112.2857 218.8281 Q112.2857 218.4844 112.4576 218.3281 Q112.6451 218.1562 112.9107 218.1562 ZM113.4263 220.5625 L113.4263 227 L112.3638 227 L112.3638 220.5625 L113.4263 220.5625 ZM121.908 218.4375 L118.7205 227 L117.6892 227 L120.8767 218.4375 L121.908 218.4375 ZM131.1014 227 L126.3045 227 L126.3045 218.4375 L131.1014 218.4375 L131.1014 219.375 L127.3983 219.375 L127.3983 222.0625 L130.8827 222.0625 L130.8827 222.9844 L127.3983 222.9844 L127.3983 226.0469 L131.1014 226.0469 L131.1014 227 ZM134.9922 226.25 Q135.2266 226.25 135.4766 226.2188 Q135.7266 226.1719 135.8828 226.125 L135.8828 226.9219 Q135.7266 227.0156 135.4141 227.0625 Q135.1016 227.125 134.8047 227.125 Q134.3047 227.125 133.8672 226.9531 Q133.4453 226.7656 133.1797 226.3438 Q132.9297 225.9062 132.9297 225.125 L132.9297 221.3906 L132.0078 221.3906 L132.0078 220.875 L132.9297 220.4531 L133.3516 219.0938 L133.9766 219.0938 L133.9766 220.5625 L135.836 220.5625 L135.836 221.3906 L133.9766 221.3906 L133.9766 225.1094 Q133.9766 225.6875 134.2578 225.9688 Q134.5391 226.25 134.9922 226.25 ZM138.2305 220.5625 Q138.2305 221.0312 138.168 221.4531 L138.2461 221.4531 Q138.5586 220.9688 139.0899 220.7188 Q139.6211 220.4531 140.2461 220.4531 Q141.418 220.4531 141.9961 221.0156 Q142.5899 221.5781 142.5899 222.8125 L142.5899 227 L141.5586 227 L141.5586 222.8906 Q141.5586 221.3438 140.1055 221.3438 Q139.0274 221.3438 138.6211 221.9531 Q138.2305 222.5469 138.2305 223.6719 L138.2305 227 L137.168 227 L137.168 217.875 L138.2305 217.875 L138.2305 220.5625 ZM147.0684 220.4531 Q147.8965 220.4531 148.4903 220.8125 Q149.084 221.1719 149.3965 221.8281 Q149.7247 222.4688 149.7247 223.3594 L149.7247 223.9844 L145.3184 223.9844 Q145.3497 225.0781 145.8809 225.6562 Q146.4122 226.2188 147.3653 226.2188 Q147.9903 226.2188 148.459 226.1094 Q148.9278 225.9844 149.4434 225.7812 L149.4434 226.7031 Q148.9434 226.9219 148.459 227.0156 Q147.9903 227.125 147.3184 227.125 Q146.4122 227.125 145.709 226.75 Q145.0059 226.375 144.6153 225.6406 Q144.2247 224.9062 144.2247 223.8281 Q144.2247 222.7812 144.584 222.0312 Q144.9434 221.2656 145.584 220.8594 Q146.2247 220.4531 147.0684 220.4531 ZM147.0528 221.3125 Q146.3028 221.3125 145.8653 221.7969 Q145.4278 222.2812 145.3497 223.1406 L148.6153 223.1406 Q148.6153 222.3281 148.2403 221.8281 Q147.8653 221.3125 147.0528 221.3125 ZM154.3521 220.4531 Q154.5396 220.4531 154.7427 220.4688 Q154.9615 220.4844 155.1177 220.5156 L154.9771 221.4844 Q154.8208 221.4531 154.6333 221.4375 Q154.4458 221.4062 154.2896 221.4062 Q153.7896 221.4062 153.3521 221.6875 Q152.9302 221.9531 152.6646 222.4375 Q152.4146 222.9219 152.4146 223.5625 L152.4146 227 L151.3521 227 L151.3521 220.5625 L152.2271 220.5625 L152.3365 221.75 L152.3833 221.75 Q152.6958 221.2188 153.1802 220.8438 Q153.6802 220.4531 154.3521 220.4531 ZM159.4019 220.4531 Q160.5581 220.4531 161.1362 221.0156 Q161.73 221.5625 161.73 222.8125 L161.73 227 L160.6987 227 L160.6987 222.8906 Q160.6987 221.3438 159.2456 221.3438 Q158.1831 221.3438 157.7769 221.9375 Q157.3706 222.5312 157.3706 223.6562 L157.3706 227 L156.3081 227 L156.3081 220.5625 L157.1675 220.5625 L157.3237 221.4375 L157.3862 221.4375 Q157.6987 220.9375 158.2456 220.7031 Q158.7925 220.4531 159.4019 220.4531 ZM166.2085 220.4531 Q167.0367 220.4531 167.6304 220.8125 Q168.2242 221.1719 168.5367 221.8281 Q168.8648 222.4688 168.8648 223.3594 L168.8648 223.9844 L164.4585 223.9844 Q164.4898 225.0781 165.021 225.6562 Q165.5523 226.2188 166.5054 226.2188 Q167.1304 226.2188 167.5992 226.1094 Q168.0679 225.9844 168.5835 225.7812 L168.5835 226.7031 Q168.0835 226.9219 167.5992 227.0156 Q167.1304 227.125 166.4585 227.125 Q165.5523 227.125 164.8492 226.75 Q164.146 226.375 163.7554 225.6406 Q163.3648 224.9062 163.3648 223.8281 Q163.3648 222.7812 163.7242 222.0312 Q164.0835 221.2656 164.7242 220.8594 Q165.3648 220.4531 166.2085 220.4531 ZM166.1929 221.3125 Q165.4429 221.3125 165.0054 221.7969 Q164.5679 222.2812 164.4898 223.1406 L167.7554 223.1406 Q167.7554 222.3281 167.3804 221.8281 Q167.0054 221.3125 166.1929 221.3125 ZM172.6485 226.25 Q172.8828 226.25 173.1328 226.2188 Q173.3828 226.1719 173.5391 226.125 L173.5391 226.9219 Q173.3828 227.0156 173.0703 227.0625 Q172.7578 227.125 172.461 227.125 Q171.961 227.125 171.5235 226.9531 Q171.1016 226.7656 170.836 226.3438 Q170.586 225.9062 170.586 225.125 L170.586 221.3906 L169.6641 221.3906 L169.6641 220.875 L170.586 220.4531 L171.0078 219.0938 L171.6328 219.0938 L171.6328 220.5625 L173.4922 220.5625 L173.4922 221.3906 L171.6328 221.3906 L171.6328 225.1094 Q171.6328 225.6875 171.9141 225.9688 Q172.1953 226.25 172.6485 226.25 Z"
                  stroke-width="1.5" clip-path="url(#clipPath8)" stroke="none"/>
            <rect x="310" y="210" clip-path="url(#clipPath9)"
                  fill="rgb(201,231,183)" width="259" height="89" stroke="none"
                  stroke-width="1.5"/>
            <rect x="310" y="210" clip-path="url(#clipPath9)" fill="none"
                  width="259" height="89" stroke="rgb(140,161,128)"/>
            <path fill="none"
                  d="M552 218 L563 218 L563 229 L552 229 ZM551.8008 218 L555.1992 215 L566 215 L566 226 L563 229.1992 M563 218 L566 215"
                  clip-path="url(#clipPath9)" fill-rule="evenodd" stroke="black"/>
            <path fill="black"
                  d="M355.0312 224.7031 Q355.0312 225.8438 354.2031 226.4844 Q353.375 227.125 351.9688 227.125 Q351.25 227.125 350.625 227.0156 Q350.0156 226.9062 349.6094 226.7188 L349.6094 225.6875 Q350.0469 225.875 350.6875 226.0312 Q351.3281 226.1875 352.0156 226.1875 Q352.9688 226.1875 353.4531 225.8125 Q353.9375 225.4375 353.9375 224.7969 Q353.9375 224.3906 353.75 224.1094 Q353.5781 223.8125 353.1406 223.5625 Q352.7031 223.3125 351.9219 223.0469 Q350.8438 222.6406 350.2812 222.0625 Q349.7188 221.4844 349.7188 220.5 Q349.7188 219.8125 350.0625 219.3281 Q350.4219 218.8438 351.0312 218.5781 Q351.6562 218.3125 352.4531 218.3125 Q353.1562 218.3125 353.75 218.4531 Q354.3438 218.5781 354.8125 218.7969 L354.4844 219.7188 Q354.0469 219.5312 353.5156 219.4062 Q353 219.2656 352.4375 219.2656 Q351.625 219.2656 351.2188 219.6094 Q350.8125 219.9375 350.8125 220.5156 Q350.8125 220.9375 350.9844 221.2344 Q351.1719 221.5156 351.5781 221.75 Q351.9844 221.9688 352.6875 222.2344 Q353.4375 222.5156 353.9531 222.8281 Q354.4844 223.1406 354.75 223.5938 Q355.0312 224.0312 355.0312 224.7031 ZM359.088 220.4531 Q359.9162 220.4531 360.5099 220.8125 Q361.1037 221.1719 361.4162 221.8281 Q361.7443 222.4688 361.7443 223.3594 L361.7443 223.9844 L357.338 223.9844 Q357.3693 225.0781 357.9005 225.6562 Q358.4318 226.2188 359.3849 226.2188 Q360.0099 226.2188 360.4787 226.1094 Q360.9474 225.9844 361.463 225.7812 L361.463 226.7031 Q360.963 226.9219 360.4787 227.0156 Q360.0099 227.125 359.338 227.125 Q358.4318 227.125 357.7287 226.75 Q357.0255 226.375 356.6349 225.6406 Q356.2443 224.9062 356.2443 223.8281 Q356.2443 222.7812 356.6037 222.0312 Q356.963 221.2656 357.6037 220.8594 Q358.2443 220.4531 359.088 220.4531 ZM359.0724 221.3125 Q358.3224 221.3125 357.8849 221.7969 Q357.4474 222.2812 357.3693 223.1406 L360.6349 223.1406 Q360.6349 222.3281 360.2599 221.8281 Q359.8849 221.3125 359.0724 221.3125 ZM366.3717 220.4531 Q366.5592 220.4531 366.7623 220.4688 Q366.9811 220.4844 367.1373 220.5156 L366.9967 221.4844 Q366.8405 221.4531 366.653 221.4375 Q366.4655 221.4062 366.3092 221.4062 Q365.8092 221.4062 365.3717 221.6875 Q364.9498 221.9531 364.6842 222.4375 Q364.4342 222.9219 364.4342 223.5625 L364.4342 227 L363.3717 227 L363.3717 220.5625 L364.2467 220.5625 L364.3561 221.75 L364.403 221.75 Q364.7155 221.2188 365.1998 220.8438 Q365.6998 220.4531 366.3717 220.4531 ZM369.7496 227 L367.3121 220.5625 L368.4371 220.5625 L369.8121 224.3594 Q369.9059 224.625 370.0153 224.9531 Q370.1246 225.2656 370.2028 225.5625 Q370.2809 225.8594 370.3278 226.0625 L370.3746 226.0625 Q370.4215 225.8594 370.4996 225.5625 Q370.5934 225.2656 370.7028 224.9375 Q370.8278 224.6094 370.9059 224.3594 L372.2809 220.5625 L373.4059 220.5625 L370.9528 227 L369.7496 227 ZM374.9707 218.1562 Q375.205 218.1562 375.3925 218.3281 Q375.58 218.4844 375.58 218.8281 Q375.58 219.1562 375.3925 219.3281 Q375.205 219.5 374.9707 219.5 Q374.705 219.5 374.5175 219.3281 Q374.3457 219.1562 374.3457 218.8281 Q374.3457 218.4844 374.5175 218.3281 Q374.705 218.1562 374.9707 218.1562 ZM375.4863 220.5625 L375.4863 227 L374.4238 227 L374.4238 220.5625 L375.4863 220.5625 ZM379.8011 227.125 Q378.598 227.125 377.8792 226.2969 Q377.1605 225.4531 377.1605 223.7969 Q377.1605 222.1406 377.8792 221.2969 Q378.6136 220.4531 379.8167 220.4531 Q380.5667 220.4531 381.0355 220.7344 Q381.5042 221 381.8011 221.3906 L381.8792 221.3906 Q381.8636 221.2344 381.8323 220.9375 Q381.8011 220.625 381.8011 220.4531 L381.8011 217.875 L382.8636 217.875 L382.8636 227 L382.0198 227 L381.8636 226.1406 L381.8011 226.1406 Q381.5198 226.5469 381.0355 226.8438 Q380.5667 227.125 379.8011 227.125 ZM379.973 226.25 Q380.9886 226.25 381.3948 225.6875 Q381.8167 225.125 381.8167 224 L381.8167 223.8125 Q381.8167 222.6094 381.4261 221.9688 Q381.0355 221.3281 379.9573 221.3281 Q379.1136 221.3281 378.6761 222.0156 Q378.2542 222.6875 378.2542 223.8125 Q378.2542 224.9688 378.6761 225.6094 Q379.1136 226.25 379.973 226.25 ZM390.4936 223.7656 Q390.4936 225.375 389.6811 226.25 Q388.8686 227.125 387.4936 227.125 Q386.6499 227.125 385.978 226.7344 Q385.3061 226.3438 384.9155 225.5938 Q384.5405 224.8438 384.5405 223.7656 Q384.5405 222.1719 385.3374 221.3125 Q386.1499 220.4531 387.5249 220.4531 Q388.4155 220.4531 389.0717 220.8438 Q389.7436 221.2344 390.1186 221.9688 Q390.4936 222.7031 390.4936 223.7656 ZM385.6342 223.7656 Q385.6342 224.9062 386.0874 225.5781 Q386.5405 226.25 387.5249 226.25 Q388.4936 226.25 388.9467 225.5781 Q389.3999 224.9062 389.3999 223.7656 Q389.3999 222.625 388.9467 221.9844 Q388.4936 221.3438 387.5092 221.3438 Q386.5249 221.3438 386.0717 221.9844 Q385.6342 222.625 385.6342 223.7656 ZM395.1599 220.4531 Q395.3474 220.4531 395.5505 220.4688 Q395.7693 220.4844 395.9255 220.5156 L395.7849 221.4844 Q395.6287 221.4531 395.4412 221.4375 Q395.2537 221.4062 395.0974 221.4062 Q394.5974 221.4062 394.1599 221.6875 Q393.738 221.9531 393.4724 222.4375 Q393.2224 222.9219 393.2224 223.5625 L393.2224 227 L392.1599 227 L392.1599 220.5625 L393.0349 220.5625 L393.1443 221.75 L393.1912 221.75 Q393.5037 221.2188 393.988 220.8438 Q394.488 220.4531 395.1599 220.4531 ZM407.861 222.7031 Q407.861 224.0312 407.4079 225.0312 Q406.9547 226.0156 406.0797 226.5781 Q405.2047 227.125 403.9079 227.125 Q402.5797 227.125 401.6891 226.5781 Q400.8141 226.0156 400.3766 225.0312 Q399.9547 224.0312 399.9547 222.6875 Q399.9547 221.375 400.3766 220.3906 Q400.8141 219.4062 401.6891 218.8594 Q402.5797 218.2969 403.9235 218.2969 Q405.2047 218.2969 406.0797 218.8438 Q406.9547 219.3906 407.4079 220.3906 Q407.861 221.375 407.861 222.7031 ZM401.0954 222.7031 Q401.0954 224.3281 401.7672 225.2656 Q402.4547 226.1875 403.9079 226.1875 Q405.3766 226.1875 406.0485 225.2656 Q406.7204 224.3281 406.7204 222.7031 Q406.7204 221.0781 406.0485 220.1719 Q405.3766 219.25 403.9235 219.25 Q402.4704 219.25 401.7829 220.1719 Q401.0954 221.0781 401.0954 222.7031 ZM416.6706 220.4531 Q417.7643 220.4531 418.2956 221.0156 Q418.8424 221.5625 418.8424 222.8125 L418.8424 227 L417.7956 227 L417.7956 222.8594 Q417.7956 221.3438 416.4831 221.3438 Q415.5456 221.3438 415.1393 221.8906 Q414.7487 222.4219 414.7487 223.4531 L414.7487 227 L413.7018 227 L413.7018 222.8594 Q413.7018 221.3438 412.3893 221.3438 Q411.4049 221.3438 411.0299 221.9375 Q410.6706 222.5312 410.6706 223.6562 L410.6706 227 L409.6081 227 L409.6081 220.5625 L410.4674 220.5625 L410.6237 221.4375 L410.6862 221.4375 Q410.9831 220.9375 411.4831 220.7031 Q411.9987 220.4531 412.5768 220.4531 Q414.0924 220.4531 414.5456 221.5312 L414.6081 221.5312 Q414.9362 220.9688 415.4831 220.7188 Q416.0456 220.4531 416.6706 220.4531 ZM423.9219 220.4531 Q425.0781 220.4531 425.6562 221.0156 Q426.25 221.5625 426.25 222.8125 L426.25 227 L425.2188 227 L425.2188 222.8906 Q425.2188 221.3438 423.7656 221.3438 Q422.7031 221.3438 422.2969 221.9375 Q421.8906 222.5312 421.8906 223.6562 L421.8906 227 L420.8281 227 L420.8281 220.5625 L421.6875 220.5625 L421.8438 221.4375 L421.9062 221.4375 Q422.2188 220.9375 422.7656 220.7031 Q423.3125 220.4531 423.9219 220.4531 ZM428.7911 218.1562 Q429.0255 218.1562 429.213 218.3281 Q429.4005 218.4844 429.4005 218.8281 Q429.4005 219.1562 429.213 219.3281 Q429.0255 219.5 428.7911 219.5 Q428.5255 219.5 428.338 219.3281 Q428.1661 219.1562 428.1661 218.8281 Q428.1661 218.4844 428.338 218.3281 Q428.5255 218.1562 428.7911 218.1562 ZM429.3067 220.5625 L429.3067 227 L428.2442 227 L428.2442 220.5625 L429.3067 220.5625 ZM436.3558 224.7031 Q436.3558 225.8438 435.5277 226.4844 Q434.6996 227.125 433.2933 227.125 Q432.5746 227.125 431.9496 227.0156 Q431.3402 226.9062 430.934 226.7188 L430.934 225.6875 Q431.3715 225.875 432.0121 226.0312 Q432.6527 226.1875 433.3402 226.1875 Q434.2933 226.1875 434.7777 225.8125 Q435.2621 225.4375 435.2621 224.7969 Q435.2621 224.3906 435.0746 224.1094 Q434.9027 223.8125 434.4652 223.5625 Q434.0277 223.3125 433.2465 223.0469 Q432.1683 222.6406 431.6058 222.0625 Q431.0433 221.4844 431.0433 220.5 Q431.0433 219.8125 431.3871 219.3281 Q431.7465 218.8438 432.3558 218.5781 Q432.9808 218.3125 433.7777 218.3125 Q434.4808 218.3125 435.0746 218.4531 Q435.6683 218.5781 436.1371 218.7969 L435.809 219.7188 Q435.3715 219.5312 434.8402 219.4062 Q434.3246 219.2656 433.7621 219.2656 Q432.9496 219.2656 432.5433 219.6094 Q432.1371 219.9375 432.1371 220.5156 Q432.1371 220.9375 432.309 221.2344 Q432.4965 221.5156 432.9027 221.75 Q433.309 221.9688 434.0121 222.2344 Q434.7621 222.5156 435.2777 222.8281 Q435.809 223.1406 436.0746 223.5938 Q436.3558 224.0312 436.3558 224.7031 ZM440.0845 226.25 Q440.3189 226.25 440.5689 226.2188 Q440.8189 226.1719 440.9751 226.125 L440.9751 226.9219 Q440.8189 227.0156 440.5064 227.0625 Q440.1939 227.125 439.897 227.125 Q439.397 227.125 438.9595 226.9531 Q438.5376 226.7656 438.272 226.3438 Q438.022 225.9062 438.022 225.125 L438.022 221.3906 L437.1001 221.3906 L437.1001 220.875 L438.022 220.4531 L438.4439 219.0938 L439.0689 219.0938 L439.0689 220.5625 L440.9283 220.5625 L440.9283 221.3906 L439.0689 221.3906 L439.0689 225.1094 Q439.0689 225.6875 439.3501 225.9688 Q439.6314 226.25 440.0845 226.25 ZM445.2603 220.4531 Q445.4478 220.4531 445.6509 220.4688 Q445.8697 220.4844 446.0259 220.5156 L445.8853 221.4844 Q445.729 221.4531 445.5415 221.4375 Q445.354 221.4062 445.1978 221.4062 Q444.6978 221.4062 444.2603 221.6875 Q443.8384 221.9531 443.5728 222.4375 Q443.3228 222.9219 443.3228 223.5625 L443.3228 227 L442.2603 227 L442.2603 220.5625 L443.1353 220.5625 L443.2447 221.75 L443.2915 221.75 Q443.604 221.2188 444.0884 220.8438 Q444.5884 220.4531 445.2603 220.4531 ZM449.7007 220.4531 Q450.5288 220.4531 451.1226 220.8125 Q451.7163 221.1719 452.0288 221.8281 Q452.3569 222.4688 452.3569 223.3594 L452.3569 223.9844 L447.9507 223.9844 Q447.9819 225.0781 448.5132 225.6562 Q449.0444 226.2188 449.9976 226.2188 Q450.6226 226.2188 451.0913 226.1094 Q451.5601 225.9844 452.0757 225.7812 L452.0757 226.7031 Q451.5757 226.9219 451.0913 227.0156 Q450.6226 227.125 449.9507 227.125 Q449.0444 227.125 448.3413 226.75 Q447.6382 226.375 447.2476 225.6406 Q446.8569 224.9062 446.8569 223.8281 Q446.8569 222.7812 447.2163 222.0312 Q447.5757 221.2656 448.2163 220.8594 Q448.8569 220.4531 449.7007 220.4531 ZM449.6851 221.3125 Q448.9351 221.3125 448.4976 221.7969 Q448.0601 222.2812 447.9819 223.1406 L451.2476 223.1406 Q451.2476 222.3281 450.8726 221.8281 Q450.4976 221.3125 449.6851 221.3125 ZM456.4219 220.4531 Q457.5938 220.4531 458.1562 220.9688 Q458.7344 221.4844 458.7344 222.625 L458.7344 227 L457.9531 227 L457.75 226.0938 L457.7031 226.0938 Q457.2812 226.6094 456.8125 226.875 Q456.3594 227.125 455.5469 227.125 Q454.6719 227.125 454.0938 226.6719 Q453.5156 226.2031 453.5156 225.2188 Q453.5156 224.25 454.2656 223.7344 Q455.0312 223.2031 456.6094 223.1562 L457.7031 223.125 L457.7031 222.7344 Q457.7031 221.9375 457.3438 221.625 Q457 221.3125 456.3594 221.3125 Q455.8594 221.3125 455.4062 221.4688 Q454.9531 221.6094 454.5469 221.7969 L454.2344 221.0156 Q454.6562 220.7812 455.2188 220.625 Q455.7969 220.4531 456.4219 220.4531 ZM456.7344 223.8906 Q455.5312 223.9375 455.0625 224.2812 Q454.6094 224.6094 454.6094 225.2188 Q454.6094 225.7656 454.9375 226.0156 Q455.2656 226.2656 455.7812 226.2656 Q456.6094 226.2656 457.1406 225.8281 Q457.6875 225.375 457.6875 224.4375 L457.6875 223.8594 L456.7344 223.8906 ZM467.7789 220.4531 Q468.8727 220.4531 469.4039 221.0156 Q469.9508 221.5625 469.9508 222.8125 L469.9508 227 L468.9039 227 L468.9039 222.8594 Q468.9039 221.3438 467.5914 221.3438 Q466.6539 221.3438 466.2477 221.8906 Q465.8571 222.4219 465.8571 223.4531 L465.8571 227 L464.8102 227 L464.8102 222.8594 Q464.8102 221.3438 463.4977 221.3438 Q462.5133 221.3438 462.1383 221.9375 Q461.7789 222.5312 461.7789 223.6562 L461.7789 227 L460.7164 227 L460.7164 220.5625 L461.5758 220.5625 L461.7321 221.4375 L461.7946 221.4375 Q462.0914 220.9375 462.5914 220.7031 Q463.1071 220.4531 463.6852 220.4531 Q465.2008 220.4531 465.6539 221.5312 L465.7164 221.5312 Q466.0446 220.9688 466.5914 220.7188 Q467.1539 220.4531 467.7789 220.4531 ZM474.5253 223.7188 Q474.5253 222.25 474.9471 220.8906 Q475.369 219.5312 476.2909 218.4375 L477.2753 218.4375 Q476.4471 219.5625 476.0096 220.9219 Q475.5878 222.2656 475.5878 223.7031 Q475.5878 225.0938 476.0096 226.4375 Q476.4471 227.7656 477.2753 228.8906 L476.2909 228.8906 Q475.369 227.8438 474.9471 226.5 Q474.5253 225.1562 474.5253 223.7188 ZM485.5941 227 L484.3441 227 L479.7503 219.8906 L479.7034 219.8906 Q479.7347 220.2969 479.7659 220.9219 Q479.7972 221.5469 479.7972 222.2188 L479.7972 227 L478.7972 227 L478.7972 218.4375 L480.0472 218.4375 L484.6253 225.5312 L484.6722 225.5312 Q484.6566 225.3281 484.6409 224.9531 Q484.6253 224.5625 484.6097 224.1094 Q484.5941 223.6562 484.5941 223.2656 L484.5941 218.4375 L485.5941 218.4375 L485.5941 227 ZM493.3079 227 L492.2766 224.3438 L488.8704 224.3438 L487.8547 227 L486.761 227 L490.1047 218.3906 L491.0735 218.3906 L494.4172 227 L493.3079 227 ZM490.9797 220.7969 Q490.9485 220.7031 490.8547 220.4531 Q490.7766 220.2031 490.6985 219.9375 Q490.6204 219.6562 490.5735 219.5156 Q490.4954 219.8906 490.386 220.25 Q490.2766 220.5938 490.1985 220.7969 L489.2297 223.3906 L491.9485 223.3906 L490.9797 220.7969 ZM500.4603 224.7031 Q500.4603 225.8438 499.6322 226.4844 Q498.804 227.125 497.3978 227.125 Q496.679 227.125 496.054 227.0156 Q495.4447 226.9062 495.0384 226.7188 L495.0384 225.6875 Q495.4759 225.875 496.1165 226.0312 Q496.7572 226.1875 497.4447 226.1875 Q498.3978 226.1875 498.8822 225.8125 Q499.3665 225.4375 499.3665 224.7969 Q499.3665 224.3906 499.179 224.1094 Q499.0072 223.8125 498.5697 223.5625 Q498.1322 223.3125 497.3509 223.0469 Q496.2728 222.6406 495.7103 222.0625 Q495.1478 221.4844 495.1478 220.5 Q495.1478 219.8125 495.4915 219.3281 Q495.8509 218.8438 496.4603 218.5781 Q497.0853 218.3125 497.8822 218.3125 Q498.5853 218.3125 499.179 218.4531 Q499.7728 218.5781 500.2415 218.7969 L499.9134 219.7188 Q499.4759 219.5312 498.9447 219.4062 Q498.429 219.2656 497.8665 219.2656 Q497.054 219.2656 496.6478 219.6094 Q496.2415 219.9375 496.2415 220.5156 Q496.2415 220.9375 496.4134 221.2344 Q496.6009 221.5156 497.0072 221.75 Q497.4134 221.9688 498.1165 222.2344 Q498.8665 222.5156 499.3822 222.8281 Q499.9134 223.1406 500.179 223.5938 Q500.4603 224.0312 500.4603 224.7031 ZM508.4809 218.4375 L505.2934 227 L504.2621 227 L507.4496 218.4375 L508.4809 218.4375 ZM515.1587 218.4375 Q516.8306 218.4375 517.5962 219.0938 Q518.3618 219.75 518.3618 220.9531 Q518.3618 221.6562 518.0493 222.2812 Q517.7368 222.8906 516.9868 223.2812 Q516.2368 223.6562 514.9556 223.6562 L513.9712 223.6562 L513.9712 227 L512.8774 227 L512.8774 218.4375 L515.1587 218.4375 ZM515.0649 219.3594 L513.9712 219.3594 L513.9712 222.7344 L514.8306 222.7344 Q516.0493 222.7344 516.6431 222.3438 Q517.2524 221.9531 517.2524 221 Q517.2524 220.1719 516.7212 219.7656 Q516.1899 219.3594 515.0649 219.3594 ZM523.825 219.2656 Q522.4343 219.2656 521.6375 220.1875 Q520.8562 221.1094 520.8562 222.7188 Q520.8562 224.3125 521.5906 225.25 Q522.325 226.1719 523.8093 226.1719 Q524.3718 226.1719 524.8718 226.0781 Q525.3718 225.9844 525.8562 225.8438 L525.8562 226.7656 Q525.3718 226.9531 524.8562 227.0312 Q524.3562 227.125 523.6531 227.125 Q522.3406 227.125 521.4656 226.5938 Q520.5906 226.0469 520.1531 225.0469 Q519.7156 224.0469 519.7156 222.7031 Q519.7156 221.4062 520.1843 220.4219 Q520.6687 219.4219 521.5906 218.875 Q522.5125 218.3125 523.825 218.3125 Q525.1843 218.3125 526.2 218.8125 L525.7625 219.7344 Q525.3718 219.5469 524.8718 219.4062 Q524.3875 219.2656 523.825 219.2656 ZM529.6903 223.7188 Q529.6903 225.1562 529.2528 226.5 Q528.8309 227.8438 527.9247 228.8906 L526.9403 228.8906 Q527.7684 227.7656 528.1903 226.4375 Q528.6122 225.0938 528.6122 223.7031 Q528.6122 222.2656 528.1903 220.9219 Q527.7684 219.5625 526.9247 218.4375 L527.9247 218.4375 Q528.8309 219.5312 529.2528 220.8906 Q529.6903 222.25 529.6903 223.7188 Z"
                  clip-path="url(#clipPath10)" stroke="none"/>
            <rect x="250" y="390" clip-path="url(#clipPath11)"
                  fill="rgb(201,231,183)" width="239" height="89" stroke="none"/>
            <rect x="250" y="390" clip-path="url(#clipPath11)" fill="none"
                  width="239" height="89" stroke="rgb(140,161,128)"/>
            <polygon fill="none" clip-path="url(#clipPath11)"
                     points=" 482 411 484 411 484 409 482 409 481 407 482 405 481 404 479 405 477 404 477 402 475 402 475 404 473 405 471 404 470 405 471 407 470 409 468 409 468 411 470 411 471 413 470 415 471 416 473 415 475 416 475 418 477 418 477 416 479 415 481 416 482 415 481 413"
                     stroke="black"/>
            <path fill="none"
                  d="M479 410 C479 408.3438 477.6562 407 476 407 C474.3438 407 473 408.3438 473 410 C473 411.6562 474.3438 413 476 413 C477.6562 413 479 411.6562 479 410 ZM479 410"
                  clip-path="url(#clipPath11)" fill-rule="evenodd"
                  stroke="black"/>
            <polygon fill="none" clip-path="url(#clipPath11)"
                     points=" 485 400 486 400 486 398 485 398 484 396 484 395 483 394 482 395 480 395 479 394 478 395 478 396 477 398 476 398 476 400 477 400 478 402 478 403 479 404 480 403 482 403 483 404 484 403 484 402"
                     stroke="black"/>
            <path fill="none"
                  d="M483 399 C483 397.8945 482.1055 397 481 397 C479.8945 397 479 397.8945 479 399 C479 400.1055 479.8945 401 481 401 C482.1055 401 483 400.1055 483 399 ZM483 399"
                  clip-path="url(#clipPath11)" fill-rule="evenodd"
                  stroke="black"/>
            <path fill="black"
                  d="M325.0312 402.625 Q325.0312 404.7969 323.8438 405.9062 Q322.6562 407 320.5469 407 L318.1562 407 L318.1562 398.4375 L320.7969 398.4375 Q322.0938 398.4375 323.0469 398.9219 Q324 399.3906 324.5156 400.3281 Q325.0312 401.25 325.0312 402.625 ZM323.8906 402.6719 Q323.8906 400.9531 323.0469 400.1562 Q322.2031 399.3594 320.6406 399.3594 L319.25 399.3594 L319.25 406.0781 L320.4062 406.0781 Q323.8906 406.0781 323.8906 402.6719 ZM327.3226 398.1562 Q327.5569 398.1562 327.7444 398.3281 Q327.9319 398.4844 327.9319 398.8281 Q327.9319 399.1562 327.7444 399.3281 Q327.5569 399.5 327.3226 399.5 Q327.0569 399.5 326.8694 399.3281 Q326.6976 399.1562 326.6976 398.8281 Q326.6976 398.4844 326.8694 398.3281 Q327.0569 398.1562 327.3226 398.1562 ZM327.8382 400.5625 L327.8382 407 L326.7757 407 L326.7757 400.5625 L327.8382 400.5625 ZM334.0592 405.2188 Q334.0592 406.1562 333.3561 406.6406 Q332.6686 407.125 331.4967 407.125 Q330.8248 407.125 330.3405 407.0156 Q329.8561 406.9062 329.4811 406.7188 L329.4811 405.75 Q329.8717 405.9375 330.403 406.1094 Q330.9498 406.2656 331.5123 406.2656 Q332.3248 406.2656 332.6842 406.0156 Q333.0436 405.75 333.0436 405.3125 Q333.0436 405.0781 332.903 404.8906 Q332.778 404.7031 332.4342 404.5156 Q332.0905 404.3125 331.4655 404.0781 Q330.8405 403.8281 330.3873 403.5938 Q329.9498 403.3594 329.6998 403.0312 Q329.4655 402.6875 329.4655 402.1562 Q329.4655 401.3438 330.1217 400.9062 Q330.7936 400.4531 331.8873 400.4531 Q332.4655 400.4531 332.9655 400.5625 Q333.4811 400.6719 333.9342 400.875 L333.5748 401.7188 Q333.1686 401.5469 332.7155 401.4375 Q332.278 401.3125 331.8092 401.3125 Q331.153 401.3125 330.8092 401.5312 Q330.4811 401.7344 330.4811 402.0938 Q330.4811 402.3594 330.6373 402.5469 Q330.7936 402.7344 331.153 402.9062 Q331.5123 403.0781 332.1373 403.3125 Q332.7467 403.5469 333.1686 403.7969 Q333.6061 404.0312 333.8248 404.375 Q334.0592 404.7031 334.0592 405.2188 ZM338.1979 407.125 Q337.3541 407.125 336.6823 406.7812 Q336.026 406.4219 335.6354 405.6875 Q335.2604 404.9531 335.2604 403.8125 Q335.2604 402.625 335.651 401.8906 Q336.0573 401.1406 336.7291 400.7969 Q337.4166 400.4531 338.276 400.4531 Q338.7604 400.4531 339.2135 400.5625 Q339.6823 400.6562 339.9635 400.7969 L339.651 401.6719 Q339.3541 401.5625 338.9635 401.4688 Q338.5885 401.375 338.2448 401.375 Q336.3541 401.375 336.3541 403.8125 Q336.3541 404.9688 336.8073 405.5938 Q337.276 406.2031 338.1979 406.2031 Q338.7135 406.2031 339.1198 406.0938 Q339.526 405.9844 339.8541 405.8438 L339.8541 406.7656 Q339.5416 406.9375 339.151 407.0312 Q338.7604 407.125 338.1979 407.125 ZM346.9735 403.7656 Q346.9735 405.375 346.161 406.25 Q345.3485 407.125 343.9735 407.125 Q343.1298 407.125 342.4579 406.7344 Q341.786 406.3438 341.3954 405.5938 Q341.0204 404.8438 341.0204 403.7656 Q341.0204 402.1719 341.8173 401.3125 Q342.6298 400.4531 344.0048 400.4531 Q344.8954 400.4531 345.5517 400.8438 Q346.2235 401.2344 346.5985 401.9688 Q346.9735 402.7031 346.9735 403.7656 ZM342.1142 403.7656 Q342.1142 404.9062 342.5673 405.5781 Q343.0204 406.25 344.0048 406.25 Q344.9735 406.25 345.4267 405.5781 Q345.8798 404.9062 345.8798 403.7656 Q345.8798 402.625 345.4267 401.9844 Q344.9735 401.3438 343.9892 401.3438 Q343.0048 401.3438 342.5517 401.9844 Q342.1142 402.625 342.1142 403.7656 ZM354.0411 407.125 Q352.838 407.125 352.1193 406.2969 Q351.4005 405.4531 351.4005 403.7969 Q351.4005 402.1406 352.1193 401.2969 Q352.8536 400.4531 354.0568 400.4531 Q354.8068 400.4531 355.2755 400.7344 Q355.7443 401 356.0411 401.3906 L356.1193 401.3906 Q356.1036 401.2344 356.0724 400.9375 Q356.0411 400.625 356.0411 400.4531 L356.0411 397.875 L357.1036 397.875 L357.1036 407 L356.2599 407 L356.1036 406.1406 L356.0411 406.1406 Q355.7599 406.5469 355.2755 406.8438 Q354.8068 407.125 354.0411 407.125 ZM354.213 406.25 Q355.2286 406.25 355.6349 405.6875 Q356.0568 405.125 356.0568 404 L356.0568 403.8125 Q356.0568 402.6094 355.6661 401.9688 Q355.2755 401.3281 354.1974 401.3281 Q353.3536 401.3281 352.9161 402.0156 Q352.4943 402.6875 352.4943 403.8125 Q352.4943 404.9688 352.9161 405.6094 Q353.3536 406.25 354.213 406.25 ZM364.5149 400.5625 L364.5149 407 L363.6555 407 L363.4993 406.1406 L363.4524 406.1406 Q363.1399 406.6562 362.5774 406.8906 Q362.0305 407.125 361.4055 407.125 Q360.2493 407.125 359.6555 406.5625 Q359.0774 406 359.0774 404.7812 L359.0774 400.5625 L360.1399 400.5625 L360.1399 404.7031 Q360.1399 406.25 361.5618 406.25 Q362.6399 406.25 363.0462 405.6562 Q363.468 405.0469 363.468 403.9219 L363.468 400.5625 L364.5149 400.5625 ZM369.556 400.4531 Q369.7435 400.4531 369.9466 400.4688 Q370.1653 400.4844 370.3216 400.5156 L370.181 401.4844 Q370.0247 401.4531 369.8372 401.4375 Q369.6497 401.4062 369.4935 401.4062 Q368.9935 401.4062 368.556 401.6875 Q368.1341 401.9531 367.8685 402.4375 Q367.6185 402.9219 367.6185 403.5625 L367.6185 407 L366.556 407 L366.556 400.5625 L367.431 400.5625 L367.5403 401.75 L367.5872 401.75 Q367.8997 401.2188 368.3841 400.8438 Q368.8841 400.4531 369.556 400.4531 ZM377.1058 403.7656 Q377.1058 405.375 376.2933 406.25 Q375.4808 407.125 374.1058 407.125 Q373.262 407.125 372.5901 406.7344 Q371.9183 406.3438 371.5276 405.5938 Q371.1526 404.8438 371.1526 403.7656 Q371.1526 402.1719 371.9495 401.3125 Q372.762 400.4531 374.137 400.4531 Q375.0276 400.4531 375.6839 400.8438 Q376.3558 401.2344 376.7308 401.9688 Q377.1058 402.7031 377.1058 403.7656 ZM372.2464 403.7656 Q372.2464 404.9062 372.6995 405.5781 Q373.1526 406.25 374.137 406.25 Q375.1058 406.25 375.5589 405.5781 Q376.012 404.9062 376.012 403.7656 Q376.012 402.625 375.5589 401.9844 Q375.1058 401.3438 374.1214 401.3438 Q373.137 401.3438 372.6839 401.9844 Q372.2464 402.625 372.2464 403.7656 ZM384.3765 400.4531 Q385.2046 400.4531 385.7983 400.8125 Q386.3921 401.1719 386.7046 401.8281 Q387.0327 402.4688 387.0327 403.3594 L387.0327 403.9844 L382.6265 403.9844 Q382.6577 405.0781 383.189 405.6562 Q383.7202 406.2188 384.6733 406.2188 Q385.2983 406.2188 385.7671 406.1094 Q386.2358 405.9844 386.7515 405.7812 L386.7515 406.7031 Q386.2515 406.9219 385.7671 407.0156 Q385.2983 407.125 384.6265 407.125 Q383.7202 407.125 383.0171 406.75 Q382.314 406.375 381.9233 405.6406 Q381.5327 404.9062 381.5327 403.8281 Q381.5327 402.7812 381.8921 402.0312 Q382.2515 401.2656 382.8921 400.8594 Q383.5327 400.4531 384.3765 400.4531 ZM384.3608 401.3125 Q383.6108 401.3125 383.1733 401.7969 Q382.7358 402.2812 382.6577 403.1406 L385.9233 403.1406 Q385.9233 402.3281 385.5483 401.8281 Q385.1733 401.3125 384.3608 401.3125 ZM390.1914 403.7188 L387.9727 400.5625 L389.1758 400.5625 L390.832 402.9844 L392.4727 400.5625 L393.6602 400.5625 L391.4414 403.7188 L393.7695 407 L392.582 407 L390.832 404.4375 L389.0508 407 L387.8633 407 L390.1914 403.7188 ZM397.1644 406.25 Q397.3988 406.25 397.6488 406.2188 Q397.8988 406.1719 398.0551 406.125 L398.0551 406.9219 Q397.8988 407.0156 397.5863 407.0625 Q397.2738 407.125 396.9769 407.125 Q396.4769 407.125 396.0394 406.9531 Q395.6176 406.7656 395.3519 406.3438 Q395.1019 405.9062 395.1019 405.125 L395.1019 401.3906 L394.1801 401.3906 L394.1801 400.875 L395.1019 400.4531 L395.5238 399.0938 L396.1488 399.0938 L396.1488 400.5625 L398.0082 400.5625 L398.0082 401.3906 L396.1488 401.3906 L396.1488 405.1094 Q396.1488 405.6875 396.4301 405.9688 Q396.7113 406.25 397.1644 406.25 ZM401.8246 400.4531 Q402.6527 400.4531 403.2465 400.8125 Q403.8402 401.1719 404.1527 401.8281 Q404.4808 402.4688 404.4808 403.3594 L404.4808 403.9844 L400.0746 403.9844 Q400.1058 405.0781 400.6371 405.6562 Q401.1683 406.2188 402.1215 406.2188 Q402.7465 406.2188 403.2152 406.1094 Q403.684 405.9844 404.1996 405.7812 L404.1996 406.7031 Q403.6996 406.9219 403.2152 407.0156 Q402.7465 407.125 402.0746 407.125 Q401.1683 407.125 400.4652 406.75 Q399.7621 406.375 399.3715 405.6406 Q398.9808 404.9062 398.9808 403.8281 Q398.9808 402.7812 399.3402 402.0312 Q399.6996 401.2656 400.3402 400.8594 Q400.9808 400.4531 401.8246 400.4531 ZM401.809 401.3125 Q401.059 401.3125 400.6215 401.7969 Q400.184 402.2812 400.1058 403.1406 L403.3715 403.1406 Q403.3715 402.3281 402.9965 401.8281 Q402.6215 401.3125 401.809 401.3125 ZM409.1083 400.4531 Q409.2958 400.4531 409.4989 400.4688 Q409.7177 400.4844 409.8739 400.5156 L409.7333 401.4844 Q409.577 401.4531 409.3895 401.4375 Q409.202 401.4062 409.0458 401.4062 Q408.5458 401.4062 408.1083 401.6875 Q407.6864 401.9531 407.4208 402.4375 Q407.1708 402.9219 407.1708 403.5625 L407.1708 407 L406.1083 407 L406.1083 400.5625 L406.9833 400.5625 L407.0927 401.75 L407.1395 401.75 Q407.452 401.2188 407.9364 400.8438 Q408.4364 400.4531 409.1083 400.4531 ZM414.1581 400.4531 Q415.3143 400.4531 415.8924 401.0156 Q416.4862 401.5625 416.4862 402.8125 L416.4862 407 L415.4549 407 L415.4549 402.8906 Q415.4549 401.3438 414.0018 401.3438 Q412.9393 401.3438 412.5331 401.9375 Q412.1268 402.5312 412.1268 403.6562 L412.1268 407 L411.0643 407 L411.0643 400.5625 L411.9237 400.5625 L412.0799 401.4375 L412.1424 401.4375 Q412.4549 400.9375 413.0018 400.7031 Q413.5487 400.4531 414.1581 400.4531 ZM424.0741 403.7656 Q424.0741 405.375 423.2616 406.25 Q422.4491 407.125 421.0741 407.125 Q420.2303 407.125 419.5585 406.7344 Q418.8866 406.3438 418.496 405.5938 Q418.121 404.8438 418.121 403.7656 Q418.121 402.1719 418.9178 401.3125 Q419.7303 400.4531 421.1053 400.4531 Q421.996 400.4531 422.6522 400.8438 Q423.3241 401.2344 423.6991 401.9688 Q424.0741 402.7031 424.0741 403.7656 ZM419.2147 403.7656 Q419.2147 404.9062 419.6678 405.5781 Q420.121 406.25 421.1053 406.25 Q422.0741 406.25 422.5272 405.5781 Q422.9803 404.9062 422.9803 403.7656 Q422.9803 402.625 422.5272 401.9844 Q422.0741 401.3438 421.0897 401.3438 Q420.1053 401.3438 419.6522 401.9844 Q419.2147 402.625 419.2147 403.7656 Z"
                  clip-path="url(#clipPath12)" stroke="none"/>
            <rect x="530" y="390" clip-path="url(#clipPath13)"
                  fill="rgb(201,231,183)" width="219" height="89" stroke="none"/>
            <rect x="530" y="390" clip-path="url(#clipPath13)" fill="none"
                  width="219" height="89" stroke="rgb(140,161,128)"/>
            <polygon fill="none" clip-path="url(#clipPath13)"
                     points=" 742 411 744 411 744 409 742 409 741 407 742 405 741 404 739 405 737 404 737 402 735 402 735 404 733 405 731 404 730 405 731 407 730 409 728 409 728 411 730 411 731 413 730 415 731 416 733 415 735 416 735 418 737 418 737 416 739 415 741 416 742 415 741 413"
                     stroke="black"/>
            <path fill="none"
                  d="M739 410 C739 408.3438 737.6562 407 736 407 C734.3438 407 733 408.3438 733 410 C733 411.6562 734.3438 413 736 413 C737.6562 413 739 411.6562 739 410 ZM739 410"
                  clip-path="url(#clipPath13)" fill-rule="evenodd"
                  stroke="black"/>
            <polygon fill="none" clip-path="url(#clipPath13)"
                     points=" 745 400 746 400 746 398 745 398 744 396 744 395 743 394 742 395 740 395 739 394 738 395 738 396 737 398 736 398 736 400 737 400 738 402 738 403 739 404 740 403 742 403 743 404 744 403 744 402"
                     stroke="black"/>
            <path fill="none"
                  d="M743 399 C743 397.8945 742.1055 397 741 397 C739.8945 397 739 397.8945 739 399 C739 400.1055 739.8945 401 741 401 C742.1055 401 743 400.1055 743 399 ZM743 399"
                  clip-path="url(#clipPath13)" fill-rule="evenodd"
                  stroke="black"/>
            <path fill="black"
                  d="M620.0312 404.7031 Q620.0312 405.8438 619.2031 406.4844 Q618.375 407.125 616.9688 407.125 Q616.25 407.125 615.625 407.0156 Q615.0156 406.9062 614.6094 406.7188 L614.6094 405.6875 Q615.0469 405.875 615.6875 406.0312 Q616.3281 406.1875 617.0156 406.1875 Q617.9688 406.1875 618.4531 405.8125 Q618.9375 405.4375 618.9375 404.7969 Q618.9375 404.3906 618.75 404.1094 Q618.5781 403.8125 618.1406 403.5625 Q617.7031 403.3125 616.9219 403.0469 Q615.8438 402.6406 615.2812 402.0625 Q614.7188 401.4844 614.7188 400.5 Q614.7188 399.8125 615.0625 399.3281 Q615.4219 398.8438 616.0312 398.5781 Q616.6562 398.3125 617.4531 398.3125 Q618.1562 398.3125 618.75 398.4531 Q619.3438 398.5781 619.8125 398.7969 L619.4844 399.7188 Q619.0469 399.5312 618.5156 399.4062 Q618 399.2656 617.4375 399.2656 Q616.625 399.2656 616.2188 399.6094 Q615.8125 399.9375 615.8125 400.5156 Q615.8125 400.9375 615.9844 401.2344 Q616.1719 401.5156 616.5781 401.75 Q616.9844 401.9688 617.6875 402.2344 Q618.4375 402.5156 618.9531 402.8281 Q619.4844 403.1406 619.75 403.5938 Q620.0312 404.0312 620.0312 404.7031 ZM627.1349 407 L626.1036 404.3438 L622.6974 404.3438 L621.6818 407 L620.588 407 L623.9318 398.3906 L624.9005 398.3906 L628.2443 407 L627.1349 407 ZM624.8068 400.7969 Q624.7755 400.7031 624.6818 400.4531 Q624.6036 400.2031 624.5255 399.9375 Q624.4474 399.6562 624.4005 399.5156 Q624.3224 399.8906 624.213 400.25 Q624.1036 400.5938 624.0255 400.7969 L623.0568 403.3906 L625.7755 403.3906 L624.8068 400.7969 ZM631.8342 407 L628.7405 407 L628.7405 406.375 L629.7405 406.1406 L629.7405 399.2969 L628.7405 399.0625 L628.7405 398.4375 L631.8342 398.4375 L631.8342 399.0625 L630.8186 399.2969 L630.8186 406.1406 L631.8342 406.375 L631.8342 407 ZM639.7879 398.4375 L636.6004 407 L635.5692 407 L638.7567 398.4375 L639.7879 398.4375 ZM650.7157 403.9688 Q650.7157 404.8594 650.3407 405.5781 Q649.9813 406.2969 649.2469 406.7188 Q648.5126 407.125 647.3719 407.125 Q645.7782 407.125 644.9344 406.25 Q644.1063 405.375 644.1063 403.9531 L644.1063 398.4375 L645.1844 398.4375 L645.1844 403.9844 Q645.1844 405.0312 645.7469 405.6094 Q646.3094 406.1875 647.4344 406.1875 Q648.5907 406.1875 649.1063 405.5781 Q649.6376 404.9531 649.6376 403.9688 L649.6376 398.4375 L650.7157 398.4375 L650.7157 403.9688 ZM655.2378 398.4375 Q656.9097 398.4375 657.6753 399.0938 Q658.4409 399.75 658.4409 400.9531 Q658.4409 401.6562 658.1284 402.2812 Q657.8159 402.8906 657.0659 403.2812 Q656.3159 403.6562 655.0347 403.6562 L654.0503 403.6562 L654.0503 407 L652.9565 407 L652.9565 398.4375 L655.2378 398.4375 ZM655.144 399.3594 L654.0503 399.3594 L654.0503 402.7344 L654.9097 402.7344 Q656.1284 402.7344 656.7222 402.3438 Q657.3315 401.9531 657.3315 401 Q657.3315 400.1719 656.8003 399.7656 Q656.269 399.3594 655.144 399.3594 ZM665.0916 404.7031 Q665.0916 405.8438 664.2634 406.4844 Q663.4353 407.125 662.0291 407.125 Q661.3103 407.125 660.6853 407.0156 Q660.0759 406.9062 659.6697 406.7188 L659.6697 405.6875 Q660.1072 405.875 660.7478 406.0312 Q661.3884 406.1875 662.0759 406.1875 Q663.0291 406.1875 663.5134 405.8125 Q663.9978 405.4375 663.9978 404.7969 Q663.9978 404.3906 663.8103 404.1094 Q663.6384 403.8125 663.2009 403.5625 Q662.7634 403.3125 661.9822 403.0469 Q660.9041 402.6406 660.3416 402.0625 Q659.7791 401.4844 659.7791 400.5 Q659.7791 399.8125 660.1228 399.3281 Q660.4822 398.8438 661.0916 398.5781 Q661.7166 398.3125 662.5134 398.3125 Q663.2166 398.3125 663.8103 398.4531 Q664.4041 398.5781 664.8728 398.7969 L664.5447 399.7188 Q664.1072 399.5312 663.5759 399.4062 Q663.0603 399.2656 662.4978 399.2656 Q661.6853 399.2656 661.2791 399.6094 Q660.8728 399.9375 660.8728 400.5156 Q660.8728 400.9375 661.0447 401.2344 Q661.2322 401.5156 661.6384 401.75 Q662.0447 401.9688 662.7478 402.2344 Q663.4978 402.5156 664.0134 402.8281 Q664.5447 403.1406 664.8103 403.5938 Q665.0916 404.0312 665.0916 404.7031 Z"
                  clip-path="url(#clipPath14)" stroke="none"/>
        </g>
        <g text-rendering="optimizeLegibility" font-size="18px"
           font-family="'Inter'" stroke-linecap="butt">
            <path fill="none" d="M249 55 L310 55" clip-path="url(#clipPath15)"/>
            <path fill="none" d="M569 55 L630 55" clip-path="url(#clipPath16)"/>
            <path fill="none" d="M440 99 L440 210" clip-path="url(#clipPath17)"/>
            <path fill="none" d="M249 255 L310 255" clip-path="url(#clipPath18)"/>
            <path fill="none" d="M400 299 L400 390" clip-path="url(#clipPath19)"/>
            <path fill="white" d="M400 299 L406 309 L400 319 L394 309 L400 299"
                  clip-path="url(#clipPath20)" fill-rule="evenodd" stroke="none"/>
            <path fill="none" d="M400 299 L406 309 L400 319 L394 309 L400 299"
                  clip-path="url(#clipPath20)" fill-rule="evenodd"/>
            <path fill="none" d="M550 299 L550 390" clip-path="url(#clipPath21)"/>
            <path fill="white" d="M550 299 L556 309 L550 319 L544 309 L550 299"
                  clip-path="url(#clipPath22)" fill-rule="evenodd" stroke="none"/>
            <path fill="none" d="M550 299 L556 309 L550 319 L544 309 L550 299"
                  clip-path="url(#clipPath22)" fill-rule="evenodd"/>
        </g>
    </g>
</svg>
