<?xml version="1.0" encoding="UTF-8" standalone="no"?>
<!-- Created with Inkscape (http://www.inkscape.org/) -->

<svg
   version="1.1"
   id="svg1"
   width="817.27997"
   height="280"
   viewBox="0 0 817.27997 280"
   sodipodi:docname="Meta.svg"
   inkscape:version="1.4.4 (dcaf3e7d9e, 2026-05-05)"
   xmlns:inkscape="http://www.inkscape.org/namespaces/inkscape"
   xmlns:sodipodi="http://sodipodi.sourceforge.net/DTD/sodipodi-0.dtd"
   xmlns="http://www.w3.org/2000/svg"
   xmlns:svg="http://www.w3.org/2000/svg">
  <defs
     id="defs1" />
  <sodipodi:namedview
     id="namedview1"
     pagecolor="#ffffff"
     bordercolor="#000000"
     borderopacity="0.25"
     inkscape:showpageshadow="2"
     inkscape:pageopacity="0.0"
     inkscape:pagecheckerboard="0"
     inkscape:deskcolor="#d1d1d1"
     inkscape:zoom="1.0681774"
     inkscape:cx="408.63998"
     inkscape:cy="139.95802"
     inkscape:window-width="1536"
     inkscape:window-height="836"
     inkscape:window-x="0"
     inkscape:window-y="0"
     inkscape:window-maximized="1"
     inkscape:current-layer="g1">
    <inkscape:page
       x="0"
       y="0"
       inkscape:label="1"
       id="page1"
       width="817.27997"
       height="280"
       margin="0"
       bleed="0" />
  </sodipodi:namedview>
  <g
     id="g1"
     inkscape:groupmode="layer"
     inkscape:label="1">
    <path
       id="path1"
       d="M 105,130 V 74.120003"
       style="fill:none;stroke:#666666;stroke-width:1;stroke-linecap:butt;stroke-linejoin:miter;stroke-miterlimit:10;stroke-dasharray:none;stroke-opacity:1"
       transform="matrix(0.93521465,0,0,0.93521465,10.013738,-5.4169323)" />
    <path
       id="path2"
       d="m 105,61.119999 6.5,13.000004 h -13 z"
       style="fill:none;stroke:#666666;stroke-width:1;stroke-linecap:butt;stroke-linejoin:miter;stroke-miterlimit:10;stroke-dasharray:none;stroke-opacity:1"
       transform="matrix(0.93521465,0,0,0.93521465,10.013738,-5.4169323)" />
    <path
       id="path3"
       d="m 142.5,130 v -20 h 115 v 20"
       style="fill:none;stroke:#666666;stroke-width:1;stroke-linecap:butt;stroke-linejoin:miter;stroke-miterlimit:10;stroke-dasharray:none;stroke-opacity:1"
       transform="matrix(0.93521465,0,0,0.93521465,10.013738,-5.4169323)" />
    <path
       id="path4"
       d="m 169,106 h 65 v 13 h -65 z"
       style="fill:#ffffff;fill-opacity:1;fill-rule:nonzero;stroke:none"
       transform="matrix(0.93521465,0,0,0.93521465,9.5461305,-5.8845396)" />
    <g
       id="g4" />
    <text
       id="text4"
       xml:space="preserve"
       transform="matrix(0.93521465,0,0,0.93521465,167.68508,102.60036)"><tspan
         id="tspan4"
         style="font-variant:normal;font-weight:normal;font-size:11px;font-family:'Liberation Sans';writing-mode:lr-tb;fill:#000000;fill-opacity:1;fill-rule:nonzero;stroke:none"
         x="0"
         y="0">asociado con</tspan></text>
    <path
       id="path5"
       d="M 67.5,180 V 287.5 H 602.88"
       style="fill:none;stroke:#666666;stroke-width:1;stroke-linecap:butt;stroke-linejoin:miter;stroke-miterlimit:10;stroke-dasharray:none;stroke-opacity:1"
       transform="matrix(0.93521465,0,0,0.93521465,10.013738,-5.4169323)" />
    <path
       id="path6"
       d="m 611.88,287.5 -9,4.5 v -9 z"
       style="fill:#666666;fill-opacity:1;fill-rule:nonzero;stroke:#666666;stroke-width:1;stroke-linecap:butt;stroke-linejoin:miter;stroke-miterlimit:10;stroke-dasharray:none;stroke-opacity:1"
       transform="matrix(0.93521465,0,0,0.93521465,10.013738,-5.4169323)" />
    <path
       id="path7"
       d="m 94,283 h 37 v 13 H 94 Z"
       style="fill:#ffffff;fill-opacity:1;fill-rule:nonzero;stroke:none"
       transform="matrix(0.93521465,0,0,0.93521465,9.5461305,-5.8845396)" />
    <g
       id="g7" />
    <text
       id="text7"
       xml:space="preserve"
       transform="matrix(0.93521465,0,0,0.93521465,97.894689,268.13335)"><tspan
         id="tspan7"
         style="font-variant:normal;font-weight:normal;font-size:11px;font-family:'Liberation Sans';writing-mode:lr-tb;fill:#000000;fill-opacity:1;fill-rule:nonzero;stroke:none"
         x="0"
         y="0">dispara</tspan></text>
    <path
       id="path8"
       d="m 30,130 h 150 v 50 H 30 Z"
       style="fill:#d9d9d9;fill-opacity:1;fill-rule:nonzero;stroke:#666666;stroke-width:1;stroke-linecap:butt;stroke-linejoin:miter;stroke-miterlimit:10;stroke-dasharray:none;stroke-opacity:1"
       transform="matrix(0.93521465,0,0,0.93521465,10.013738,-5.4169323)" />
    <g
       id="g8" />
    <text
       id="text8"
       xml:space="preserve"
       transform="matrix(0.93521465,0,0,0.93521465,93.145552,142.81459)"><tspan
         id="tspan8"
         style="font-variant:normal;font-weight:normal;font-size:11px;font-family:'Liberation Sans';writing-mode:lr-tb;fill:#333333;fill-opacity:1;fill-rule:nonzero;stroke:none"
         x="0"
         y="0">Platea</tspan></text>
    <path
       id="path9"
       d="M 30,10 H 180 V 60 H 30 Z"
       style="fill:#ffffff;fill-opacity:1;fill-rule:nonzero;stroke:#666666;stroke-width:1;stroke-linecap:butt;stroke-linejoin:miter;stroke-miterlimit:10;stroke-dasharray:none;stroke-opacity:1"
       transform="matrix(0.93521465,0,0,0.93521465,10.013738,-5.4169323)" />
    <g
       id="g9" />
    <text
       id="text9"
       xml:space="preserve"
       transform="matrix(0.93521465,0,0,0.93521465,78.006765,30.588832)"><tspan
         id="tspan9"
         style="font-variant:normal;font-weight:normal;font-size:11px;font-family:'Liberation Sans';writing-mode:lr-tb;fill:#333333;fill-opacity:1;fill-rule:nonzero;stroke:none"
         x="0"
         y="0">Composición</tspan></text>
    <path
       id="path10"
       d="M 300,10 H 450 V 60 H 300 Z"
       style="fill:#ffffff;fill-opacity:1;fill-rule:nonzero;stroke:#666666;stroke-width:1;stroke-linecap:butt;stroke-linejoin:miter;stroke-miterlimit:10;stroke-dasharray:none;stroke-opacity:1"
       transform="matrix(0.93521465,0,0,0.93521465,10.013738,-5.4169323)" />
    <g
       id="g10" />
    <text
       id="text10"
       xml:space="preserve"
       transform="matrix(0.93521465,0,0,0.93521465,319.93511,30.588832)"><tspan
         id="tspan10"
         style="font-variant:normal;font-weight:normal;font-size:11px;font-family:'Liberation Sans';writing-mode:lr-tb;fill:#333333;fill-opacity:1;fill-rule:nonzero;stroke:none"
         x="0"
         y="0">Estructura Pasiva</tspan></text>
    <path
       id="path11"
       d="M 612.56,68.120003 613,130"
       style="fill:none;stroke:#666666;stroke-width:1;stroke-linecap:butt;stroke-linejoin:miter;stroke-miterlimit:10;stroke-dasharray:none;stroke-opacity:1"
       transform="matrix(0.93521465,0,0,0.93521465,10.013738,-5.4169323)" />
    <path
       id="path12"
       d="m 612.51001,61.119999 3.54999,6.969997 -7,0.05 3.45001,-7.02 z"
       style="fill:none;stroke:#666666;stroke-width:1;stroke-linecap:butt;stroke-linejoin:miter;stroke-miterlimit:10;stroke-dasharray:none;stroke-opacity:1"
       transform="matrix(0.93521465,0,0,0.93521465,10.013738,-5.4169323)" />
    <path
       id="path13"
       d="M 500,10 H 650 V 60 H 500 Z"
       style="fill:#ffffff;fill-opacity:1;fill-rule:nonzero;stroke:#666666;stroke-width:1;stroke-linecap:butt;stroke-linejoin:miter;stroke-miterlimit:10;stroke-dasharray:none;stroke-opacity:1"
       transform="matrix(0.93521465,0,0,0.93521465,10.013738,-5.4169323)" />
    <g
       id="g13" />
    <text
       id="text13"
       xml:space="preserve"
       transform="matrix(0.93521465,0,0,0.93521465,509.25763,30.588832)"><tspan
         id="tspan13"
         style="font-variant:normal;font-weight:normal;font-size:11px;font-family:'Liberation Sans';writing-mode:lr-tb;fill:#333333;fill-opacity:1;fill-rule:nonzero;stroke:none"
         x="0"
         y="0">Comportamiento</tspan></text>
    <path
       id="path14"
       d="M 700,10 H 850 V 60 H 700 Z"
       style="fill:#ffffff;fill-opacity:1;fill-rule:nonzero;stroke:#666666;stroke-width:1;stroke-linecap:butt;stroke-linejoin:miter;stroke-miterlimit:10;stroke-dasharray:none;stroke-opacity:1"
       transform="matrix(0.93521465,0,0,0.93521465,10.013738,-5.4169323)" />
    <g
       id="g14" />
    <text
       id="text14"
       xml:space="preserve"
       transform="matrix(0.93521465,0,0,0.93521465,718.32193,30.588832)"><tspan
         id="tspan14"
         style="font-variant:normal;font-weight:normal;font-size:11px;font-family:'Liberation Sans';writing-mode:lr-tb;fill:#333333;fill-opacity:1;fill-rule:nonzero;stroke:none"
         x="0"
         y="0">Evento</tspan></text>
    <path
       id="path15"
       d="m 295,130 v -30 h 80 V 74.120003"
       style="fill:none;stroke:#666666;stroke-width:1;stroke-linecap:butt;stroke-linejoin:miter;stroke-miterlimit:10;stroke-dasharray:none;stroke-opacity:1"
       transform="matrix(0.93521465,0,0,0.93521465,10.013738,-5.4169323)" />
    <path
       id="path16"
       d="m 375,61.119999 6.5,13.000004 h -13 z"
       style="fill:none;stroke:#666666;stroke-width:1;stroke-linecap:butt;stroke-linejoin:miter;stroke-miterlimit:10;stroke-dasharray:none;stroke-opacity:1"
       transform="matrix(0.93521465,0,0,0.93521465,10.013738,-5.4169323)" />
    <path
       id="path17"
       d="m 220,130 h 150 v 50 H 220 Z"
       style="fill:#d9d9d9;fill-opacity:1;fill-rule:nonzero;stroke:#666666;stroke-width:1;stroke-linecap:butt;stroke-linejoin:miter;stroke-miterlimit:10;stroke-dasharray:none;stroke-opacity:1"
       transform="matrix(0.93521465,0,0,0.93521465,10.013738,-5.4169323)" />
    <g
       id="g17" />
    <text
       id="text17"
       xml:space="preserve"
       transform="matrix(0.93521465,0,0,0.93521465,269.12665,142.81459)"><tspan
         id="tspan17"
         style="font-variant:normal;font-weight:normal;font-size:11px;font-family:'Liberation Sans';writing-mode:lr-tb;fill:#333333;fill-opacity:1;fill-rule:nonzero;stroke:none"
         x="0"
         y="0">Brecha</tspan></text>
    <path
       id="path18"
       d="M 455,130 V 100 H 375 V 74.120003"
       style="fill:none;stroke:#666666;stroke-width:1;stroke-linecap:butt;stroke-linejoin:miter;stroke-miterlimit:10;stroke-dasharray:none;stroke-opacity:1"
       transform="matrix(0.93521465,0,0,0.93521465,10.013738,-5.4169323)" />
    <path
       id="path19"
       d="m 375,61.119999 6.5,13.000004 h -13 z"
       style="fill:none;stroke:#666666;stroke-width:1;stroke-linecap:butt;stroke-linejoin:miter;stroke-miterlimit:10;stroke-dasharray:none;stroke-opacity:1"
       transform="matrix(0.93521465,0,0,0.93521465,10.013738,-5.4169323)" />
    <path
       id="path20"
       d="m 455,180 v 20 H 180 v -9.88"
       style="fill:none;stroke:#666666;stroke-width:1;stroke-linecap:butt;stroke-linejoin:miter;stroke-miterlimit:10;stroke-dasharray:none;stroke-opacity:1"
       transform="matrix(0.93521465,0,0,0.93521465,10.013738,-5.4169323)" />
    <path
       id="path21"
       d="m 180,181.12 4.5,9 h -9 z"
       style="fill:#666666;fill-opacity:1;fill-rule:nonzero;stroke:#666666;stroke-width:1;stroke-linecap:butt;stroke-linejoin:miter;stroke-miterlimit:10;stroke-dasharray:none;stroke-opacity:1"
       transform="matrix(0.93521465,0,0,0.93521465,10.013738,-5.4169323)" />
    <path
       id="path22"
       d="m 309,196 h 33 v 13 h -33 z"
       style="fill:#ffffff;fill-opacity:1;fill-rule:nonzero;stroke:none"
       transform="matrix(0.93521465,0,0,0.93521465,9.5461305,-5.8845396)" />
    <g
       id="g22" />
    <text
       id="text22"
       xml:space="preserve"
       transform="matrix(0.93521465,0,0,0.93521465,298.8051,186.76968)"><tspan
         id="tspan22"
         style="font-variant:normal;font-weight:normal;font-size:11px;font-family:'Liberation Sans';writing-mode:lr-tb;fill:#000000;fill-opacity:1;fill-rule:nonzero;stroke:none"
         x="0"
         y="0">realiza</tspan></text>
    <path
       id="path23"
       d="m 380,130 h 150 v 50 H 380 Z"
       style="fill:#d9d9d9;fill-opacity:1;fill-rule:nonzero;stroke:#666666;stroke-width:1;stroke-linecap:butt;stroke-linejoin:miter;stroke-miterlimit:10;stroke-dasharray:none;stroke-opacity:1"
       transform="matrix(0.93521465,0,0,0.93521465,10.013738,-5.4169323)" />
    <g
       id="g23" />
    <text
       id="text23"
       xml:space="preserve"
       transform="matrix(0.93521465,0,0,0.93521465,410.18332,142.81459)"><tspan
         id="tspan23"
         style="font-variant:normal;font-weight:normal;font-size:11px;font-family:'Liberation Sans';writing-mode:lr-tb;fill:#333333;fill-opacity:1;fill-rule:nonzero;stroke:none"
         x="0"
         y="0">Entregable</tspan></text>
    <path
       id="path24"
       d="m 725.5,180 v 59.88"
       style="fill:none;stroke:#666666;stroke-width:1;stroke-linecap:butt;stroke-linejoin:miter;stroke-miterlimit:10;stroke-dasharray:none;stroke-opacity:1"
       transform="matrix(0.93521465,0,0,0.93521465,10.013738,-5.4169323)" />
    <path
       id="path25"
       d="m 725.5,248.88 -4.5,-9 h 9 z"
       style="fill:#666666;fill-opacity:1;fill-rule:nonzero;stroke:#666666;stroke-width:1;stroke-linecap:butt;stroke-linejoin:miter;stroke-miterlimit:10;stroke-dasharray:none;stroke-opacity:1"
       transform="matrix(0.93521465,0,0,0.93521465,10.013738,-5.4169323)" />
    <path
       id="path26"
       d="M 613,155 H 540.12"
       style="fill:none;stroke:#666666;stroke-width:1;stroke-linecap:butt;stroke-linejoin:miter;stroke-miterlimit:10;stroke-dasharray:none;stroke-opacity:1"
       transform="matrix(0.93521465,0,0,0.93521465,10.013738,-5.4169323)" />
    <path
       id="path27"
       d="m 531.12,155 9,-4.5 v 9 z"
       style="fill:#666666;fill-opacity:1;fill-rule:nonzero;stroke:#666666;stroke-width:1;stroke-linecap:butt;stroke-linejoin:miter;stroke-miterlimit:10;stroke-dasharray:none;stroke-opacity:1"
       transform="matrix(0.93521465,0,0,0.93521465,10.013738,-5.4169323)" />
    <path
       id="path28"
       d="m 572,151 h 3 v 13 h -3 z"
       style="fill:#ffffff;fill-opacity:1;fill-rule:nonzero;stroke:none"
       transform="matrix(0.93521465,0,0,0.93521465,9.5461305,-5.8845396)" />
    <g
       id="g28" />
    <text
       id="text28"
       xml:space="preserve"
       transform="matrix(0.93521465,0,0,0.93521465,544.18205,144.68502)"><tspan
         id="tspan28"
         style="font-variant:normal;font-weight:normal;font-size:11px;font-family:'Liberation Sans';writing-mode:lr-tb;fill:#000000;fill-opacity:1;fill-rule:nonzero;stroke:none"
         x="0"
         y="0">r</tspan></text>
    <path
       id="path29"
       d="m 561,149 h 33 v 13 h -33 z"
       style="fill:#ffffff;fill-opacity:1;fill-rule:nonzero;stroke:none"
       transform="matrix(0.93521465,0,0,0.93521465,9.5461305,-5.8845396)" />
    <g
       id="g29" />
    <text
       id="text29"
       xml:space="preserve"
       transform="matrix(0.93521465,0,0,0.93521465,534.4792,142.81459)"><tspan
         id="tspan29"
         style="font-variant:normal;font-weight:normal;font-size:11px;font-family:'Liberation Sans';writing-mode:lr-tb;fill:#000000;fill-opacity:1;fill-rule:nonzero;stroke:none"
         x="0"
         y="0">realiza</tspan></text>
    <path
       id="path30"
       d="m 613,130 h 150 v 50 H 613 Z"
       style="fill:#d9d9d9;fill-opacity:1;fill-rule:nonzero;stroke:#666666;stroke-width:1;stroke-linecap:butt;stroke-linejoin:miter;stroke-miterlimit:10;stroke-dasharray:none;stroke-opacity:1"
       transform="matrix(0.93521465,0,0,0.93521465,10.013738,-5.4169323)" />
    <g
       id="g30" />
    <text
       id="text30"
       xml:space="preserve"
       transform="matrix(0.93521465,0,0,0.93521465,608.0689,142.81459)"><tspan
         id="tspan30"
         style="font-variant:normal;font-weight:normal;font-size:11px;font-family:'Liberation Sans';writing-mode:lr-tb;fill:#333333;fill-opacity:1;fill-rule:nonzero;stroke:none"
         x="0"
         dx="0 0 0 0 0 0 0 0 0 0 0 -0.19873026 -0.40820304"
         y="0">Paquete de Trabajo</tspan></text>
    <path
       id="path31"
       d="m 763,275 h 49.5 V 74.120003"
       style="fill:none;stroke:#666666;stroke-width:1;stroke-linecap:butt;stroke-linejoin:miter;stroke-miterlimit:10;stroke-dasharray:none;stroke-opacity:1"
       transform="matrix(0.93521465,0,0,0.93521465,10.013738,-5.4169323)" />
    <path
       id="path32"
       d="M 812.5,61.119999 819,74.120003 H 806 Z"
       style="fill:none;stroke:#666666;stroke-width:1;stroke-linecap:butt;stroke-linejoin:miter;stroke-miterlimit:10;stroke-dasharray:none;stroke-opacity:1"
       transform="matrix(0.93521465,0,0,0.93521465,10.013738,-5.4169323)" />
    <path
       id="path33"
       d="M 650.5,250 V 190.12"
       style="fill:none;stroke:#666666;stroke-width:1;stroke-linecap:butt;stroke-linejoin:miter;stroke-miterlimit:10;stroke-dasharray:none;stroke-opacity:1"
       transform="matrix(0.93521465,0,0,0.93521465,10.013738,-5.4169323)" />
    <path
       id="path34"
       d="m 650.5,181.12 4.5,9 h -9 z"
       style="fill:#666666;fill-opacity:1;fill-rule:nonzero;stroke:#666666;stroke-width:1;stroke-linecap:butt;stroke-linejoin:miter;stroke-miterlimit:10;stroke-dasharray:none;stroke-opacity:1"
       transform="matrix(0.93521465,0,0,0.93521465,10.013738,-5.4169323)" />
    <path
       id="path35"
       d="m 653,210 h 71 v 13 h -71 z"
       style="fill:#ffffff;fill-opacity:1;fill-rule:nonzero;stroke:none"
       transform="matrix(0.93521465,0,0,0.93521465,9.5461305,-5.8845396)" />
    <g
       id="g35" />
    <text
       id="text35"
       xml:space="preserve"
       transform="matrix(0.93521465,0,0,0.93521465,619.99288,199.86268)"><tspan
         id="tspan35"
         style="font-variant:normal;font-weight:normal;font-size:11px;font-family:'Liberation Sans';writing-mode:lr-tb;fill:#000000;fill-opacity:1;fill-rule:nonzero;stroke:none"
         x="0"
         y="0">dispara/fluye a</tspan></text>
    <path
       id="path36"
       d="M 613,262.5 H 142.5 v -72.38"
       style="fill:none;stroke:#666666;stroke-width:1;stroke-linecap:butt;stroke-linejoin:miter;stroke-miterlimit:10;stroke-dasharray:none;stroke-opacity:1"
       transform="matrix(0.93521465,0,0,0.93521465,10.013738,-5.4169323)" />
    <path
       id="path37"
       d="m 142.5,181.12 4.5,9 h -9 z"
       style="fill:#666666;fill-opacity:1;fill-rule:nonzero;stroke:#666666;stroke-width:1;stroke-linecap:butt;stroke-linejoin:miter;stroke-miterlimit:10;stroke-dasharray:none;stroke-opacity:1"
       transform="matrix(0.93521465,0,0,0.93521465,10.013738,-5.4169323)" />
    <path
       id="path38"
       d="m 463,256 h 37 v 13 h -37 z"
       style="fill:#ffffff;fill-opacity:1;fill-rule:nonzero;stroke:none"
       transform="matrix(0.93521465,0,0,0.93521465,9.5461305,-5.8845396)" />
    <g
       id="g38" />
    <text
       id="text38"
       xml:space="preserve"
       transform="matrix(0.93521465,0,0,0.93521465,442.98889,242.88256)"><tspan
         id="tspan38"
         style="font-variant:normal;font-weight:normal;font-size:11px;font-family:'Liberation Sans';writing-mode:lr-tb;fill:#000000;fill-opacity:1;fill-rule:nonzero;stroke:none"
         x="0"
         y="0">dispara</tspan></text>
    <path
       id="path39"
       d="m 613,250 h 150 v 50 H 613 Z"
       style="fill:#d9d9d9;fill-opacity:1;fill-rule:nonzero;stroke:#666666;stroke-width:1;stroke-linecap:butt;stroke-linejoin:miter;stroke-miterlimit:10;stroke-dasharray:none;stroke-opacity:1"
       transform="matrix(0.93521465,0,0,0.93521465,10.013738,-5.4169323)" />
    <g
       id="g39" />
    <text
       id="text39"
       xml:space="preserve"
       transform="matrix(0.93521465,0,0,0.93521465,629.79802,248.49384)"><tspan
         id="tspan39"
         style="font-variant:normal;font-weight:normal;font-size:11px;font-family:'Liberation Sans';writing-mode:lr-tb;fill:#333333;fill-opacity:1;fill-rule:nonzero;stroke:none"
         x="0"
         y="0">Evento de</tspan></text>
    <g
       id="g40" />
    <text
       id="text40"
       xml:space="preserve"
       transform="matrix(0.93521465,0,0,0.93521465,616.66118,261.58685)"><tspan
         id="tspan40"
         style="font-variant:normal;font-weight:normal;font-size:11px;font-family:'Liberation Sans';writing-mode:lr-tb;fill:#333333;fill-opacity:1;fill-rule:nonzero;stroke:none"
         x="0"
         y="0">Implementación</tspan></text>
    <path
       id="path40"
       d="M 30,155 H 10 v -45 h 57.5 v 9.88"
       style="fill:none;stroke:#666666;stroke-width:1;stroke-linecap:butt;stroke-linejoin:miter;stroke-miterlimit:10;stroke-dasharray:none;stroke-opacity:1"
       transform="matrix(0.93521465,0,0,0.93521465,10.013738,-5.4169323)" />
    <path
       id="path41"
       d="m 67.5,128.88 -4.5,-9 h 9 z"
       style="fill:#666666;fill-opacity:1;fill-rule:nonzero;stroke:#666666;stroke-width:1;stroke-linecap:butt;stroke-linejoin:miter;stroke-miterlimit:10;stroke-dasharray:none;stroke-opacity:1"
       transform="matrix(0.93521465,0,0,0.93521465,10.013738,-5.4169323)" />
    <path
       id="path42"
       d="m 19,106 h 37 v 13 H 19 Z"
       style="fill:#ffffff;fill-opacity:1;fill-rule:nonzero;stroke:none"
       transform="matrix(0.93521465,0,0,0.93521465,9.5461305,-5.8845396)" />
    <g
       id="g42" />
    <text
       id="text42"
       xml:space="preserve"
       transform="matrix(0.93521465,0,0,0.93521465,27.753591,102.60036)"><tspan
         id="tspan42"
         style="font-variant:normal;font-weight:normal;font-size:11px;font-family:'Liberation Sans';writing-mode:lr-tb;fill:#000000;fill-opacity:1;fill-rule:nonzero;stroke:none"
         x="0"
         y="0">dispara</tspan></text>
    <path
       id="path43"
       d="M 650.5,130 V 110 H 763 v 9.88"
       style="fill:none;stroke:#666666;stroke-width:1;stroke-linecap:butt;stroke-linejoin:miter;stroke-miterlimit:10;stroke-dasharray:none;stroke-opacity:1"
       transform="matrix(0.93521465,0,0,0.93521465,10.013738,-5.4169323)" />
    <path
       id="path44"
       d="m 763,128.88 -4.5,-9 h 9 z"
       style="fill:#666666;fill-opacity:1;fill-rule:nonzero;stroke:#666666;stroke-width:1;stroke-linecap:butt;stroke-linejoin:miter;stroke-miterlimit:10;stroke-dasharray:none;stroke-opacity:1"
       transform="matrix(0.93521465,0,0,0.93521465,10.013738,-5.4169323)" />
    <path
       id="path45"
       d="m 671,105 h 71 v 13 h -71 z"
       style="fill:#ffffff;fill-opacity:1;fill-rule:nonzero;stroke:none"
       transform="matrix(0.93521465,0,0,0.93521465,9.5461305,-5.8845396)" />
    <g
       id="g45" />
    <text
       id="text45"
       xml:space="preserve"
       transform="matrix(0.93521465,0,0,0.93521465,636.82675,101.66515)"><tspan
         id="tspan45"
         style="font-variant:normal;font-weight:normal;font-size:11px;font-family:'Liberation Sans';writing-mode:lr-tb;fill:#000000;fill-opacity:1;fill-rule:nonzero;stroke:none"
         x="0"
         y="0">dispara/fluye a</tspan></text>
  </g>
</svg>
