<?xml version="1.0"?>


<svg fill-opacity="1" xmlns:xlink="http://www.w3.org/1999/xlink"
     color-rendering="auto" color-interpolation="auto" text-rendering="auto"
     stroke="black" stroke-linecap="square" width="537" stroke-miterlimit="10"
     shape-rendering="auto" stroke-opacity="1" fill="black"
     stroke-dasharray="none" font-weight="normal" stroke-width="1"
     viewBox="0 0 537 93" height="93" xmlns="http://www.w3.org/2000/svg"
     font-family="'Dialog'" font-style="normal" stroke-linejoin="miter"
     font-size="12px" stroke-dashoffset="0" image-rendering="auto">
    <!--Generated by Archi with Batik SVG Generator-->
    <defs id="genericDefs"/>
    <g>
        <defs id="defs1">
            <clipPath clipPathUnits="userSpaceOnUse" id="clipPath1">
                <path d="M9 9 L144 9 L144 36 L9 36 L9 9 Z"/>
            </clipPath>
            <clipPath clipPathUnits="userSpaceOnUse" id="clipPath2">
                <path d="M30 13 L123 13 L123 32 L30 32 L30 13 Z"/>
            </clipPath>
            <clipPath clipPathUnits="userSpaceOnUse" id="clipPath3">
                <path d="M81 57 L216 57 L216 84 L81 84 L81 57 Z"/>
            </clipPath>
            <clipPath clipPathUnits="userSpaceOnUse" id="clipPath4">
                <path d="M104 61 L193 61 L193 80 L104 80 L104 61 Z"/>
            </clipPath>
            <clipPath clipPathUnits="userSpaceOnUse" id="clipPath5">
                <path d="M309 59 L428 59 L428 82 L309 82 L309 59 Z"/>
            </clipPath>
            <clipPath clipPathUnits="userSpaceOnUse" id="clipPath6">
                <path d="M337 63 L400 63 L400 78 L337 78 L337 63 Z"/>
            </clipPath>
            <clipPath clipPathUnits="userSpaceOnUse" id="clipPath7">
                <path d="M189 9 L336 9 L336 36 L189 36 L189 9 Z"/>
            </clipPath>
            <clipPath clipPathUnits="userSpaceOnUse" id="clipPath8">
                <path d="M216 13 L309 13 L309 32 L216 32 L216 13 Z"/>
            </clipPath>
            <clipPath clipPathUnits="userSpaceOnUse" id="clipPath9">
                <path d="M381 9 L528 9 L528 36 L381 36 L381 9 Z"/>
            </clipPath>
            <clipPath clipPathUnits="userSpaceOnUse" id="clipPath10">
                <path d="M408 13 L501 13 L501 32 L408 32 L408 13 Z"/>
            </clipPath>
            <clipPath clipPathUnits="userSpaceOnUse" id="clipPath11">
                <path d="M101 24 L124 24 L124 70 L101 70 L101 24 Z"/>
            </clipPath>
            <clipPath clipPathUnits="userSpaceOnUse" id="clipPath12">
                <path d="M191 24 L214 24 L214 70 L191 70 L191 24 Z"/>
            </clipPath>
            <clipPath clipPathUnits="userSpaceOnUse" id="clipPath13">
                <path d="M311 24 L334 24 L334 72 L311 72 L311 24 Z"/>
            </clipPath>
            <clipPath clipPathUnits="userSpaceOnUse" id="clipPath14">
                <path d="M393 24 L416 24 L416 72 L393 72 L393 24 Z"/>
            </clipPath>
        </defs>
        <g fill="rgb(255,224,224)" text-rendering="optimizeLegibility"
           stroke-miterlimit="0" stroke-width="0" stroke="rgb(255,224,224)"
           stroke-linejoin="round">
            <rect x="10" width="133" height="25" y="10"
                  clip-path="url(#clipPath1)" stroke="none"/>
        </g>
        <g fill="rgb(178,156,156)" text-rendering="optimizeLegibility"
           stroke-linecap="butt" stroke="rgb(178,156,156)">
            <rect fill="none" x="10" width="133" height="25" y="10"
                  clip-path="url(#clipPath1)"/>
            <line clip-path="url(#clipPath1)" fill="none" x1="123" x2="135"
                  y1="23" y2="23" stroke="black" stroke-width="2"/>
            <line clip-path="url(#clipPath1)" fill="none" x1="125" x2="137"
                  y1="20" y2="20" stroke="black" stroke-width="2"/>
            <line clip-path="url(#clipPath1)" fill="none" x1="127" x2="139"
                  y1="17" y2="17" stroke="black" stroke-width="2"/>
            <path fill="black"
                  d="M39.6406 22.7031 Q39.6406 24.0312 39.1875 25.0312 Q38.7344 26.0156 37.8594 26.5781 Q36.9844 27.125 35.6875 27.125 Q34.3594 27.125 33.4688 26.5781 Q32.5938 26.0156 32.1562 25.0312 Q31.7344 24.0312 31.7344 22.6875 Q31.7344 21.375 32.1562 20.3906 Q32.5938 19.4062 33.4688 18.8594 Q34.3594 18.2969 35.7031 18.2969 Q36.9844 18.2969 37.8594 18.8438 Q38.7344 19.3906 39.1875 20.3906 Q39.6406 21.375 39.6406 22.7031 ZM32.875 22.7031 Q32.875 24.3281 33.5469 25.2656 Q34.2344 26.1875 35.6875 26.1875 Q37.1562 26.1875 37.8281 25.2656 Q38.5 24.3281 38.5 22.7031 Q38.5 21.0781 37.8281 20.1719 Q37.1562 19.25 35.7031 19.25 Q34.25 19.25 33.5625 20.1719 Q32.875 21.0781 32.875 22.7031 ZM48.4502 20.4531 Q49.5439 20.4531 50.0752 21.0156 Q50.6221 21.5625 50.6221 22.8125 L50.6221 27 L49.5752 27 L49.5752 22.8594 Q49.5752 21.3438 48.2627 21.3438 Q47.3252 21.3438 46.9189 21.8906 Q46.5283 22.4219 46.5283 23.4531 L46.5283 27 L45.4814 27 L45.4814 22.8594 Q45.4814 21.3438 44.1689 21.3438 Q43.1846 21.3438 42.8096 21.9375 Q42.4502 22.5312 42.4502 23.6562 L42.4502 27 L41.3877 27 L41.3877 20.5625 L42.2471 20.5625 L42.4033 21.4375 L42.4658 21.4375 Q42.7627 20.9375 43.2627 20.7031 Q43.7783 20.4531 44.3564 20.4531 Q45.8721 20.4531 46.3252 21.5312 L46.3877 21.5312 Q46.7158 20.9688 47.2627 20.7188 Q47.8252 20.4531 48.4502 20.4531 ZM55.7015 20.4531 Q56.8578 20.4531 57.4359 21.0156 Q58.0296 21.5625 58.0296 22.8125 L58.0296 27 L56.9984 27 L56.9984 22.8906 Q56.9984 21.3438 55.5453 21.3438 Q54.4828 21.3438 54.0765 21.9375 Q53.6703 22.5312 53.6703 23.6562 L53.6703 27 L52.6078 27 L52.6078 20.5625 L53.4671 20.5625 L53.6234 21.4375 L53.6859 21.4375 Q53.9984 20.9375 54.5453 20.7031 Q55.0921 20.4531 55.7015 20.4531 ZM60.5707 18.1562 Q60.8051 18.1562 60.9926 18.3281 Q61.1801 18.4844 61.1801 18.8281 Q61.1801 19.1562 60.9926 19.3281 Q60.8051 19.5 60.5707 19.5 Q60.3051 19.5 60.1176 19.3281 Q59.9457 19.1562 59.9457 18.8281 Q59.9457 18.4844 60.1176 18.3281 Q60.3051 18.1562 60.5707 18.1562 ZM61.0863 20.5625 L61.0863 27 L60.0238 27 L60.0238 20.5625 L61.0863 20.5625 ZM68.1355 24.7031 Q68.1355 25.8438 67.3073 26.4844 Q66.4792 27.125 65.073 27.125 Q64.3542 27.125 63.7292 27.0156 Q63.1198 26.9062 62.7136 26.7188 L62.7136 25.6875 Q63.1511 25.875 63.7917 26.0312 Q64.4323 26.1875 65.1198 26.1875 Q66.073 26.1875 66.5573 25.8125 Q67.0417 25.4375 67.0417 24.7969 Q67.0417 24.3906 66.8542 24.1094 Q66.6823 23.8125 66.2448 23.5625 Q65.8073 23.3125 65.0261 23.0469 Q63.948 22.6406 63.3855 22.0625 Q62.823 21.4844 62.823 20.5 Q62.823 19.8125 63.1667 19.3281 Q63.5261 18.8438 64.1355 18.5781 Q64.7605 18.3125 65.5573 18.3125 Q66.2605 18.3125 66.8542 18.4531 Q67.448 18.5781 67.9167 18.7969 L67.5886 19.7188 Q67.1511 19.5312 66.6198 19.4062 Q66.1042 19.2656 65.5417 19.2656 Q64.7292 19.2656 64.323 19.6094 Q63.9167 19.9375 63.9167 20.5156 Q63.9167 20.9375 64.0886 21.2344 Q64.2761 21.5156 64.6823 21.75 Q65.0886 21.9688 65.7917 22.2344 Q66.5417 22.5156 67.0573 22.8281 Q67.5886 23.1406 67.8542 23.5938 Q68.1355 24.0312 68.1355 24.7031 ZM71.8641 26.25 Q72.0985 26.25 72.3485 26.2188 Q72.5985 26.1719 72.7548 26.125 L72.7548 26.9219 Q72.5985 27.0156 72.286 27.0625 Q71.9735 27.125 71.6766 27.125 Q71.1766 27.125 70.7391 26.9531 Q70.3173 26.7656 70.0516 26.3438 Q69.8016 25.9062 69.8016 25.125 L69.8016 21.3906 L68.8798 21.3906 L68.8798 20.875 L69.8016 20.4531 L70.2235 19.0938 L70.8485 19.0938 L70.8485 20.5625 L72.7079 20.5625 L72.7079 21.3906 L70.8485 21.3906 L70.8485 25.1094 Q70.8485 25.6875 71.1298 25.9688 Q71.411 26.25 71.8641 26.25 ZM77.0399 20.4531 Q77.2274 20.4531 77.4305 20.4688 Q77.6493 20.4844 77.8055 20.5156 L77.6649 21.4844 Q77.5087 21.4531 77.3212 21.4375 Q77.1337 21.4062 76.9774 21.4062 Q76.4774 21.4062 76.0399 21.6875 Q75.618 21.9531 75.3524 22.4375 Q75.1024 22.9219 75.1024 23.5625 L75.1024 27 L74.0399 27 L74.0399 20.5625 L74.9149 20.5625 L75.0243 21.75 L75.0712 21.75 Q75.3837 21.2188 75.868 20.8438 Q76.368 20.4531 77.0399 20.4531 ZM81.4803 20.4531 Q82.3085 20.4531 82.9022 20.8125 Q83.496 21.1719 83.8085 21.8281 Q84.1366 22.4688 84.1366 23.3594 L84.1366 23.9844 L79.7303 23.9844 Q79.7616 25.0781 80.2928 25.6562 Q80.8241 26.2188 81.7772 26.2188 Q82.4022 26.2188 82.871 26.1094 Q83.3397 25.9844 83.8553 25.7812 L83.8553 26.7031 Q83.3553 26.9219 82.871 27.0156 Q82.4022 27.125 81.7303 27.125 Q80.8241 27.125 80.121 26.75 Q79.4178 26.375 79.0272 25.6406 Q78.6366 24.9062 78.6366 23.8281 Q78.6366 22.7812 78.996 22.0312 Q79.3553 21.2656 79.996 20.8594 Q80.6366 20.4531 81.4803 20.4531 ZM81.4647 21.3125 Q80.7147 21.3125 80.2772 21.7969 Q79.8397 22.2812 79.7616 23.1406 L83.0272 23.1406 Q83.0272 22.3281 82.6522 21.8281 Q82.2772 21.3125 81.4647 21.3125 ZM88.2015 20.4531 Q89.3734 20.4531 89.9359 20.9688 Q90.514 21.4844 90.514 22.625 L90.514 27 L89.7328 27 L89.5296 26.0938 L89.4828 26.0938 Q89.0609 26.6094 88.5921 26.875 Q88.139 27.125 87.3265 27.125 Q86.4515 27.125 85.8734 26.6719 Q85.2953 26.2031 85.2953 25.2188 Q85.2953 24.25 86.0453 23.7344 Q86.8109 23.2031 88.389 23.1562 L89.4828 23.125 L89.4828 22.7344 Q89.4828 21.9375 89.1234 21.625 Q88.7796 21.3125 88.139 21.3125 Q87.639 21.3125 87.1859 21.4688 Q86.7328 21.6094 86.3265 21.7969 L86.014 21.0156 Q86.4359 20.7812 86.9984 20.625 Q87.5765 20.4531 88.2015 20.4531 ZM88.514 23.8906 Q87.3109 23.9375 86.8421 24.2812 Q86.389 24.6094 86.389 25.2188 Q86.389 25.7656 86.7171 26.0156 Q87.0453 26.2656 87.5609 26.2656 Q88.389 26.2656 88.9203 25.8281 Q89.4671 25.375 89.4671 24.4375 L89.4671 23.8594 L88.514 23.8906 ZM99.5585 20.4531 Q100.6523 20.4531 101.1835 21.0156 Q101.7304 21.5625 101.7304 22.8125 L101.7304 27 L100.6835 27 L100.6835 22.8594 Q100.6835 21.3438 99.371 21.3438 Q98.4335 21.3438 98.0273 21.8906 Q97.6367 22.4219 97.6367 23.4531 L97.6367 27 L96.5898 27 L96.5898 22.8594 Q96.5898 21.3438 95.2773 21.3438 Q94.2929 21.3438 93.9179 21.9375 Q93.5585 22.5312 93.5585 23.6562 L93.5585 27 L92.496 27 L92.496 20.5625 L93.3554 20.5625 L93.5117 21.4375 L93.5742 21.4375 Q93.871 20.9375 94.371 20.7031 Q94.8867 20.4531 95.4648 20.4531 Q96.9804 20.4531 97.4335 21.5312 L97.496 21.5312 Q97.8242 20.9688 98.371 20.7188 Q98.9335 20.4531 99.5585 20.4531 ZM110.0862 27 L109.0549 27 L109.0549 21.0156 Q109.0549 20.5 109.0549 20.1875 Q109.0705 19.875 109.1018 19.5312 Q108.8987 19.7344 108.7424 19.8594 Q108.5862 19.9844 108.3518 20.2031 L107.4455 20.9375 L106.883 20.2344 L109.2112 18.4375 L110.0862 18.4375 L110.0862 27 ZM113.5439 26.3594 Q113.5439 25.9062 113.7627 25.7344 Q113.9814 25.5469 114.2783 25.5469 Q114.5908 25.5469 114.8096 25.7344 Q115.0439 25.9062 115.0439 26.3594 Q115.0439 26.7812 114.8096 26.9844 Q114.5908 27.1719 114.2783 27.1719 Q113.9814 27.1719 113.7627 26.9844 Q113.5439 26.7812 113.5439 26.3594 ZM122.1818 22.7031 Q122.1818 24.0781 121.885 25.0781 Q121.6037 26.0625 120.9787 26.5938 Q120.3537 27.125 119.3225 27.125 Q117.8693 27.125 117.1818 25.9531 Q116.4943 24.7812 116.4943 22.7031 Q116.4943 21.3125 116.7756 20.3281 Q117.0568 19.3438 117.6818 18.8281 Q118.3068 18.2969 119.3225 18.2969 Q120.76 18.2969 121.4631 19.4531 Q122.1818 20.6094 122.1818 22.7031 ZM117.5412 22.7031 Q117.5412 24.4688 117.9475 25.3438 Q118.3537 26.2188 119.3225 26.2188 Q120.2756 26.2188 120.6818 25.3594 Q121.1037 24.4844 121.1037 22.7031 Q121.1037 20.9531 120.6818 20.0781 Q120.2756 19.2031 119.3225 19.2031 Q118.3537 19.2031 117.9475 20.0781 Q117.5412 20.9531 117.5412 22.7031 Z"
                  stroke-width="2" clip-path="url(#clipPath2)" stroke="none"/>
            <rect x="82" y="58" clip-path="url(#clipPath3)"
                  fill="rgb(255,224,224)" width="133" height="25" stroke="none"
                  stroke-width="2"/>
            <rect fill="none" x="82" width="133" height="25" y="58"
                  clip-path="url(#clipPath3)"/>
            <circle fill="none" r="6.5" clip-path="url(#clipPath3)" cx="203.5"
                    cy="70.5" stroke="black"/>
            <line clip-path="url(#clipPath3)" fill="none" x1="195" x2="212"
                  y1="69" y2="69" stroke="black"/>
            <line clip-path="url(#clipPath3)" fill="none" x1="195" x2="212"
                  y1="72" y2="72" stroke="black"/>
            <path fill="black"
                  d="M111.5469 75 L110.5156 72.3438 L107.1094 72.3438 L106.0938 75 L105 75 L108.3438 66.3906 L109.3125 66.3906 L112.6562 75 L111.5469 75 ZM109.2188 68.7969 Q109.1875 68.7031 109.0938 68.4531 Q109.0156 68.2031 108.9375 67.9375 Q108.8594 67.6562 108.8125 67.5156 Q108.7344 67.8906 108.625 68.25 Q108.5156 68.5938 108.4375 68.7969 L107.4688 71.3906 L110.1875 71.3906 L109.2188 68.7969 ZM119.0587 68.5625 L119.0587 75 L118.1993 75 L118.0431 74.1406 L117.9962 74.1406 Q117.6837 74.6562 117.1212 74.8906 Q116.5743 75.125 115.9493 75.125 Q114.7931 75.125 114.1993 74.5625 Q113.6212 74 113.6212 72.7812 L113.6212 68.5625 L114.6837 68.5625 L114.6837 72.7031 Q114.6837 74.25 116.1056 74.25 Q117.1837 74.25 117.5899 73.6562 Q118.0118 73.0469 118.0118 71.9219 L118.0118 68.5625 L119.0587 68.5625 ZM123.256 74.25 Q123.4904 74.25 123.7404 74.2188 Q123.9904 74.1719 124.1466 74.125 L124.1466 74.9219 Q123.9904 75.0156 123.6779 75.0625 Q123.3654 75.125 123.0685 75.125 Q122.5685 75.125 122.131 74.9531 Q121.7091 74.7656 121.4435 74.3438 Q121.1935 73.9062 121.1935 73.125 L121.1935 69.3906 L120.2716 69.3906 L120.2716 68.875 L121.1935 68.4531 L121.6154 67.0938 L122.2404 67.0938 L122.2404 68.5625 L124.0997 68.5625 L124.0997 69.3906 L122.2404 69.3906 L122.2404 73.1094 Q122.2404 73.6875 122.5216 73.9688 Q122.8029 74.25 123.256 74.25 ZM131.0255 71.7656 Q131.0255 73.375 130.213 74.25 Q129.4005 75.125 128.0255 75.125 Q127.1818 75.125 126.5099 74.7344 Q125.838 74.3438 125.4474 73.5938 Q125.0724 72.8438 125.0724 71.7656 Q125.0724 70.1719 125.8693 69.3125 Q126.6818 68.4531 128.0568 68.4531 Q128.9474 68.4531 129.6036 68.8438 Q130.2755 69.2344 130.6505 69.9688 Q131.0255 70.7031 131.0255 71.7656 ZM126.1661 71.7656 Q126.1661 72.9062 126.6193 73.5781 Q127.0724 74.25 128.0568 74.25 Q129.0255 74.25 129.4786 73.5781 Q129.9318 72.9062 129.9318 71.7656 Q129.9318 70.625 129.4786 69.9844 Q129.0255 69.3438 128.0411 69.3438 Q127.0568 69.3438 126.6036 69.9844 Q126.1661 70.625 126.1661 71.7656 ZM139.7543 68.4531 Q140.8481 68.4531 141.3793 69.0156 Q141.9262 69.5625 141.9262 70.8125 L141.9262 75 L140.8793 75 L140.8793 70.8594 Q140.8793 69.3438 139.5668 69.3438 Q138.6293 69.3438 138.2231 69.8906 Q137.8324 70.4219 137.8324 71.4531 L137.8324 75 L136.7856 75 L136.7856 70.8594 Q136.7856 69.3438 135.4731 69.3438 Q134.4887 69.3438 134.1137 69.9375 Q133.7543 70.5312 133.7543 71.6562 L133.7543 75 L132.6918 75 L132.6918 68.5625 L133.5512 68.5625 L133.7074 69.4375 L133.7699 69.4375 Q134.0668 68.9375 134.5668 68.7031 Q135.0824 68.4531 135.6606 68.4531 Q137.1762 68.4531 137.6293 69.5312 L137.6918 69.5312 Q138.0199 68.9688 138.5668 68.7188 Q139.1293 68.4531 139.7543 68.4531 ZM146.3494 68.4531 Q147.5213 68.4531 148.0838 68.9688 Q148.6619 69.4844 148.6619 70.625 L148.6619 75 L147.8806 75 L147.6775 74.0938 L147.6306 74.0938 Q147.2088 74.6094 146.74 74.875 Q146.2869 75.125 145.4744 75.125 Q144.5994 75.125 144.0213 74.6719 Q143.4431 74.2031 143.4431 73.2188 Q143.4431 72.25 144.1931 71.7344 Q144.9588 71.2031 146.5369 71.1562 L147.6306 71.125 L147.6306 70.7344 Q147.6306 69.9375 147.2713 69.625 Q146.9275 69.3125 146.2869 69.3125 Q145.7869 69.3125 145.3338 69.4688 Q144.8806 69.6094 144.4744 69.7969 L144.1619 69.0156 Q144.5838 68.7812 145.1463 68.625 Q145.7244 68.4531 146.3494 68.4531 ZM146.6619 71.8906 Q145.4588 71.9375 144.99 72.2812 Q144.5369 72.6094 144.5369 73.2188 Q144.5369 73.7656 144.865 74.0156 Q145.1931 74.2656 145.7088 74.2656 Q146.5369 74.2656 147.0681 73.8281 Q147.615 73.375 147.615 72.4375 L147.615 71.8594 L146.6619 71.8906 ZM152.8002 74.25 Q153.0346 74.25 153.2846 74.2188 Q153.5346 74.1719 153.6908 74.125 L153.6908 74.9219 Q153.5346 75.0156 153.2221 75.0625 Q152.9096 75.125 152.6127 75.125 Q152.1127 75.125 151.6752 74.9531 Q151.2533 74.7656 150.9877 74.3438 Q150.7377 73.9062 150.7377 73.125 L150.7377 69.3906 L149.8158 69.3906 L149.8158 68.875 L150.7377 68.4531 L151.1596 67.0938 L151.7846 67.0938 L151.7846 68.5625 L153.6439 68.5625 L153.6439 69.3906 L151.7846 69.3906 L151.7846 73.1094 Q151.7846 73.6875 152.0658 73.9688 Q152.3471 74.25 152.8002 74.25 ZM155.5228 66.1562 Q155.7572 66.1562 155.9447 66.3281 Q156.1322 66.4844 156.1322 66.8281 Q156.1322 67.1562 155.9447 67.3281 Q155.7572 67.5 155.5228 67.5 Q155.2572 67.5 155.0697 67.3281 Q154.8978 67.1562 154.8978 66.8281 Q154.8978 66.4844 155.0697 66.3281 Q155.2572 66.1562 155.5228 66.1562 ZM156.0385 68.5625 L156.0385 75 L154.976 75 L154.976 68.5625 L156.0385 68.5625 ZM162.2282 75 L157.5251 75 L157.5251 74.2969 L160.9782 69.3906 L157.7282 69.3906 L157.7282 68.5625 L162.1501 68.5625 L162.1501 69.3594 L158.7439 74.1875 L162.2282 74.1875 L162.2282 75 ZM166.1495 68.4531 Q167.3214 68.4531 167.8839 68.9688 Q168.462 69.4844 168.462 70.625 L168.462 75 L167.6808 75 L167.4777 74.0938 L167.4308 74.0938 Q167.0089 74.6094 166.5402 74.875 Q166.087 75.125 165.2745 75.125 Q164.3995 75.125 163.8214 74.6719 Q163.2433 74.2031 163.2433 73.2188 Q163.2433 72.25 163.9933 71.7344 Q164.7589 71.2031 166.337 71.1562 L167.4308 71.125 L167.4308 70.7344 Q167.4308 69.9375 167.0714 69.625 Q166.7277 69.3125 166.087 69.3125 Q165.587 69.3125 165.1339 69.4688 Q164.6808 69.6094 164.2745 69.7969 L163.962 69.0156 Q164.3839 68.7812 164.9464 68.625 Q165.5245 68.4531 166.1495 68.4531 ZM166.462 71.8906 Q165.2589 71.9375 164.7902 72.2812 Q164.337 72.6094 164.337 73.2188 Q164.337 73.7656 164.6652 74.0156 Q164.9933 74.2656 165.5089 74.2656 Q166.337 74.2656 166.8683 73.8281 Q167.4152 73.375 167.4152 72.4375 L167.4152 71.8594 L166.462 71.8906 ZM173.0222 75.125 Q172.1785 75.125 171.5066 74.7812 Q170.8503 74.4219 170.4597 73.6875 Q170.0847 72.9531 170.0847 71.8125 Q170.0847 70.625 170.4753 69.8906 Q170.8816 69.1406 171.5535 68.7969 Q172.241 68.4531 173.1003 68.4531 Q173.5847 68.4531 174.0378 68.5625 Q174.5066 68.6562 174.7878 68.7969 L174.4753 69.6719 Q174.1785 69.5625 173.7878 69.4688 Q173.4128 69.375 173.0691 69.375 Q171.1785 69.375 171.1785 71.8125 Q171.1785 72.9688 171.6316 73.5938 Q172.1003 74.2031 173.0222 74.2031 Q173.5378 74.2031 173.9441 74.0938 Q174.3503 73.9844 174.6785 73.8438 L174.6785 74.7656 Q174.366 74.9375 173.9753 75.0312 Q173.5847 75.125 173.0222 75.125 ZM176.751 66.1562 Q176.9854 66.1562 177.1729 66.3281 Q177.3604 66.4844 177.3604 66.8281 Q177.3604 67.1562 177.1729 67.3281 Q176.9854 67.5 176.751 67.5 Q176.4854 67.5 176.2979 67.3281 Q176.126 67.1562 176.126 66.8281 Q176.126 66.4844 176.2979 66.3281 Q176.4854 66.1562 176.751 66.1562 ZM177.2666 68.5625 L177.2666 75 L176.2041 75 L176.2041 68.5625 L177.2666 68.5625 ZM184.8939 71.7656 Q184.8939 73.375 184.0814 74.25 Q183.2689 75.125 181.8939 75.125 Q181.0501 75.125 180.3783 74.7344 Q179.7064 74.3438 179.3158 73.5938 Q178.9408 72.8438 178.9408 71.7656 Q178.9408 70.1719 179.7376 69.3125 Q180.5501 68.4531 181.9251 68.4531 Q182.8158 68.4531 183.472 68.8438 Q184.1439 69.2344 184.5189 69.9688 Q184.8939 70.7031 184.8939 71.7656 ZM180.0345 71.7656 Q180.0345 72.9062 180.4876 73.5781 Q180.9408 74.25 181.9251 74.25 Q182.8939 74.25 183.347 73.5781 Q183.8001 72.9062 183.8001 71.7656 Q183.8001 70.625 183.347 69.9844 Q182.8939 69.3438 181.9095 69.3438 Q180.9251 69.3438 180.472 69.9844 Q180.0345 70.625 180.0345 71.7656 ZM183.6908 65.9219 Q183.5501 66.1406 183.2376 66.4844 Q182.9408 66.8281 182.597 67.1719 Q182.2689 67.5156 181.972 67.7344 L181.2845 67.7344 L181.2845 67.5781 Q181.4564 67.3594 181.6595 67.0469 Q181.8783 66.7344 182.0814 66.4062 Q182.2845 66.0781 182.4251 65.8125 L183.6908 65.8125 L183.6908 65.9219 ZM189.6539 68.4531 Q190.8102 68.4531 191.3883 69.0156 Q191.9821 69.5625 191.9821 70.8125 L191.9821 75 L190.9508 75 L190.9508 70.8906 Q190.9508 69.3438 189.4977 69.3438 Q188.4352 69.3438 188.0289 69.9375 Q187.6227 70.5312 187.6227 71.6562 L187.6227 75 L186.5602 75 L186.5602 68.5625 L187.4196 68.5625 L187.5758 69.4375 L187.6383 69.4375 Q187.9508 68.9375 188.4977 68.7031 Q189.0446 68.4531 189.6539 68.4531 Z"
                  clip-path="url(#clipPath4)" stroke="none"/>
            <rect x="310" y="60" clip-path="url(#clipPath5)"
                  fill="rgb(255,224,224)" width="117" height="21" stroke="none"/>
            <rect fill="none" x="310" width="117" height="21" y="60"
                  clip-path="url(#clipPath5)"/>
            <circle fill="none" r="6.5" clip-path="url(#clipPath5)" cx="415.5"
                    cy="72.5" stroke="black"/>
            <line clip-path="url(#clipPath5)" fill="none" x1="407" x2="424"
                  y1="71" y2="71" stroke="black"/>
            <line clip-path="url(#clipPath5)" fill="none" x1="407" x2="424"
                  y1="74" y2="74" stroke="black"/>
            <path fill="black"
                  d="M346.0312 72.625 Q346.0312 74.7969 344.8438 75.9062 Q343.6562 77 341.5469 77 L339.1562 77 L339.1562 68.4375 L341.7969 68.4375 Q343.0938 68.4375 344.0469 68.9219 Q345 69.3906 345.5156 70.3281 Q346.0312 71.25 346.0312 72.625 ZM344.8906 72.6719 Q344.8906 70.9531 344.0469 70.1562 Q343.2031 69.3594 341.6406 69.3594 L340.25 69.3594 L340.25 76.0781 L341.4062 76.0781 Q344.8906 76.0781 344.8906 72.6719 ZM348.3226 68.1562 Q348.5569 68.1562 348.7444 68.3281 Q348.9319 68.4844 348.9319 68.8281 Q348.9319 69.1562 348.7444 69.3281 Q348.5569 69.5 348.3226 69.5 Q348.0569 69.5 347.8694 69.3281 Q347.6976 69.1562 347.6976 68.8281 Q347.6976 68.4844 347.8694 68.3281 Q348.0569 68.1562 348.3226 68.1562 ZM348.8382 70.5625 L348.8382 77 L347.7757 77 L347.7757 70.5625 L348.8382 70.5625 ZM355.0592 75.2188 Q355.0592 76.1562 354.3561 76.6406 Q353.6686 77.125 352.4967 77.125 Q351.8248 77.125 351.3405 77.0156 Q350.8561 76.9062 350.4811 76.7188 L350.4811 75.75 Q350.8717 75.9375 351.403 76.1094 Q351.9498 76.2656 352.5123 76.2656 Q353.3248 76.2656 353.6842 76.0156 Q354.0436 75.75 354.0436 75.3125 Q354.0436 75.0781 353.903 74.8906 Q353.778 74.7031 353.4342 74.5156 Q353.0905 74.3125 352.4655 74.0781 Q351.8405 73.8281 351.3873 73.5938 Q350.9498 73.3594 350.6998 73.0312 Q350.4655 72.6875 350.4655 72.1562 Q350.4655 71.3438 351.1217 70.9062 Q351.7936 70.4531 352.8873 70.4531 Q353.4655 70.4531 353.9655 70.5625 Q354.4811 70.6719 354.9342 70.875 L354.5748 71.7188 Q354.1686 71.5469 353.7155 71.4375 Q353.278 71.3125 352.8092 71.3125 Q352.153 71.3125 351.8092 71.5312 Q351.4811 71.7344 351.4811 72.0938 Q351.4811 72.3594 351.6373 72.5469 Q351.7936 72.7344 352.153 72.9062 Q352.5123 73.0781 353.1373 73.3125 Q353.7467 73.5469 354.1686 73.7969 Q354.6061 74.0312 354.8248 74.375 Q355.0592 74.7031 355.0592 75.2188 ZM358.776 76.25 Q359.0104 76.25 359.2604 76.2188 Q359.5104 76.1719 359.6666 76.125 L359.6666 76.9219 Q359.5104 77.0156 359.1979 77.0625 Q358.8854 77.125 358.5885 77.125 Q358.0885 77.125 357.651 76.9531 Q357.2291 76.7656 356.9635 76.3438 Q356.7135 75.9062 356.7135 75.125 L356.7135 71.3906 L355.7916 71.3906 L355.7916 70.875 L356.7135 70.4531 L357.1354 69.0938 L357.7604 69.0938 L357.7604 70.5625 L359.6198 70.5625 L359.6198 71.3906 L357.7604 71.3906 L357.7604 75.1094 Q357.7604 75.6875 358.0416 75.9688 Q358.3229 76.25 358.776 76.25 ZM363.9518 70.4531 Q364.1393 70.4531 364.3424 70.4688 Q364.5612 70.4844 364.7174 70.5156 L364.5768 71.4844 Q364.4205 71.4531 364.233 71.4375 Q364.0455 71.4062 363.8893 71.4062 Q363.3893 71.4062 362.9518 71.6875 Q362.5299 71.9531 362.2643 72.4375 Q362.0143 72.9219 362.0143 73.5625 L362.0143 77 L360.9518 77 L360.9518 70.5625 L361.8268 70.5625 L361.9362 71.75 L361.983 71.75 Q362.2955 71.2188 362.7799 70.8438 Q363.2799 70.4531 363.9518 70.4531 ZM366.4547 68.1562 Q366.6891 68.1562 366.8766 68.3281 Q367.0641 68.4844 367.0641 68.8281 Q367.0641 69.1562 366.8766 69.3281 Q366.6891 69.5 366.4547 69.5 Q366.1891 69.5 366.0016 69.3281 Q365.8297 69.1562 365.8297 68.8281 Q365.8297 68.4844 366.0016 68.3281 Q366.1891 68.1562 366.4547 68.1562 ZM366.9703 70.5625 L366.9703 77 L365.9078 77 L365.9078 70.5625 L366.9703 70.5625 ZM370.0663 70.0938 Q370.0663 70.5156 370.0507 70.875 Q370.0351 71.2188 370.0038 71.4219 L370.0663 71.4219 Q370.3476 71.0156 370.8163 70.7344 Q371.3007 70.4531 372.0507 70.4531 Q373.2538 70.4531 373.9726 71.2969 Q374.707 72.125 374.707 73.7812 Q374.707 75.4375 373.9726 76.2812 Q373.2382 77.125 372.0507 77.125 Q371.3007 77.125 370.8163 76.8438 Q370.3476 76.5625 370.0663 76.1875 L369.9726 76.1875 L369.7695 77 L369.0038 77 L369.0038 67.875 L370.0663 67.875 L370.0663 70.0938 ZM371.8788 71.3438 Q370.8632 71.3438 370.457 71.9375 Q370.0663 72.5156 370.0663 73.75 L370.0663 73.7969 Q370.0663 74.9844 370.457 75.625 Q370.8476 76.25 371.8945 76.25 Q372.7695 76.25 373.1913 75.6094 Q373.6132 74.9688 373.6132 73.7656 Q373.6132 71.3438 371.8788 71.3438 ZM381.7589 70.5625 L381.7589 77 L380.8995 77 L380.7433 76.1406 L380.6964 76.1406 Q380.3839 76.6562 379.8214 76.8906 Q379.2745 77.125 378.6495 77.125 Q377.4933 77.125 376.8995 76.5625 Q376.3214 76 376.3214 74.7812 L376.3214 70.5625 L377.3839 70.5625 L377.3839 74.7031 Q377.3839 76.25 378.8058 76.25 Q379.8839 76.25 380.2902 75.6562 Q380.712 75.0469 380.712 73.9219 L380.712 70.5625 L381.7589 70.5625 ZM384.3468 68.1562 Q384.5812 68.1562 384.7687 68.3281 Q384.9562 68.4844 384.9562 68.8281 Q384.9562 69.1562 384.7687 69.3281 Q384.5812 69.5 384.3468 69.5 Q384.0812 69.5 383.8937 69.3281 Q383.7218 69.1562 383.7218 68.8281 Q383.7218 68.4844 383.8937 68.3281 Q384.0812 68.1562 384.3468 68.1562 ZM384.8624 70.5625 L384.8624 77 L383.7999 77 L383.7999 70.5625 L384.8624 70.5625 ZM389.1772 77.125 Q387.9741 77.125 387.2553 76.2969 Q386.5366 75.4531 386.5366 73.7969 Q386.5366 72.1406 387.2553 71.2969 Q387.9897 70.4531 389.1928 70.4531 Q389.9428 70.4531 390.4116 70.7344 Q390.8803 71 391.1772 71.3906 L391.2553 71.3906 Q391.2397 71.2344 391.2085 70.9375 Q391.1772 70.625 391.1772 70.4531 L391.1772 67.875 L392.2397 67.875 L392.2397 77 L391.396 77 L391.2397 76.1406 L391.1772 76.1406 Q390.896 76.5469 390.4116 76.8438 Q389.9428 77.125 389.1772 77.125 ZM389.3491 76.25 Q390.3647 76.25 390.771 75.6875 Q391.1928 75.125 391.1928 74 L391.1928 73.8125 Q391.1928 72.6094 390.8022 71.9688 Q390.4116 71.3281 389.3335 71.3281 Q388.4897 71.3281 388.0522 72.0156 Q387.6303 72.6875 387.6303 73.8125 Q387.6303 74.9688 388.0522 75.6094 Q388.4897 76.25 389.3491 76.25 ZM399.8698 73.7656 Q399.8698 75.375 399.0573 76.25 Q398.2448 77.125 396.8698 77.125 Q396.026 77.125 395.3541 76.7344 Q394.6823 76.3438 394.2916 75.5938 Q393.9166 74.8438 393.9166 73.7656 Q393.9166 72.1719 394.7135 71.3125 Q395.526 70.4531 396.901 70.4531 Q397.7916 70.4531 398.4479 70.8438 Q399.1198 71.2344 399.4948 71.9688 Q399.8698 72.7031 399.8698 73.7656 ZM395.0104 73.7656 Q395.0104 74.9062 395.4635 75.5781 Q395.9166 76.25 396.901 76.25 Q397.8698 76.25 398.3229 75.5781 Q398.776 74.9062 398.776 73.7656 Q398.776 72.625 398.3229 71.9844 Q397.8698 71.3438 396.8854 71.3438 Q395.901 71.3438 395.4479 71.9844 Q395.0104 72.625 395.0104 73.7656 Z"
                  clip-path="url(#clipPath6)" stroke="none"/>
            <rect x="190" y="10" clip-path="url(#clipPath7)"
                  fill="rgb(255,224,224)" width="145" height="25" stroke="none"/>
            <rect fill="none" x="190" width="145" height="25" y="10"
                  clip-path="url(#clipPath7)"/>
            <line clip-path="url(#clipPath7)" fill="none" x1="315" x2="327"
                  y1="23" y2="23" stroke="black" stroke-width="2"/>
            <line clip-path="url(#clipPath7)" fill="none" x1="317" x2="329"
                  y1="20" y2="20" stroke="black" stroke-width="2"/>
            <line clip-path="url(#clipPath7)" fill="none" x1="319" x2="331"
                  y1="17" y2="17" stroke="black" stroke-width="2"/>
            <path fill="black"
                  d="M225.6406 22.7031 Q225.6406 24.0312 225.1875 25.0312 Q224.7344 26.0156 223.8594 26.5781 Q222.9844 27.125 221.6875 27.125 Q220.3594 27.125 219.4688 26.5781 Q218.5938 26.0156 218.1562 25.0312 Q217.7344 24.0312 217.7344 22.6875 Q217.7344 21.375 218.1562 20.3906 Q218.5938 19.4062 219.4688 18.8594 Q220.3594 18.2969 221.7031 18.2969 Q222.9844 18.2969 223.8594 18.8438 Q224.7344 19.3906 225.1875 20.3906 Q225.6406 21.375 225.6406 22.7031 ZM218.875 22.7031 Q218.875 24.3281 219.5469 25.2656 Q220.2344 26.1875 221.6875 26.1875 Q223.1562 26.1875 223.8281 25.2656 Q224.5 24.3281 224.5 22.7031 Q224.5 21.0781 223.8281 20.1719 Q223.1562 19.25 221.7031 19.25 Q220.25 19.25 219.5625 20.1719 Q218.875 21.0781 218.875 22.7031 ZM234.4502 20.4531 Q235.5439 20.4531 236.0752 21.0156 Q236.6221 21.5625 236.6221 22.8125 L236.6221 27 L235.5752 27 L235.5752 22.8594 Q235.5752 21.3438 234.2627 21.3438 Q233.3252 21.3438 232.9189 21.8906 Q232.5283 22.4219 232.5283 23.4531 L232.5283 27 L231.4814 27 L231.4814 22.8594 Q231.4814 21.3438 230.1689 21.3438 Q229.1846 21.3438 228.8096 21.9375 Q228.4502 22.5312 228.4502 23.6562 L228.4502 27 L227.3877 27 L227.3877 20.5625 L228.2471 20.5625 L228.4033 21.4375 L228.4658 21.4375 Q228.7627 20.9375 229.2627 20.7031 Q229.7783 20.4531 230.3564 20.4531 Q231.8721 20.4531 232.3252 21.5312 L232.3877 21.5312 Q232.7158 20.9688 233.2627 20.7188 Q233.8252 20.4531 234.4502 20.4531 ZM241.7015 20.4531 Q242.8578 20.4531 243.4359 21.0156 Q244.0296 21.5625 244.0296 22.8125 L244.0296 27 L242.9984 27 L242.9984 22.8906 Q242.9984 21.3438 241.5453 21.3438 Q240.4828 21.3438 240.0765 21.9375 Q239.6703 22.5312 239.6703 23.6562 L239.6703 27 L238.6078 27 L238.6078 20.5625 L239.4671 20.5625 L239.6234 21.4375 L239.6859 21.4375 Q239.9984 20.9375 240.5453 20.7031 Q241.0921 20.4531 241.7015 20.4531 ZM246.5707 18.1562 Q246.8051 18.1562 246.9926 18.3281 Q247.1801 18.4844 247.1801 18.8281 Q247.1801 19.1562 246.9926 19.3281 Q246.8051 19.5 246.5707 19.5 Q246.3051 19.5 246.1176 19.3281 Q245.9457 19.1562 245.9457 18.8281 Q245.9457 18.4844 246.1176 18.3281 Q246.3051 18.1562 246.5707 18.1562 ZM247.0863 20.5625 L247.0863 27 L246.0238 27 L246.0238 20.5625 L247.0863 20.5625 ZM254.1355 24.7031 Q254.1355 25.8438 253.3073 26.4844 Q252.4792 27.125 251.073 27.125 Q250.3542 27.125 249.7292 27.0156 Q249.1198 26.9062 248.7136 26.7188 L248.7136 25.6875 Q249.1511 25.875 249.7917 26.0312 Q250.4323 26.1875 251.1198 26.1875 Q252.073 26.1875 252.5573 25.8125 Q253.0417 25.4375 253.0417 24.7969 Q253.0417 24.3906 252.8542 24.1094 Q252.6823 23.8125 252.2448 23.5625 Q251.8073 23.3125 251.0261 23.0469 Q249.948 22.6406 249.3855 22.0625 Q248.823 21.4844 248.823 20.5 Q248.823 19.8125 249.1667 19.3281 Q249.5261 18.8438 250.1355 18.5781 Q250.7605 18.3125 251.5573 18.3125 Q252.2605 18.3125 252.8542 18.4531 Q253.448 18.5781 253.9167 18.7969 L253.5886 19.7188 Q253.1511 19.5312 252.6198 19.4062 Q252.1042 19.2656 251.5417 19.2656 Q250.7292 19.2656 250.323 19.6094 Q249.9167 19.9375 249.9167 20.5156 Q249.9167 20.9375 250.0886 21.2344 Q250.2761 21.5156 250.6823 21.75 Q251.0886 21.9688 251.7917 22.2344 Q252.5417 22.5156 253.0573 22.8281 Q253.5886 23.1406 253.8542 23.5938 Q254.1355 24.0312 254.1355 24.7031 ZM257.8641 26.25 Q258.0985 26.25 258.3485 26.2188 Q258.5985 26.1719 258.7548 26.125 L258.7548 26.9219 Q258.5985 27.0156 258.286 27.0625 Q257.9735 27.125 257.6766 27.125 Q257.1766 27.125 256.7391 26.9531 Q256.3173 26.7656 256.0516 26.3438 Q255.8016 25.9062 255.8016 25.125 L255.8016 21.3906 L254.8798 21.3906 L254.8798 20.875 L255.8016 20.4531 L256.2235 19.0938 L256.8485 19.0938 L256.8485 20.5625 L258.7079 20.5625 L258.7079 21.3906 L256.8485 21.3906 L256.8485 25.1094 Q256.8485 25.6875 257.1298 25.9688 Q257.411 26.25 257.8641 26.25 ZM263.0399 20.4531 Q263.2274 20.4531 263.4305 20.4688 Q263.6493 20.4844 263.8055 20.5156 L263.6649 21.4844 Q263.5087 21.4531 263.3212 21.4375 Q263.1337 21.4062 262.9774 21.4062 Q262.4774 21.4062 262.0399 21.6875 Q261.618 21.9531 261.3524 22.4375 Q261.1024 22.9219 261.1024 23.5625 L261.1024 27 L260.0399 27 L260.0399 20.5625 L260.9149 20.5625 L261.0243 21.75 L261.0712 21.75 Q261.3837 21.2188 261.868 20.8438 Q262.368 20.4531 263.0399 20.4531 ZM267.4803 20.4531 Q268.3085 20.4531 268.9022 20.8125 Q269.496 21.1719 269.8085 21.8281 Q270.1366 22.4688 270.1366 23.3594 L270.1366 23.9844 L265.7303 23.9844 Q265.7616 25.0781 266.2928 25.6562 Q266.8241 26.2188 267.7772 26.2188 Q268.4022 26.2188 268.871 26.1094 Q269.3397 25.9844 269.8553 25.7812 L269.8553 26.7031 Q269.3553 26.9219 268.871 27.0156 Q268.4022 27.125 267.7303 27.125 Q266.8241 27.125 266.121 26.75 Q265.4178 26.375 265.0272 25.6406 Q264.6366 24.9062 264.6366 23.8281 Q264.6366 22.7812 264.996 22.0312 Q265.3553 21.2656 265.996 20.8594 Q266.6366 20.4531 267.4803 20.4531 ZM267.4647 21.3125 Q266.7147 21.3125 266.2772 21.7969 Q265.8397 22.2812 265.7616 23.1406 L269.0272 23.1406 Q269.0272 22.3281 268.6522 21.8281 Q268.2772 21.3125 267.4647 21.3125 ZM274.2015 20.4531 Q275.3734 20.4531 275.9359 20.9688 Q276.514 21.4844 276.514 22.625 L276.514 27 L275.7328 27 L275.5296 26.0938 L275.4828 26.0938 Q275.0609 26.6094 274.5921 26.875 Q274.139 27.125 273.3265 27.125 Q272.4515 27.125 271.8734 26.6719 Q271.2953 26.2031 271.2953 25.2188 Q271.2953 24.25 272.0453 23.7344 Q272.8109 23.2031 274.389 23.1562 L275.4828 23.125 L275.4828 22.7344 Q275.4828 21.9375 275.1234 21.625 Q274.7796 21.3125 274.139 21.3125 Q273.639 21.3125 273.1859 21.4688 Q272.7328 21.6094 272.3265 21.7969 L272.014 21.0156 Q272.4359 20.7812 272.9984 20.625 Q273.5765 20.4531 274.2015 20.4531 ZM274.514 23.8906 Q273.3109 23.9375 272.8421 24.2812 Q272.389 24.6094 272.389 25.2188 Q272.389 25.7656 272.7171 26.0156 Q273.0453 26.2656 273.5609 26.2656 Q274.389 26.2656 274.9203 25.8281 Q275.4671 25.375 275.4671 24.4375 L275.4671 23.8594 L274.514 23.8906 ZM285.5585 20.4531 Q286.6523 20.4531 287.1835 21.0156 Q287.7304 21.5625 287.7304 22.8125 L287.7304 27 L286.6835 27 L286.6835 22.8594 Q286.6835 21.3438 285.371 21.3438 Q284.4335 21.3438 284.0273 21.8906 Q283.6367 22.4219 283.6367 23.4531 L283.6367 27 L282.5898 27 L282.5898 22.8594 Q282.5898 21.3438 281.2773 21.3438 Q280.2929 21.3438 279.9179 21.9375 Q279.5585 22.5312 279.5585 23.6562 L279.5585 27 L278.496 27 L278.496 20.5625 L279.3554 20.5625 L279.5117 21.4375 L279.5742 21.4375 Q279.871 20.9375 280.371 20.7031 Q280.8867 20.4531 281.4648 20.4531 Q282.9804 20.4531 283.4335 21.5312 L283.496 21.5312 Q283.8242 20.9688 284.371 20.7188 Q284.9335 20.4531 285.5585 20.4531 ZM298.0549 27 L292.3987 27 L292.3987 26.125 L294.633 23.8594 Q295.2893 23.2031 295.7268 22.7031 Q296.1799 22.2031 296.3987 21.7188 Q296.633 21.2344 296.633 20.6562 Q296.633 19.9375 296.2112 19.5781 Q295.7893 19.2188 295.1174 19.2188 Q294.4924 19.2188 294.0237 19.4375 Q293.5549 19.6406 293.0549 20.0312 L292.4924 19.3125 Q292.9924 18.9062 293.6487 18.6094 Q294.3049 18.3125 295.1174 18.3125 Q296.3205 18.3125 297.008 18.9219 Q297.7112 19.5312 297.7112 20.5938 Q297.7112 21.2656 297.4299 21.8594 Q297.1643 22.4375 296.6643 23.0156 Q296.1799 23.5781 295.5237 24.2344 L293.7268 25.9844 L293.7268 26.0469 L298.0549 26.0469 L298.0549 27 ZM299.5439 26.3594 Q299.5439 25.9062 299.7627 25.7344 Q299.9814 25.5469 300.2783 25.5469 Q300.5908 25.5469 300.8096 25.7344 Q301.0439 25.9062 301.0439 26.3594 Q301.0439 26.7812 300.8096 26.9844 Q300.5908 27.1719 300.2783 27.1719 Q299.9814 27.1719 299.7627 26.9844 Q299.5439 26.7812 299.5439 26.3594 ZM308.1818 22.7031 Q308.1818 24.0781 307.8849 25.0781 Q307.6037 26.0625 306.9787 26.5938 Q306.3537 27.125 305.3224 27.125 Q303.8693 27.125 303.1818 25.9531 Q302.4943 24.7812 302.4943 22.7031 Q302.4943 21.3125 302.7756 20.3281 Q303.0568 19.3438 303.6818 18.8281 Q304.3068 18.2969 305.3224 18.2969 Q306.7599 18.2969 307.4631 19.4531 Q308.1818 20.6094 308.1818 22.7031 ZM303.5412 22.7031 Q303.5412 24.4688 303.9474 25.3438 Q304.3537 26.2188 305.3224 26.2188 Q306.2756 26.2188 306.6818 25.3594 Q307.1037 24.4844 307.1037 22.7031 Q307.1037 20.9531 306.6818 20.0781 Q306.2756 19.2031 305.3224 19.2031 Q304.3537 19.2031 303.9474 20.0781 Q303.5412 20.9531 303.5412 22.7031 Z"
                  stroke-width="2" clip-path="url(#clipPath8)" stroke="none"/>
            <rect x="382" y="10" clip-path="url(#clipPath9)"
                  fill="rgb(255,224,224)" width="145" height="25" stroke="none"
                  stroke-width="2"/>
            <rect fill="none" x="382" width="145" height="25" y="10"
                  clip-path="url(#clipPath9)"/>
            <line clip-path="url(#clipPath9)" fill="none" x1="507" x2="519"
                  y1="23" y2="23" stroke="black" stroke-width="2"/>
            <line clip-path="url(#clipPath9)" fill="none" x1="509" x2="521"
                  y1="20" y2="20" stroke="black" stroke-width="2"/>
            <line clip-path="url(#clipPath9)" fill="none" x1="511" x2="523"
                  y1="17" y2="17" stroke="black" stroke-width="2"/>
            <path fill="black"
                  d="M417.6406 22.7031 Q417.6406 24.0312 417.1875 25.0312 Q416.7344 26.0156 415.8594 26.5781 Q414.9844 27.125 413.6875 27.125 Q412.3594 27.125 411.4688 26.5781 Q410.5938 26.0156 410.1562 25.0312 Q409.7344 24.0312 409.7344 22.6875 Q409.7344 21.375 410.1562 20.3906 Q410.5938 19.4062 411.4688 18.8594 Q412.3594 18.2969 413.7031 18.2969 Q414.9844 18.2969 415.8594 18.8438 Q416.7344 19.3906 417.1875 20.3906 Q417.6406 21.375 417.6406 22.7031 ZM410.875 22.7031 Q410.875 24.3281 411.5469 25.2656 Q412.2344 26.1875 413.6875 26.1875 Q415.1562 26.1875 415.8281 25.2656 Q416.5 24.3281 416.5 22.7031 Q416.5 21.0781 415.8281 20.1719 Q415.1562 19.25 413.7031 19.25 Q412.25 19.25 411.5625 20.1719 Q410.875 21.0781 410.875 22.7031 ZM426.4502 20.4531 Q427.5439 20.4531 428.0752 21.0156 Q428.6221 21.5625 428.6221 22.8125 L428.6221 27 L427.5752 27 L427.5752 22.8594 Q427.5752 21.3438 426.2627 21.3438 Q425.3252 21.3438 424.9189 21.8906 Q424.5283 22.4219 424.5283 23.4531 L424.5283 27 L423.4814 27 L423.4814 22.8594 Q423.4814 21.3438 422.1689 21.3438 Q421.1846 21.3438 420.8096 21.9375 Q420.4502 22.5312 420.4502 23.6562 L420.4502 27 L419.3877 27 L419.3877 20.5625 L420.2471 20.5625 L420.4033 21.4375 L420.4658 21.4375 Q420.7627 20.9375 421.2627 20.7031 Q421.7783 20.4531 422.3564 20.4531 Q423.8721 20.4531 424.3252 21.5312 L424.3877 21.5312 Q424.7158 20.9688 425.2627 20.7188 Q425.8252 20.4531 426.4502 20.4531 ZM433.7015 20.4531 Q434.8578 20.4531 435.4359 21.0156 Q436.0297 21.5625 436.0297 22.8125 L436.0297 27 L434.9984 27 L434.9984 22.8906 Q434.9984 21.3438 433.5453 21.3438 Q432.4828 21.3438 432.0765 21.9375 Q431.6703 22.5312 431.6703 23.6562 L431.6703 27 L430.6078 27 L430.6078 20.5625 L431.4672 20.5625 L431.6234 21.4375 L431.6859 21.4375 Q431.9984 20.9375 432.5453 20.7031 Q433.0922 20.4531 433.7015 20.4531 ZM438.5707 18.1562 Q438.8051 18.1562 438.9926 18.3281 Q439.1801 18.4844 439.1801 18.8281 Q439.1801 19.1562 438.9926 19.3281 Q438.8051 19.5 438.5707 19.5 Q438.3051 19.5 438.1176 19.3281 Q437.9457 19.1562 437.9457 18.8281 Q437.9457 18.4844 438.1176 18.3281 Q438.3051 18.1562 438.5707 18.1562 ZM439.0863 20.5625 L439.0863 27 L438.0238 27 L438.0238 20.5625 L439.0863 20.5625 ZM446.1355 24.7031 Q446.1355 25.8438 445.3073 26.4844 Q444.4792 27.125 443.073 27.125 Q442.3542 27.125 441.7292 27.0156 Q441.1198 26.9062 440.7136 26.7188 L440.7136 25.6875 Q441.1511 25.875 441.7917 26.0312 Q442.4323 26.1875 443.1198 26.1875 Q444.073 26.1875 444.5573 25.8125 Q445.0417 25.4375 445.0417 24.7969 Q445.0417 24.3906 444.8542 24.1094 Q444.6823 23.8125 444.2448 23.5625 Q443.8073 23.3125 443.0261 23.0469 Q441.948 22.6406 441.3855 22.0625 Q440.823 21.4844 440.823 20.5 Q440.823 19.8125 441.1667 19.3281 Q441.5261 18.8438 442.1355 18.5781 Q442.7605 18.3125 443.5573 18.3125 Q444.2605 18.3125 444.8542 18.4531 Q445.448 18.5781 445.9167 18.7969 L445.5886 19.7188 Q445.1511 19.5312 444.6198 19.4062 Q444.1042 19.2656 443.5417 19.2656 Q442.7292 19.2656 442.323 19.6094 Q441.9167 19.9375 441.9167 20.5156 Q441.9167 20.9375 442.0886 21.2344 Q442.2761 21.5156 442.6823 21.75 Q443.0886 21.9688 443.7917 22.2344 Q444.5417 22.5156 445.0573 22.8281 Q445.5886 23.1406 445.8542 23.5938 Q446.1355 24.0312 446.1355 24.7031 ZM449.8641 26.25 Q450.0985 26.25 450.3485 26.2188 Q450.5985 26.1719 450.7548 26.125 L450.7548 26.9219 Q450.5985 27.0156 450.286 27.0625 Q449.9735 27.125 449.6766 27.125 Q449.1766 27.125 448.7391 26.9531 Q448.3173 26.7656 448.0516 26.3438 Q447.8016 25.9062 447.8016 25.125 L447.8016 21.3906 L446.8798 21.3906 L446.8798 20.875 L447.8016 20.4531 L448.2235 19.0938 L448.8485 19.0938 L448.8485 20.5625 L450.7079 20.5625 L450.7079 21.3906 L448.8485 21.3906 L448.8485 25.1094 Q448.8485 25.6875 449.1298 25.9688 Q449.411 26.25 449.8641 26.25 ZM455.0399 20.4531 Q455.2274 20.4531 455.4305 20.4688 Q455.6493 20.4844 455.8055 20.5156 L455.6649 21.4844 Q455.5087 21.4531 455.3212 21.4375 Q455.1337 21.4062 454.9774 21.4062 Q454.4774 21.4062 454.0399 21.6875 Q453.618 21.9531 453.3524 22.4375 Q453.1024 22.9219 453.1024 23.5625 L453.1024 27 L452.0399 27 L452.0399 20.5625 L452.9149 20.5625 L453.0243 21.75 L453.0712 21.75 Q453.3837 21.2188 453.868 20.8438 Q454.368 20.4531 455.0399 20.4531 ZM459.4803 20.4531 Q460.3085 20.4531 460.9022 20.8125 Q461.496 21.1719 461.8085 21.8281 Q462.1366 22.4688 462.1366 23.3594 L462.1366 23.9844 L457.7303 23.9844 Q457.7616 25.0781 458.2928 25.6562 Q458.8241 26.2188 459.7772 26.2188 Q460.4022 26.2188 460.871 26.1094 Q461.3397 25.9844 461.8553 25.7812 L461.8553 26.7031 Q461.3553 26.9219 460.871 27.0156 Q460.4022 27.125 459.7303 27.125 Q458.8241 27.125 458.121 26.75 Q457.4178 26.375 457.0272 25.6406 Q456.6366 24.9062 456.6366 23.8281 Q456.6366 22.7812 456.996 22.0312 Q457.3553 21.2656 457.996 20.8594 Q458.6366 20.4531 459.4803 20.4531 ZM459.4647 21.3125 Q458.7147 21.3125 458.2772 21.7969 Q457.8397 22.2812 457.7616 23.1406 L461.0272 23.1406 Q461.0272 22.3281 460.6522 21.8281 Q460.2772 21.3125 459.4647 21.3125 ZM466.2015 20.4531 Q467.3734 20.4531 467.9359 20.9688 Q468.514 21.4844 468.514 22.625 L468.514 27 L467.7328 27 L467.5296 26.0938 L467.4828 26.0938 Q467.0609 26.6094 466.5921 26.875 Q466.139 27.125 465.3265 27.125 Q464.4515 27.125 463.8734 26.6719 Q463.2953 26.2031 463.2953 25.2188 Q463.2953 24.25 464.0453 23.7344 Q464.8109 23.2031 466.389 23.1562 L467.4828 23.125 L467.4828 22.7344 Q467.4828 21.9375 467.1234 21.625 Q466.7796 21.3125 466.139 21.3125 Q465.639 21.3125 465.1859 21.4688 Q464.7328 21.6094 464.3265 21.7969 L464.014 21.0156 Q464.4359 20.7812 464.9984 20.625 Q465.5765 20.4531 466.2015 20.4531 ZM466.514 23.8906 Q465.3109 23.9375 464.8421 24.2812 Q464.389 24.6094 464.389 25.2188 Q464.389 25.7656 464.7171 26.0156 Q465.0453 26.2656 465.5609 26.2656 Q466.389 26.2656 466.9203 25.8281 Q467.4671 25.375 467.4671 24.4375 L467.4671 23.8594 L466.514 23.8906 ZM477.5585 20.4531 Q478.6523 20.4531 479.1835 21.0156 Q479.7304 21.5625 479.7304 22.8125 L479.7304 27 L478.6835 27 L478.6835 22.8594 Q478.6835 21.3438 477.371 21.3438 Q476.4335 21.3438 476.0273 21.8906 Q475.6367 22.4219 475.6367 23.4531 L475.6367 27 L474.5898 27 L474.5898 22.8594 Q474.5898 21.3438 473.2773 21.3438 Q472.2929 21.3438 471.9179 21.9375 Q471.5585 22.5312 471.5585 23.6562 L471.5585 27 L470.496 27 L470.496 20.5625 L471.3554 20.5625 L471.5117 21.4375 L471.5742 21.4375 Q471.871 20.9375 472.371 20.7031 Q472.8867 20.4531 473.4648 20.4531 Q474.9804 20.4531 475.4335 21.5312 L475.496 21.5312 Q475.8242 20.9688 476.371 20.7188 Q476.9335 20.4531 477.5585 20.4531 ZM489.7424 20.4375 Q489.7424 21.2969 489.258 21.8125 Q488.7737 22.3125 487.9612 22.4844 L487.9612 22.5312 Q488.9924 22.6562 489.4924 23.1875 Q490.008 23.7188 490.008 24.5625 Q490.008 25.3125 489.6487 25.8906 Q489.3049 26.4688 488.5705 26.7969 Q487.8518 27.125 486.7112 27.125 Q486.0393 27.125 485.4612 27.0156 Q484.883 26.9219 484.3674 26.6562 L484.3674 25.6719 Q484.8987 25.9375 485.5237 26.0938 Q486.1487 26.2344 486.7268 26.2344 Q487.883 26.2344 488.383 25.7812 Q488.8987 25.3281 488.8987 24.5469 Q488.8987 23.7344 488.258 23.3906 Q487.633 23.0312 486.4924 23.0312 L485.6643 23.0312 L485.6643 22.125 L486.508 22.125 Q487.5705 22.125 488.1174 21.6875 Q488.6643 21.2344 488.6643 20.5156 Q488.6643 19.8906 488.2424 19.5469 Q487.8205 19.2031 487.1018 19.2031 Q486.3987 19.2031 485.8987 19.4062 Q485.4143 19.6094 484.9299 19.9219 L484.4143 19.2031 Q484.8674 18.8438 485.5393 18.5781 Q486.2268 18.3125 487.0862 18.3125 Q488.4299 18.3125 489.0862 18.9219 Q489.7424 19.5156 489.7424 20.4375 ZM491.5439 26.3594 Q491.5439 25.9062 491.7627 25.7344 Q491.9814 25.5469 492.2783 25.5469 Q492.5908 25.5469 492.8096 25.7344 Q493.0439 25.9062 493.0439 26.3594 Q493.0439 26.7812 492.8096 26.9844 Q492.5908 27.1719 492.2783 27.1719 Q491.9814 27.1719 491.7627 26.9844 Q491.5439 26.7812 491.5439 26.3594 ZM500.1818 22.7031 Q500.1818 24.0781 499.8849 25.0781 Q499.6037 26.0625 498.9787 26.5938 Q498.3537 27.125 497.3224 27.125 Q495.8693 27.125 495.1818 25.9531 Q494.4943 24.7812 494.4943 22.7031 Q494.4943 21.3125 494.7756 20.3281 Q495.0568 19.3438 495.6818 18.8281 Q496.3068 18.2969 497.3224 18.2969 Q498.7599 18.2969 499.4631 19.4531 Q500.1818 20.6094 500.1818 22.7031 ZM495.5412 22.7031 Q495.5412 24.4688 495.9474 25.3438 Q496.3537 26.2188 497.3224 26.2188 Q498.2756 26.2188 498.6818 25.3594 Q499.1037 24.4844 499.1037 22.7031 Q499.1037 20.9531 498.6818 20.0781 Q498.2756 19.2031 497.3224 19.2031 Q496.3537 19.2031 495.9474 20.0781 Q495.5412 20.9531 495.5412 22.7031 Z"
                  stroke-width="2" clip-path="url(#clipPath10)" stroke="none"/>
            <path fill="none" d="M112 35 L112 58" clip-path="url(#clipPath11)"
                  stroke="black"/>
            <path fill="none" d="M202 35 L202 58" clip-path="url(#clipPath12)"
                  stroke="black"/>
            <path fill="none" d="M322 35 L322 60" clip-path="url(#clipPath13)"
                  stroke="black"/>
            <path fill="none" d="M404 35 L404 60" clip-path="url(#clipPath14)"
                  stroke="black"/>
        </g>
    </g>
</svg>
